SplineFontDB: 3.0
FontName: OxygenSans-Bold
FullName: OxygenSans Bold
FamilyName: OxygenSans
Weight: Bold
Copyright: Copyright 2009-2012 vernon adams.
Version: 1.001;PS (version unavailable);hotconv 1.0.57;makeotf.lib2.0.21895 DEVELOPMENT
ItalicAngle: 0
UnderlinePosition: 0
UnderlineWidth: 0
Ascent: 1638
Descent: 410
UFOAscent: 2035
UFODescent: -672
LayerCount: 2
Layer: 0 0 "Back"  1
Layer: 1 0 "Fore"  0
FSType: 8
OS2Version: 0
OS2_WeightWidthSlopeOnly: 0
OS2_UseTypoMetrics: 0
CreationTime: 1353361428
ModificationTime: 1353361521
PfmFamily: 0
TTFWeight: 700
TTFWidth: 5
LineGap: 0
VLineGap: 0
Panose: 0 0 0 0 0 0 0 0 0 0
OS2TypoAscent: 2035
OS2TypoAOffset: 0
OS2TypoDescent: -672
OS2TypoDOffset: 0
OS2TypoLinegap: 0
OS2WinAscent: 2035
OS2WinAOffset: 0
OS2WinDescent: 672
OS2WinDOffset: 0
HheadAscent: 2035
HheadAOffset: 0
HheadDescent: -672
HheadDOffset: 0
OS2SubXSize: 1331
OS2SubYSize: 1228
OS2SubXOff: 0
OS2SubYOff: 153
OS2SupXSize: 1331
OS2SupYSize: 1228
OS2SupXOff: 0
OS2SupYOff: 716
OS2StrikeYSize: 50
OS2StrikeYPos: 610
OS2Vendor: 'newt'
OS2CodePages: 0000029f.00000001
OS2UnicodeRanges: 0000008f.00000000.00000000.00000000
DEI: 91125
LangName: 1033 "" "" "" "1.001;newt;OxygenSans-Bold" "" "Version 1.001;PS (version unavailable);hotconv 1.0.57;makeotf.lib2.0.21895 DEVELOPMENT" "" "" "" "Vernon Adams" "" "" "" "" "http://scripts.sil.org/OFL" 
PickledData: "(dp1
S'com.typemytype.robofont.compileSettings.autohint'
p2
I01
sS'com.typemytype.robofont.compileSettings.decompose'
p3
I01
sS'com.typemytype.robofont.foreground.layerStrokeColor'
p4
(F0.5
F0
F0.5
F0.69999999999999996
tp5
sS'com.typemytype.robofont.guides'
p6
((dp7
S'angle'
p8
I0
sS'name'
p9
NsS'magnetic'
p10
I5
sS'isGlobal'
p11
I1
sS'y'
I1357
sS'x'
I817
s(dp12
g8
I0
sg9
Nsg10
I5
sg11
I1
sS'y'
I1127
sS'x'
I836
s(dp13
g8
I0
sg9
Nsg10
I5
sg11
I1
sS'y'
I210
sS'x'
I826
s(dp14
g8
I0
sg9
Nsg10
I5
sg11
I1
sS'y'
I-18
sS'x'
I831
stp15
sS'com.typemytype.robofont.compileSettings.releaseMode'
p16
I00

StartChar: .notdef
Encoding: 65536 -1 0
Width: 1024
VWidth: 0
Flags: HW
PickledData: "(dp1
S'com.typemytype.robofont.layerData'
p2
(dp3
s."
LayerCount: 2
Fore
SplineSet
102 -500 m 1
 102 1501 l 1
 922 1501 l 1
 922 -500 l 1
 102 -500 l 1
204 -398 m 1
 820 -398 l 1
 820 1399 l 1
 204 1399 l 1
 204 -398 l 1
EndSplineSet
EndChar

StartChar: A
Encoding: 65 65 1
Width: 1477
VWidth: 0
Flags: HW
PickledData: "(dp1
S'com.typemytype.robofont.layerData'
p2
(dp3
s."
LayerCount: 2
Fore
SplineSet
569 555 m 1
 905 555 l 1
 743 1093 l 1
 569 555 l 1
83 0 m 1
 562 1336 l 1
 917 1336 l 1
 1394 0 l 1
 1098 0 l 1
 964 365 l 1
 508 365 l 1
 382 0 l 1
 83 0 l 1
EndSplineSet
EndChar

StartChar: AE
Encoding: 198 198 2
Width: 1781
VWidth: 0
Flags: HW
PickledData: "(dp1
S'com.typemytype.robofont.layerData'
p2
(dp3
s."
LayerCount: 2
Fore
SplineSet
1141 1161 m 1
 1168 785 l 1
 1655 785 l 1
 1655 592 l 1
 1188 592 l 1
 1221 194 l 1
 1723 194 l 1
 1709 0 l 1
 971 0 l 1
 944 334 l 1
 495 334 l 1
 316 0 l 1
 23 0 l 1
 781 1355 l 1
 1692 1355 l 1
 1676 1161 l 1
 1141 1161 l 1
928 538 m 1
 887 1087 l 1
 589 538 l 1
 928 538 l 1
EndSplineSet
EndChar

StartChar: AEacute
Encoding: 508 508 3
Width: 1781
VWidth: 0
Flags: HW
PickledData: "(dp1
S'com.typemytype.robofont.layerData'
p2
(dp3
s."
LayerCount: 2
Fore
SplineSet
1141 1161 m 1
 1168 785 l 1
 1655 785 l 1
 1655 592 l 1
 1188 592 l 1
 1221 194 l 1
 1723 194 l 1
 1709 0 l 1
 971 0 l 1
 944 334 l 1
 495 334 l 1
 316 0 l 1
 23 0 l 1
 781 1355 l 1
 1692 1355 l 1
 1676 1161 l 1
 1141 1161 l 1
928 538 m 1
 887 1087 l 1
 589 538 l 1
 928 538 l 1
794 1479 m 1
 954 1840 l 1
 1246 1840 l 1
 952 1479 l 1
 794 1479 l 1
EndSplineSet
EndChar

StartChar: Aacute
Encoding: 193 193 4
Width: 1427
VWidth: 0
Flags: HW
PickledData: "(dp1
S'com.typemytype.robofont.layerData'
p2
(dp3
s."
LayerCount: 2
Fore
SplineSet
556 555 m 1
 868 555 l 1
 718 1093 l 1
 556 555 l 1
90 0 m 1
 545 1336 l 1
 883 1336 l 1
 1337 0 l 1
 1051 0 l 1
 924 365 l 1
 498 365 l 1
 378 0 l 1
 90 0 l 1
635 1479 m 1
 795 1840 l 1
 1087 1840 l 1
 792 1479 l 1
 635 1479 l 1
EndSplineSet
EndChar

StartChar: Abreve
Encoding: 258 258 5
Width: 1427
VWidth: 0
Flags: HW
PickledData: "(dp1
S'com.typemytype.robofont.layerData'
p2
(dp3
s."
LayerCount: 2
Fore
SplineSet
556 555 m 1
 868 555 l 1
 718 1093 l 1
 556 555 l 1
90 0 m 1
 545 1336 l 1
 883 1336 l 1
 1337 0 l 1
 1051 0 l 1
 924 365 l 1
 498 365 l 1
 378 0 l 1
 90 0 l 1
982 1722 m 1
 982 1556 865 1479 712 1479 c 0
 560 1479 444 1557 444 1722 c 1
 612 1722 l 1
 612 1661 638 1637 712 1637 c 0
 786 1637 814 1661 814 1722 c 1
 982 1722 l 1
EndSplineSet
EndChar

StartChar: Acircumflex
Encoding: 194 194 6
Width: 1427
VWidth: 0
Flags: HW
PickledData: "(dp1
S'com.typemytype.robofont.layerData'
p2
(dp3
s."
LayerCount: 2
Fore
SplineSet
556 555 m 1
 868 555 l 1
 718 1093 l 1
 556 555 l 1
90 0 m 1
 545 1336 l 1
 883 1336 l 1
 1337 0 l 1
 1051 0 l 1
 924 365 l 1
 498 365 l 1
 378 0 l 1
 90 0 l 1
380 1479 m 1
 615 1847 l 1
 811 1847 l 1
 1047 1479 l 1
 861 1479 l 1
 703 1673 l 1
 561 1479 l 1
 380 1479 l 1
EndSplineSet
EndChar

StartChar: Adieresis
Encoding: 196 196 7
Width: 1427
VWidth: 0
Flags: HW
PickledData: "(dp1
S'com.typemytype.robofont.layerData'
p2
(dp3
s."
LayerCount: 2
Fore
SplineSet
556 555 m 1
 868 555 l 1
 718 1093 l 1
 556 555 l 1
90 0 m 1
 545 1336 l 1
 883 1336 l 1
 1337 0 l 1
 1051 0 l 1
 924 365 l 1
 498 365 l 1
 378 0 l 1
 90 0 l 1
429 1479 m 1
 429 1724 l 1
 623 1724 l 1
 623 1479 l 1
 429 1479 l 1
805 1479 m 1
 805 1724 l 1
 998 1724 l 1
 998 1479 l 1
 805 1479 l 1
EndSplineSet
EndChar

StartChar: Agrave
Encoding: 192 192 8
Width: 1427
VWidth: 0
Flags: HW
PickledData: "(dp1
S'com.typemytype.robofont.layerData'
p2
(dp3
s."
LayerCount: 2
Fore
SplineSet
556 555 m 1
 868 555 l 1
 718 1093 l 1
 556 555 l 1
90 0 m 1
 545 1336 l 1
 883 1336 l 1
 1337 0 l 1
 1051 0 l 1
 924 365 l 1
 498 365 l 1
 378 0 l 1
 90 0 l 1
631 1479 m 1
 320 1840 l 1
 619 1840 l 1
 796 1479 l 1
 631 1479 l 1
EndSplineSet
EndChar

StartChar: Alpha
Encoding: 913 913 9
Width: 1194
VWidth: 0
Flags: HW
PickledData: "(dp1
S'com.typemytype.robofont.layerData'
p2
(dp3
s."
LayerCount: 2
Fore
SplineSet
476 577 m 1
 754 577 l 1
 734 642 648 950 616 1054 c 1
 585 957 498 647 476 577 c 1
941 0 m 1
 814 368 l 1
 414 368 l 1
 294 0 l 1
 -7 0 l 1
 449 1342 l 1
 781 1342 l 1
 1230 0 l 1
 941 0 l 1
EndSplineSet
EndChar

StartChar: Alphatonos
Encoding: 902 902 10
Width: 407
VWidth: 0
Flags: HW
PickledData: "(dp1
S'com.typemytype.robofont.layerData'
p2
(dp3
s."
LayerCount: 2
Fore
SplineSet
215 483 m 0
 131 483 87 547 87 610 c 0
 87 673 131 737 215 737 c 0
 300 737 342 673 342 610 c 0
 342 547 300 483 215 483 c 0
EndSplineSet
EndChar

StartChar: Amacron
Encoding: 256 256 11
Width: 1427
VWidth: 0
Flags: HW
PickledData: "(dp1
S'com.typemytype.robofont.layerData'
p2
(dp3
s."
LayerCount: 2
Fore
SplineSet
556 555 m 1
 868 555 l 1
 718 1093 l 1
 556 555 l 1
90 0 m 1
 545 1336 l 1
 883 1336 l 1
 1337 0 l 1
 1051 0 l 1
 924 365 l 1
 498 365 l 1
 378 0 l 1
 90 0 l 1
389 1479 m 1
 389 1638 l 1
 1038 1638 l 1
 1038 1479 l 1
 389 1479 l 1
EndSplineSet
EndChar

StartChar: Aogonek
Encoding: 260 260 12
Width: 1427
VWidth: 0
Flags: HW
PickledData: "(dp1
S'com.typemytype.robofont.layerData'
p2
(dp3
s."
LayerCount: 2
Fore
SplineSet
556 555 m 1
 868 555 l 1
 718 1093 l 1
 556 555 l 1
90 0 m 1
 545 1336 l 1
 883 1336 l 1
 1337 0 l 1
 1051 0 l 1
 924 365 l 1
 498 365 l 1
 378 0 l 1
 90 0 l 1
734 -393 m 0
 630 -393 540 -339 540 -225 c 0
 540 -102 643 -27 714 14 c 1
 820 -2 l 1
 746 -59 714 -123 714 -178 c 0
 714 -212 740 -247 778 -247 c 0
 830 -247 890 -221 902 -216 c 0
 903 -216 910 -357 910 -357 c 1
 855 -378 793 -393 734 -393 c 0
EndSplineSet
EndChar

StartChar: Aring
Encoding: 197 197 13
Width: 1427
VWidth: 0
Flags: HW
PickledData: "(dp1
S'com.typemytype.robofont.layerData'
p2
(dp3
s."
LayerCount: 2
Fore
SplineSet
556 555 m 1
 868 555 l 1
 718 1093 l 1
 556 555 l 1
90 0 m 1
 545 1336 l 1
 883 1336 l 1
 1337 0 l 1
 1051 0 l 1
 924 365 l 1
 498 365 l 1
 378 0 l 1
 90 0 l 1
714 1445 m 0
 769 1445 800 1489 800 1540 c 0
 800 1589 769 1635 714 1635 c 0
 661 1635 628 1588 628 1540 c 0
 628 1488 657 1445 714 1445 c 0
714 1344 m 0
 585 1344 508 1437 508 1540 c 0
 508 1643 584 1735 714 1735 c 0
 845 1735 920 1642 920 1540 c 0
 920 1437 843 1344 714 1344 c 0
EndSplineSet
EndChar

StartChar: Aringacute
Encoding: 506 506 14
Width: 1427
VWidth: 0
Flags: HW
PickledData: "(dp1
S'com.typemytype.robofont.layerData'
p2
(dp3
s."
LayerCount: 2
Fore
SplineSet
556 555 m 1
 868 555 l 1
 718 1093 l 1
 556 555 l 1
90 0 m 1
 545 1336 l 1
 883 1336 l 1
 1337 0 l 1
 1051 0 l 1
 924 365 l 1
 498 365 l 1
 378 0 l 1
 90 0 l 1
714 1445 m 0
 769 1445 800 1489 800 1540 c 0
 800 1589 769 1635 714 1635 c 0
 661 1635 628 1588 628 1540 c 0
 628 1488 657 1445 714 1445 c 0
714 1344 m 0
 585 1344 508 1437 508 1540 c 0
 508 1643 584 1735 714 1735 c 0
 845 1735 920 1642 920 1540 c 0
 920 1437 843 1344 714 1344 c 0
635 1857 m 1
 795 2218 l 1
 1087 2218 l 1
 792 1857 l 1
 635 1857 l 1
EndSplineSet
EndChar

StartChar: Atilde
Encoding: 195 195 15
Width: 1427
VWidth: 0
Flags: HW
PickledData: "(dp1
S'com.typemytype.robofont.layerData'
p2
(dp3
s."
LayerCount: 2
Fore
SplineSet
556 555 m 1
 868 555 l 1
 718 1093 l 1
 556 555 l 1
90 0 m 1
 545 1336 l 1
 883 1336 l 1
 1337 0 l 1
 1051 0 l 1
 924 365 l 1
 498 365 l 1
 378 0 l 1
 90 0 l 1
398 1489 m 1
 398 1583 412 1721 560 1721 c 0
 681 1721 816 1636 847 1636 c 1
 867 1637 879 1721 879 1721 c 1
 1029 1721 l 1
 1029 1721 1019 1479 871 1479 c 0
 770 1479 637 1569 580 1569 c 0
 559 1569 545 1479 545 1479 c 1
 398 1489 l 1
EndSplineSet
EndChar

StartChar: B
Encoding: 66 66 16
Width: 1376
VWidth: 0
Flags: HW
PickledData: "(dp1
S'com.typemytype.robofont.layerData'
p2
(dp3
s."
LayerCount: 2
Fore
SplineSet
180 0 m 1
 180 1336 l 1
 660 1336 l 2
 990 1336 1179 1254 1179 1000 c 0
 1179 919 1136 783 992 715 c 1
 1135 665 1227 551 1227 393 c 0
 1227 133 1030 0 729 0 c 2
 180 0 l 1
468 216 m 1
 677 216 l 2
 854 216 939 270 939 412 c 0
 939 554 856 604 671 604 c 2
 468 604 l 1
 468 216 l 1
468 793 m 1
 674 793 l 2
 825 793 899 834 899 956 c 0
 899 1093 812 1126 626 1126 c 2
 468 1126 l 1
 468 793 l 1
EndSplineSet
EndChar

StartChar: Beta
Encoding: 914 914 17
Width: 1169
VWidth: 0
Flags: HW
PickledData: "(dp1
S'com.typemytype.robofont.layerData'
p2
(dp3
s."
LayerCount: 2
Fore
SplineSet
118 0 m 1
 118 1342 l 1
 585 1342 l 2
 915 1342 1104 1254 1104 1000 c 0
 1104 919 1061 783 917 715 c 1
 1060 665 1152 551 1152 393 c 0
 1152 133 955 0 654 0 c 2
 118 0 l 1
406 604 m 1
 406 220 l 1
 602 220 l 2
 779 220 864 270 864 412 c 0
 864 554 781 604 596 604 c 2
 406 604 l 1
406 1122 m 1
 406 793 l 1
 599 793 l 2
 750 793 824 834 824 956 c 0
 824 1093 737 1122 551 1122 c 2
 406 1122 l 1
EndSplineSet
EndChar

StartChar: C
Encoding: 67 67 18
Width: 1327
VWidth: 0
Flags: HW
PickledData: "(dp1
S'com.typemytype.robofont.layerData'
p2
(dp3
s."
LayerCount: 2
Fore
SplineSet
791 -18 m 0
 409 -18 138 236 138 677 c 0
 138 1114 407 1357 782 1357 c 0
 921 1357 1059 1318 1181 1247 c 1
 1098 1033 l 1
 1002 1088 886 1132 768 1123 c 0
 601 1110 426 963 426 671 c 0
 426 380 575 220 810 213 c 0
 909 210 1000 236 1100 293 c 1
 1155 75 l 1
 1031 13 936 -18 791 -18 c 0
EndSplineSet
EndChar

StartChar: Cacute
Encoding: 262 262 19
Width: 1253
VWidth: 0
Flags: HW
PickledData: "(dp1
S'com.typemytype.robofont.layerData'
p2
(dp3
s."
LayerCount: 2
Fore
SplineSet
788 -18 m 0
 406 -18 132 236 132 677 c 0
 132 1114 404 1357 779 1357 c 0
 918 1357 1053 1318 1175 1247 c 1
 1092 1033 l 1
 996 1088 883 1132 765 1123 c 0
 598 1110 420 963 420 671 c 0
 420 380 568 220 803 213 c 0
 902 210 994 236 1094 293 c 1
 1149 75 l 1
 1025 13 933 -18 788 -18 c 0
575 1479 m 1
 735 1840 l 1
 1027 1840 l 1
 732 1479 l 1
 575 1479 l 1
EndSplineSet
EndChar

StartChar: Ccaron
Encoding: 268 268 20
Width: 1253
VWidth: 0
Flags: HW
PickledData: "(dp1
S'com.typemytype.robofont.layerData'
p2
(dp3
s."
LayerCount: 2
Fore
SplineSet
788 -18 m 0
 406 -18 132 236 132 677 c 0
 132 1114 404 1357 779 1357 c 0
 918 1357 1053 1318 1175 1247 c 1
 1092 1033 l 1
 996 1088 883 1132 765 1123 c 0
 598 1110 420 963 420 671 c 0
 420 380 568 220 803 213 c 0
 902 210 994 236 1094 293 c 1
 1149 75 l 1
 1025 13 933 -18 788 -18 c 0
558 1479 m 1
 310 1816 l 1
 512 1816 l 1
 642 1645 l 1
 792 1816 l 1
 996 1816 l 1
 748 1479 l 1
 558 1479 l 1
EndSplineSet
EndChar

StartChar: Ccedilla
Encoding: 199 199 21
Width: 1253
VWidth: 0
Flags: HW
PickledData: "(dp1
S'com.typemytype.robofont.layerData'
p2
(dp3
s."
LayerCount: 2
Fore
SplineSet
464 -363 m 1
 580 -6 l 1
 649 -6 l 1
 674 -10 700 -14 726 -16 c 1
 673 -363 l 1
 464 -363 l 1
649 -6 m 1
 341 49 132 291 132 677 c 0
 132 1114 404 1357 779 1357 c 0
 918 1357 1053 1318 1175 1247 c 1
 1092 1033 l 1
 996 1088 883 1132 765 1123 c 0
 598 1110 420 963 420 671 c 0
 420 380 568 220 803 213 c 0
 902 210 994 236 1094 293 c 1
 1149 75 l 1
 1025 13 933 -18 788 -18 c 0
 767 -18 746 -18 726 -16 c 1
 727 -6 l 1
 649 -6 l 1
EndSplineSet
EndChar

StartChar: Ccircumflex
Encoding: 264 264 22
Width: 1253
VWidth: 0
Flags: HW
PickledData: "(dp1
S'com.typemytype.robofont.layerData'
p2
(dp3
s."
LayerCount: 2
Fore
SplineSet
788 -18 m 0
 406 -18 132 236 132 677 c 0
 132 1114 404 1357 779 1357 c 0
 918 1357 1053 1318 1175 1247 c 1
 1092 1033 l 1
 996 1088 883 1132 765 1123 c 0
 598 1110 420 963 420 671 c 0
 420 380 568 220 803 213 c 0
 902 210 994 236 1094 293 c 1
 1149 75 l 1
 1025 13 933 -18 788 -18 c 0
320 1479 m 1
 555 1847 l 1
 751 1847 l 1
 987 1479 l 1
 801 1479 l 1
 643 1673 l 1
 501 1479 l 1
 320 1479 l 1
EndSplineSet
EndChar

StartChar: Cdotaccent
Encoding: 266 266 23
Width: 1253
VWidth: 0
Flags: HW
PickledData: "(dp1
S'com.typemytype.robofont.layerData'
p2
(dp3
s."
LayerCount: 2
Fore
SplineSet
788 -18 m 0
 406 -18 132 236 132 677 c 0
 132 1114 404 1357 779 1357 c 0
 918 1357 1053 1318 1175 1247 c 1
 1092 1033 l 1
 996 1088 883 1132 765 1123 c 0
 598 1110 420 963 420 671 c 0
 420 380 568 220 803 213 c 0
 902 210 994 236 1094 293 c 1
 1149 75 l 1
 1025 13 933 -18 788 -18 c 0
554 1479 m 1
 554 1691 l 1
 752 1691 l 1
 752 1479 l 1
 554 1479 l 1
EndSplineSet
EndChar

StartChar: Chi
Encoding: 935 935 24
Width: 1174
VWidth: 0
Flags: HW
PickledData: "(dp1
S'com.typemytype.robofont.layerData'
p2
(dp3
s."
LayerCount: 2
Fore
SplineSet
800 682 m 1
 1258 0 l 1
 956 0 l 1
 636 508 l 1
 308 0 l 1
 22 0 l 1
 481 687 l 1
 54 1342 l 1
 349 1342 l 1
 648 856 l 1
 955 1342 l 1
 1236 1342 l 1
 800 682 l 1
EndSplineSet
EndChar

StartChar: D
Encoding: 68 68 25
Width: 1509
VWidth: 0
Flags: HW
PickledData: "(dp1
S'com.typemytype.robofont.layerData'
p2
(dp3
s."
LayerCount: 2
Fore
SplineSet
468 1126 m 1
 468 216 l 1
 634 216 l 2
 924 216 1084 377 1084 671 c 0
 1084 992 916 1126 608 1126 c 2
 468 1126 l 1
180 0 m 1
 180 1336 l 1
 597 1336 l 2
 1046 1336 1371 1130 1371 676 c 0
 1371 238 1063 0 620 0 c 2
 180 0 l 1
EndSplineSet
EndChar

StartChar: Dcaron
Encoding: 270 270 26
Width: 1486
VWidth: 0
Flags: HW
PickledData: "(dp1
S'com.typemytype.robofont.layerData'
p2
(dp3
s."
LayerCount: 2
Fore
SplineSet
490 1126 m 1
 490 216 l 1
 637 216 l 2
 927 216 1067 377 1067 671 c 0
 1067 992 919 1126 611 1126 c 2
 490 1126 l 1
202 0 m 1
 202 1336 l 1
 600 1336 l 2
 1049 1336 1354 1130 1354 676 c 0
 1354 238 1066 0 623 0 c 2
 202 0 l 1
683 1479 m 1
 435 1816 l 1
 636 1816 l 1
 766 1645 l 1
 916 1816 l 1
 1121 1816 l 1
 873 1479 l 1
 683 1479 l 1
EndSplineSet
EndChar

StartChar: Delta
Encoding: 916 916 27
Width: 1110
VWidth: 0
Flags: HW
PickledData: "(dp1
S'com.typemytype.robofont.layerData'
p2
(dp3
s."
LayerCount: 2
Fore
SplineSet
-16 0 m 1
 455 1375 l 1
 675 1375 l 1
 1146 0 l 1
 -16 0 l 1
872 187 m 1
 566 1131 l 1
 265 187 l 1
 872 187 l 1
EndSplineSet
EndChar

StartChar: E
Encoding: 69 69 28
Width: 1241
VWidth: 0
Flags: HW
PickledData: "(dp1
S'com.typemytype.robofont.layerData'
p2
(dp3
s."
LayerCount: 2
Fore
SplineSet
468 1126 m 1
 468 805 l 1
 1029 805 l 1
 1029 595 l 1
 468 595 l 1
 468 216 l 1
 1077 216 l 1
 1060 0 l 1
 180 0 l 1
 180 1336 l 1
 1067 1336 l 1
 1056 1126 l 1
 468 1126 l 1
EndSplineSet
EndChar

StartChar: Eacute
Encoding: 201 201 29
Width: 1164
VWidth: 0
Flags: HW
PickledData: "(dp1
S'com.typemytype.robofont.layerData'
p2
(dp3
s."
LayerCount: 2
Fore
SplineSet
490 1126 m 1
 490 805 l 1
 994 805 l 1
 994 595 l 1
 490 595 l 1
 490 216 l 1
 1042 216 l 1
 1025 0 l 1
 202 0 l 1
 202 1336 l 1
 1032 1336 l 1
 1021 1126 l 1
 490 1126 l 1
544 1479 m 1
 704 1840 l 1
 996 1840 l 1
 700 1479 l 1
 544 1479 l 1
EndSplineSet
EndChar

StartChar: Ebreve
Encoding: 276 276 30
Width: 1164
VWidth: 0
Flags: HW
PickledData: "(dp1
S'com.typemytype.robofont.layerData'
p2
(dp3
s."
LayerCount: 2
Fore
SplineSet
490 1126 m 1
 490 805 l 1
 994 805 l 1
 994 595 l 1
 490 595 l 1
 490 216 l 1
 1042 216 l 1
 1025 0 l 1
 202 0 l 1
 202 1336 l 1
 1032 1336 l 1
 1021 1126 l 1
 490 1126 l 1
891 1722 m 1
 891 1556 774 1479 621 1479 c 0
 469 1479 353 1557 353 1722 c 1
 521 1722 l 1
 521 1661 547 1637 621 1637 c 0
 695 1637 722 1661 722 1722 c 1
 891 1722 l 1
EndSplineSet
EndChar

StartChar: Ecaron
Encoding: 282 282 31
Width: 1164
VWidth: 0
Flags: HW
PickledData: "(dp1
S'com.typemytype.robofont.layerData'
p2
(dp3
s."
LayerCount: 2
Fore
SplineSet
490 1126 m 1
 490 805 l 1
 994 805 l 1
 994 595 l 1
 490 595 l 1
 490 216 l 1
 1042 216 l 1
 1025 0 l 1
 202 0 l 1
 202 1336 l 1
 1032 1336 l 1
 1021 1126 l 1
 490 1126 l 1
527 1479 m 1
 279 1816 l 1
 480 1816 l 1
 610 1645 l 1
 760 1816 l 1
 965 1816 l 1
 717 1479 l 1
 527 1479 l 1
EndSplineSet
EndChar

StartChar: Ecircumflex
Encoding: 202 202 32
Width: 1164
VWidth: 0
Flags: HW
PickledData: "(dp1
S'com.typemytype.robofont.layerData'
p2
(dp3
s."
LayerCount: 2
Fore
SplineSet
490 1126 m 1
 490 805 l 1
 994 805 l 1
 994 595 l 1
 490 595 l 1
 490 216 l 1
 1042 216 l 1
 1025 0 l 1
 202 0 l 1
 202 1336 l 1
 1032 1336 l 1
 1021 1126 l 1
 490 1126 l 1
288 1479 m 1
 524 1847 l 1
 720 1847 l 1
 956 1479 l 1
 770 1479 l 1
 612 1673 l 1
 470 1479 l 1
 288 1479 l 1
EndSplineSet
EndChar

StartChar: Edieresis
Encoding: 203 203 33
Width: 1164
VWidth: 0
Flags: HW
PickledData: "(dp1
S'com.typemytype.robofont.layerData'
p2
(dp3
s."
LayerCount: 2
Fore
SplineSet
490 1126 m 1
 490 805 l 1
 994 805 l 1
 994 595 l 1
 490 595 l 1
 490 216 l 1
 1042 216 l 1
 1025 0 l 1
 202 0 l 1
 202 1336 l 1
 1032 1336 l 1
 1021 1126 l 1
 490 1126 l 1
338 1479 m 1
 338 1724 l 1
 532 1724 l 1
 532 1479 l 1
 338 1479 l 1
714 1479 m 1
 714 1724 l 1
 906 1724 l 1
 906 1479 l 1
 714 1479 l 1
EndSplineSet
EndChar

StartChar: Edotaccent
Encoding: 278 278 34
Width: 1164
VWidth: 0
Flags: HW
PickledData: "(dp1
S'com.typemytype.robofont.layerData'
p2
(dp3
s."
LayerCount: 2
Fore
SplineSet
490 1126 m 1
 490 805 l 1
 994 805 l 1
 994 595 l 1
 490 595 l 1
 490 216 l 1
 1042 216 l 1
 1025 0 l 1
 202 0 l 1
 202 1336 l 1
 1032 1336 l 1
 1021 1126 l 1
 490 1126 l 1
523 1479 m 1
 523 1691 l 1
 721 1691 l 1
 721 1479 l 1
 523 1479 l 1
EndSplineSet
EndChar

StartChar: Egrave
Encoding: 200 200 35
Width: 1164
VWidth: 0
Flags: HW
PickledData: "(dp1
S'com.typemytype.robofont.layerData'
p2
(dp3
s."
LayerCount: 2
Fore
SplineSet
490 1126 m 1
 490 805 l 1
 994 805 l 1
 994 595 l 1
 490 595 l 1
 490 216 l 1
 1042 216 l 1
 1025 0 l 1
 202 0 l 1
 202 1336 l 1
 1032 1336 l 1
 1021 1126 l 1
 490 1126 l 1
540 1479 m 1
 228 1840 l 1
 528 1840 l 1
 704 1479 l 1
 540 1479 l 1
EndSplineSet
EndChar

StartChar: Emacron
Encoding: 274 274 36
Width: 1164
VWidth: 0
Flags: HW
PickledData: "(dp1
S'com.typemytype.robofont.layerData'
p2
(dp3
s."
LayerCount: 2
Fore
SplineSet
490 1126 m 1
 490 805 l 1
 994 805 l 1
 994 595 l 1
 490 595 l 1
 490 216 l 1
 1042 216 l 1
 1025 0 l 1
 202 0 l 1
 202 1336 l 1
 1032 1336 l 1
 1021 1126 l 1
 490 1126 l 1
298 1479 m 1
 298 1638 l 1
 946 1638 l 1
 946 1479 l 1
 298 1479 l 1
EndSplineSet
EndChar

StartChar: Eng
Encoding: 330 330 37
Width: 1246
VWidth: 0
Flags: HW
PickledData: "(dp1
S'com.typemytype.robofont.layerData'
p2
(dp3
s."
LayerCount: 2
Fore
SplineSet
738 -305 m 0
 732 -305 692 -305 657 -301 c 1
 637 -75 l 1
 677 -78 737 -79 742 -79 c 0
 901 -79 928 -27 928 139 c 2
 928 864 l 2
 928 1077 869 1155 722 1155 c 0
 616 1155 463 1099 384 963 c 1
 384 0 l 1
 96 0 l 1
 96 1342 l 1
 352 1342 l 1
 374 1195 l 1
 467 1297 640 1363 782 1363 c 0
 1071 1363 1216 1177 1216 874 c 2
 1216 143 l 2
 1216 -148 1082 -305 738 -305 c 0
EndSplineSet
EndChar

StartChar: Eogonek
Encoding: 280 280 38
Width: 1164
VWidth: 0
Flags: HW
PickledData: "(dp1
S'com.typemytype.robofont.layerData'
p2
(dp3
s."
LayerCount: 2
Fore
SplineSet
490 1126 m 1
 490 805 l 1
 994 805 l 1
 994 595 l 1
 490 595 l 1
 490 216 l 1
 1042 216 l 1
 1025 0 l 1
 713 0 l 1
 729 -2 l 1
 655 -59 623 -123 623 -178 c 0
 623 -212 649 -247 687 -247 c 0
 739 -247 798 -221 810 -216 c 0
 811 -216 818 -357 818 -357 c 1
 763 -378 702 -393 643 -393 c 0
 539 -393 448 -339 448 -225 c 0
 448 -114 532 -43 600 0 c 1
 202 0 l 1
 202 1336 l 1
 1032 1336 l 1
 1021 1126 l 1
 490 1126 l 1
EndSplineSet
EndChar

StartChar: Epsilon
Encoding: 917 917 39
Width: 1009
VWidth: 0
Flags: HW
PickledData: "(dp1
S'com.typemytype.robofont.layerData'
p2
(dp3
s."
LayerCount: 2
Fore
SplineSet
416 1122 m 1
 416 805 l 1
 920 805 l 1
 920 595 l 1
 416 595 l 1
 416 220 l 1
 968 220 l 1
 961 0 l 1
 128 0 l 1
 128 1342 l 1
 958 1342 l 1
 947 1122 l 1
 416 1122 l 1
EndSplineSet
EndChar

StartChar: Epsilontonos
Encoding: 904 904 40
Width: 407
VWidth: 0
Flags: HW
PickledData: "(dp1
S'com.typemytype.robofont.layerData'
p2
(dp3
s."
LayerCount: 2
Fore
SplineSet
215 483 m 0
 131 483 87 547 87 610 c 0
 87 673 131 737 215 737 c 0
 300 737 342 673 342 610 c 0
 342 547 300 483 215 483 c 0
EndSplineSet
EndChar

StartChar: Eta
Encoding: 919 919 41
Width: 1337
VWidth: 0
Flags: HW
PickledData: "(dp1
S'com.typemytype.robofont.layerData'
p2
(dp3
s."
LayerCount: 2
Fore
SplineSet
962 804 m 1
 962 1342 l 1
 1250 1342 l 1
 1250 0 l 1
 962 0 l 1
 962 578 l 1
 418 578 l 1
 418 0 l 1
 130 0 l 1
 130 1342 l 1
 418 1342 l 1
 418 804 l 1
 962 804 l 1
EndSplineSet
EndChar

StartChar: Etatonos
Encoding: 905 905 42
Width: 407
VWidth: 0
Flags: HW
PickledData: "(dp1
S'com.typemytype.robofont.layerData'
p2
(dp3
s."
LayerCount: 2
Fore
SplineSet
215 483 m 0
 131 483 87 547 87 610 c 0
 87 673 131 737 215 737 c 0
 300 737 342 673 342 610 c 0
 342 547 300 483 215 483 c 0
EndSplineSet
EndChar

StartChar: Eth
Encoding: 208 208 43
Width: 1340
VWidth: 0
Flags: HW
PickledData: "(dp1
S'com.typemytype.robofont.layerData'
p2
(dp3
s."
LayerCount: 2
Fore
SplineSet
367 590 m 1
 367 211 l 1
 565 211 l 2
 862 211 1027 372 1027 669 c 0
 1027 1025 842 1135 484 1135 c 2
 367 1135 l 1
 367 772 l 1
 542 772 l 1
 542 590 l 1
 367 590 l 1
110 768 m 1
 110 1340 l 1
 467 1340 l 2
 948 1340 1288 1163 1288 668 c 0
 1288 230 984 1 549 1 c 2
 110 1 l 1
 110 586 l 1
 -1 586 l 1
 -1 768 l 1
 110 768 l 1
EndSplineSet
EndChar

StartChar: Euro
Encoding: 8364 8364 44
Width: 1061
VWidth: 0
Flags: HW
PickledData: "(dp1
S'com.typemytype.robofont.layerData'
p2
(dp3
s."
LayerCount: 2
Fore
SplineSet
993 89 m 1
 908 29 812 -8 686 -8 c 0
 376 -8 232 216 190 467 c 1
 64 467 l 1
 90 642 l 1
 172 642 l 1
 172 683 l 1
 159 686 91 695 89 713 c 1
 83 854 l 1
 170 878 l 1
 214 1060 358 1218 589 1220 c 1
 692 1288 810 1309 943 1247 c 1
 978 1239 961 1123 967 1094 c 0
 967 1092 968 1090 968 1089 c 2
 970 1084 l 1
 953 1076 l 1
 950 1080 l 1
 947 1086 l 1
 902 1145 839 1141 773 1141 c 2
 772 1141 l 1
 657 1155 538 1090 499 966 c 1
 552 957 791 930 796 874 c 1
 901 728 l 1
 502 704 l 1
 492 701 417 699 392 696 c 1
 392 642 l 1
 886 642 l 1
 862 467 l 1
 412 467 l 1
 449 288 561 182 710 182 c 0
 799 182 893 218 981 289 c 1
 998 301 l 1
 998 91 l 1
 993 89 l 1
EndSplineSet
EndChar

StartChar: F
Encoding: 70 70 45
Width: 1175
VWidth: 0
Flags: HW
PickledData: "(dp1
S'com.typemytype.robofont.layerData'
p2
(dp3
s."
LayerCount: 2
Fore
SplineSet
468 1116 m 1
 468 765 l 1
 1023 765 l 1
 1023 556 l 1
 468 556 l 1
 468 0 l 1
 180 0 l 1
 180 1336 l 1
 1091 1336 l 1
 1079 1116 l 1
 468 1116 l 1
EndSplineSet
EndChar

StartChar: G
Encoding: 71 71 46
Width: 1437
VWidth: 0
Flags: HW
PickledData: "(dp1
S'com.typemytype.robofont.layerData'
p2
(dp3
s."
LayerCount: 2
Fore
SplineSet
784 -18 m 0
 384 -18 138 248 138 672 c 0
 138 1105 388 1357 810 1357 c 0
 974 1357 1118 1317 1246 1253 c 1
 1157 1042 l 1
 1060 1090 939 1124 815 1129 c 0
 553 1139 426 964 426 670 c 0
 426 383 540 213 795 213 c 0
 874 213 954 222 1017 245 c 1
 1017 519 l 1
 731 519 l 1
 731 727 l 1
 1264 727 l 1
 1264 82 l 1
 1116 17 967 -18 784 -18 c 0
EndSplineSet
EndChar

StartChar: Gbreve
Encoding: 286 286 47
Width: 1391
VWidth: 0
Flags: HW
PickledData: "(dp1
S'com.typemytype.robofont.layerData'
p2
(dp3
s."
LayerCount: 2
Fore
SplineSet
778 -18 m 0
 378 -18 132 248 132 672 c 0
 132 1105 382 1357 804 1357 c 0
 968 1357 1095 1317 1223 1253 c 1
 1134 1042 l 1
 1037 1090 933 1124 809 1129 c 0
 547 1139 420 964 420 670 c 0
 420 383 534 213 789 213 c 0
 868 213 931 222 994 245 c 1
 994 519 l 1
 725 519 l 1
 725 727 l 1
 1241 727 l 1
 1241 82 l 1
 1093 17 961 -18 778 -18 c 0
956 1722 m 1
 956 1556 839 1479 686 1479 c 0
 534 1479 418 1557 418 1722 c 1
 586 1722 l 1
 586 1661 612 1637 686 1637 c 0
 760 1637 786 1661 786 1722 c 1
 956 1722 l 1
EndSplineSet
EndChar

StartChar: Gcaron
Encoding: 486 486 48
Width: 1391
VWidth: 0
Flags: HW
PickledData: "(dp1
S'com.typemytype.robofont.layerData'
p2
(dp3
s."
LayerCount: 2
Fore
SplineSet
778 -18 m 0
 378 -18 132 248 132 672 c 0
 132 1105 382 1357 804 1357 c 0
 968 1357 1095 1317 1223 1253 c 1
 1134 1042 l 1
 1037 1090 933 1124 809 1129 c 0
 547 1139 420 964 420 670 c 0
 420 383 534 213 789 213 c 0
 868 213 931 222 994 245 c 1
 994 519 l 1
 725 519 l 1
 725 727 l 1
 1241 727 l 1
 1241 82 l 1
 1093 17 961 -18 778 -18 c 0
592 1479 m 1
 344 1816 l 1
 544 1816 l 1
 674 1645 l 1
 824 1816 l 1
 1030 1816 l 1
 782 1479 l 1
 592 1479 l 1
EndSplineSet
EndChar

StartChar: Gcircumflex
Encoding: 284 284 49
Width: 1391
VWidth: 0
Flags: HW
PickledData: "(dp1
S'com.typemytype.robofont.layerData'
p2
(dp3
s."
LayerCount: 2
Fore
SplineSet
778 -18 m 0
 378 -18 132 248 132 672 c 0
 132 1105 382 1357 804 1357 c 0
 968 1357 1095 1317 1223 1253 c 1
 1134 1042 l 1
 1037 1090 933 1124 809 1129 c 0
 547 1139 420 964 420 670 c 0
 420 383 534 213 789 213 c 0
 868 213 931 222 994 245 c 1
 994 519 l 1
 725 519 l 1
 725 727 l 1
 1241 727 l 1
 1241 82 l 1
 1093 17 961 -18 778 -18 c 0
353 1479 m 1
 588 1847 l 1
 784 1847 l 1
 1020 1479 l 1
 834 1479 l 1
 676 1673 l 1
 534 1479 l 1
 353 1479 l 1
EndSplineSet
EndChar

StartChar: Gcommaaccent
Encoding: 290 290 50
Width: 1391
VWidth: 0
Flags: HW
PickledData: "(dp1
S'com.typemytype.robofont.layerData'
p2
(dp3
s."
LayerCount: 2
Fore
SplineSet
778 -18 m 0
 378 -18 132 248 132 672 c 0
 132 1105 382 1357 804 1357 c 0
 968 1357 1095 1317 1223 1253 c 1
 1134 1042 l 1
 1037 1090 933 1124 809 1129 c 0
 547 1139 420 964 420 670 c 0
 420 383 534 213 789 213 c 0
 868 213 931 222 994 245 c 1
 994 519 l 1
 725 519 l 1
 725 727 l 1
 1241 727 l 1
 1241 82 l 1
 1093 17 961 -18 778 -18 c 0
525 -619 m 1
 626 -140 l 1
 848 -140 l 1
 693 -619 l 1
 525 -619 l 1
EndSplineSet
EndChar

StartChar: Gdotaccent
Encoding: 288 288 51
Width: 1391
VWidth: 0
Flags: HW
PickledData: "(dp1
S'com.typemytype.robofont.layerData'
p2
(dp3
s."
LayerCount: 2
Fore
SplineSet
778 -18 m 0
 378 -18 132 248 132 672 c 0
 132 1105 382 1357 804 1357 c 0
 968 1357 1095 1317 1223 1253 c 1
 1134 1042 l 1
 1037 1090 933 1124 809 1129 c 0
 547 1139 420 964 420 670 c 0
 420 383 534 213 789 213 c 0
 868 213 931 222 994 245 c 1
 994 519 l 1
 725 519 l 1
 725 727 l 1
 1241 727 l 1
 1241 82 l 1
 1093 17 961 -18 778 -18 c 0
588 1479 m 1
 588 1691 l 1
 786 1691 l 1
 786 1479 l 1
 588 1479 l 1
EndSplineSet
EndChar

StartChar: H
Encoding: 72 72 52
Width: 1503
VWidth: 0
Flags: HW
PickledData: "(dp1
S'com.typemytype.robofont.layerData'
p2
(dp3
s."
LayerCount: 2
Fore
SplineSet
468 793 m 1
 1035 793 l 1
 1035 1336 l 1
 1323 1336 l 1
 1323 0 l 1
 1035 0 l 1
 1035 578 l 1
 468 578 l 1
 468 0 l 1
 180 0 l 1
 180 1336 l 1
 468 1336 l 1
 468 793 l 1
EndSplineSet
EndChar

StartChar: Hbar
Encoding: 294 294 53
Width: 1311
VWidth: 0
Flags: HW
PickledData: "(dp1
S'com.typemytype.robofont.layerData'
p2
(dp3
s."
LayerCount: 2
Fore
SplineSet
110 1205 m 1
 110 1335 l 1
 367 1335 l 1
 367 1205 l 1
 962 1205 l 1
 962 1335 l 1
 1220 1335 l 1
 1220 1205 l 1
 1295 1205 l 1
 1295 1068 l 1
 1220 1068 l 1
 1220 0 l 1
 962 0 l 1
 962 595 l 1
 367 595 l 1
 367 0 l 1
 110 0 l 1
 110 1068 l 1
 35 1068 l 1
 35 1205 l 1
 110 1205 l 1
367 788 m 1
 962 788 l 1
 962 1068 l 1
 367 1068 l 1
 367 788 l 1
EndSplineSet
EndChar

StartChar: Hcircumflex
Encoding: 292 292 54
Width: 1547
VWidth: 0
Flags: HW
PickledData: "(dp1
S'com.typemytype.robofont.layerData'
p2
(dp3
s."
LayerCount: 2
Fore
SplineSet
490 793 m 1
 1057 793 l 1
 1057 1336 l 1
 1345 1336 l 1
 1345 0 l 1
 1057 0 l 1
 1057 578 l 1
 490 578 l 1
 490 0 l 1
 202 0 l 1
 202 1336 l 1
 490 1336 l 1
 490 793 l 1
440 1479 m 1
 675 1847 l 1
 871 1847 l 1
 1107 1479 l 1
 921 1479 l 1
 763 1673 l 1
 621 1479 l 1
 440 1479 l 1
EndSplineSet
EndChar

StartChar: I
Encoding: 73 73 55
Width: 647
VWidth: 0
Flags: HW
PickledData: "(dp1
S'com.typemytype.robofont.layerData'
p2
(dp3
s."
LayerCount: 2
Fore
SplineSet
180 0 m 1
 180 1336 l 1
 468 1336 l 1
 468 0 l 1
 180 0 l 1
EndSplineSet
EndChar

StartChar: IJ
Encoding: 306 306 56
Width: 1083
VWidth: 0
Flags: HW
PickledData: "(dp1
S'com.typemytype.robofont.layerData'
p2
(dp3
s."
LayerCount: 2
Fore
SplineSet
130 0 m 1
 130 1342 l 1
 418 1342 l 1
 418 0 l 1
 130 0 l 1
501 -285 m 1
 489 -75 l 1
 528 -82 569 -84 592 -84 c 0
 724 -84 751 -21 751 126 c 2
 751 1342 l 1
 1039 1342 l 1
 1039 144 l 2
 1039 -153 910 -293 594 -293 c 0
 564 -293 532 -292 501 -285 c 1
EndSplineSet
EndChar

StartChar: Iacute
Encoding: 205 205 57
Width: 692
VWidth: 0
Flags: HW
PickledData: "(dp1
S'com.typemytype.robofont.layerData'
p2
(dp3
s."
LayerCount: 2
Fore
SplineSet
202 0 m 1
 202 1336 l 1
 490 1336 l 1
 490 0 l 1
 202 0 l 1
268 1479 m 1
 428 1840 l 1
 720 1840 l 1
 424 1479 l 1
 268 1479 l 1
EndSplineSet
EndChar

StartChar: Ibreve
Encoding: 300 300 58
Width: 692
VWidth: 0
Flags: HW
PickledData: "(dp1
S'com.typemytype.robofont.layerData'
p2
(dp3
s."
LayerCount: 2
Fore
SplineSet
202 0 m 1
 202 1336 l 1
 490 1336 l 1
 490 0 l 1
 202 0 l 1
615 1722 m 1
 615 1556 498 1479 345 1479 c 0
 193 1479 77 1557 77 1722 c 1
 245 1722 l 1
 245 1661 271 1637 345 1637 c 0
 419 1637 446 1661 446 1722 c 1
 615 1722 l 1
EndSplineSet
EndChar

StartChar: Icircumflex
Encoding: 206 206 59
Width: 692
VWidth: 0
Flags: HW
PickledData: "(dp1
S'com.typemytype.robofont.layerData'
p2
(dp3
s."
LayerCount: 2
Fore
SplineSet
202 0 m 1
 202 1336 l 1
 490 1336 l 1
 490 0 l 1
 202 0 l 1
12 1479 m 1
 248 1847 l 1
 444 1847 l 1
 680 1479 l 1
 494 1479 l 1
 336 1673 l 1
 194 1479 l 1
 12 1479 l 1
EndSplineSet
EndChar

StartChar: Idieresis
Encoding: 207 207 60
Width: 692
VWidth: 0
Flags: HW
PickledData: "(dp1
S'com.typemytype.robofont.layerData'
p2
(dp3
s."
LayerCount: 2
Fore
SplineSet
202 0 m 1
 202 1336 l 1
 490 1336 l 1
 490 0 l 1
 202 0 l 1
62 1479 m 1
 62 1724 l 1
 256 1724 l 1
 256 1479 l 1
 62 1479 l 1
438 1479 m 1
 438 1724 l 1
 630 1724 l 1
 630 1479 l 1
 438 1479 l 1
EndSplineSet
EndChar

StartChar: Idotaccent
Encoding: 304 304 61
Width: 692
VWidth: 0
Flags: HW
PickledData: "(dp1
S'com.typemytype.robofont.layerData'
p2
(dp3
s."
LayerCount: 2
Fore
SplineSet
202 0 m 1
 202 1336 l 1
 490 1336 l 1
 490 0 l 1
 202 0 l 1
247 1479 m 1
 247 1691 l 1
 445 1691 l 1
 445 1479 l 1
 247 1479 l 1
EndSplineSet
EndChar

StartChar: Igrave
Encoding: 204 204 62
Width: 692
VWidth: 0
Flags: HW
PickledData: "(dp1
S'com.typemytype.robofont.layerData'
p2
(dp3
s."
LayerCount: 2
Fore
SplineSet
202 0 m 1
 202 1336 l 1
 490 1336 l 1
 490 0 l 1
 202 0 l 1
264 1479 m 1
 -48 1840 l 1
 252 1840 l 1
 428 1479 l 1
 264 1479 l 1
EndSplineSet
EndChar

StartChar: Imacron
Encoding: 298 298 63
Width: 692
VWidth: 0
Flags: HW
PickledData: "(dp1
S'com.typemytype.robofont.layerData'
p2
(dp3
s."
LayerCount: 2
Fore
SplineSet
202 0 m 1
 202 1336 l 1
 490 1336 l 1
 490 0 l 1
 202 0 l 1
22 1479 m 1
 22 1638 l 1
 670 1638 l 1
 670 1479 l 1
 22 1479 l 1
EndSplineSet
EndChar

StartChar: Iogonek
Encoding: 302 302 64
Width: 692
VWidth: 0
Flags: HW
PickledData: "(dp1
S'com.typemytype.robofont.layerData'
p2
(dp3
s."
LayerCount: 2
Fore
SplineSet
314 -393 m 0
 210 -393 118 -339 118 -225 c 0
 118 -114 202 -43 270 0 c 1
 202 0 l 1
 202 1336 l 1
 490 1336 l 1
 490 0 l 1
 383 0 l 1
 400 -2 l 1
 326 -59 294 -123 294 -178 c 0
 294 -212 320 -247 358 -247 c 0
 410 -247 468 -221 480 -216 c 0
 481 -216 488 -357 488 -357 c 1
 433 -378 373 -393 314 -393 c 0
EndSplineSet
EndChar

StartChar: Iota
Encoding: 921 921 65
Width: 527
VWidth: 0
Flags: HW
PickledData: "(dp1
S'com.typemytype.robofont.layerData'
p2
(dp3
s."
LayerCount: 2
Fore
SplineSet
130 0 m 1
 130 1342 l 1
 418 1342 l 1
 418 0 l 1
 130 0 l 1
EndSplineSet
EndChar

StartChar: Iotadieresis
Encoding: 938 938 66
Width: 527
VWidth: 0
Flags: HW
PickledData: "(dp1
S'com.typemytype.robofont.layerData'
p2
(dp3
s."
LayerCount: 2
Fore
SplineSet
154 1699 m 1
 154 1454 l 1
 -40 1454 l 1
 -40 1699 l 1
 154 1699 l 1
529 1699 m 1
 529 1454 l 1
 336 1454 l 1
 336 1699 l 1
 529 1699 l 1
130 0 m 1
 130 1342 l 1
 418 1342 l 1
 418 0 l 1
 130 0 l 1
EndSplineSet
EndChar

StartChar: Iotatonos
Encoding: 906 906 67
Width: 407
VWidth: 0
Flags: HW
PickledData: "(dp1
S'com.typemytype.robofont.layerData'
p2
(dp3
s."
LayerCount: 2
Fore
SplineSet
215 483 m 0
 131 483 87 547 87 610 c 0
 87 673 131 737 215 737 c 0
 300 737 342 673 342 610 c 0
 342 547 300 483 215 483 c 0
EndSplineSet
EndChar

StartChar: Itilde
Encoding: 296 296 68
Width: 692
VWidth: 0
Flags: HW
PickledData: "(dp1
S'com.typemytype.robofont.layerData'
p2
(dp3
s."
LayerCount: 2
Fore
SplineSet
202 0 m 1
 202 1336 l 1
 490 1336 l 1
 490 0 l 1
 202 0 l 1
30 1489 m 1
 30 1583 44 1721 192 1721 c 0
 313 1721 449 1636 480 1636 c 1
 500 1637 512 1721 512 1721 c 1
 662 1721 l 1
 662 1721 652 1479 504 1479 c 0
 403 1479 269 1569 212 1569 c 0
 191 1569 178 1479 178 1479 c 1
 30 1489 l 1
EndSplineSet
EndChar

StartChar: J
Encoding: 74 74 69
Width: 1083
VWidth: 0
Flags: HW
PickledData: "(dp1
S'com.typemytype.robofont.layerData'
p2
(dp3
S'b'
(dp4
S'name'
p5
S'J'
sS'lib'
p6
(dp7
sS'unicodes'
p8
(tsS'width'
p9
I1083
sS'contours'
p10
((dp11
S'points'
p12
((dp13
S'segmentType'
p14
S'curve'
p15
sS'x'
F365
sS'smooth'
p16
I00
sS'y'
F-285
s(dp17
g14
S'line'
p18
sS'x'
F353
sg16
I00
sS'y'
F-75
s(dp19
S'y'
F-69
sS'x'
F532
sg16
I00
s(dp20
S'y'
F-21
sS'x'
F615
sg16
I00
s(dp21
g14
S'curve'
p22
sS'x'
F615
sg16
I01
sS'y'
F126
s(dp23
g14
S'line'
p24
sS'x'
F615
sg16
I00
sS'y'
F1336
s(dp25
g14
S'line'
p26
sS'x'
F903
sg16
I00
sS'y'
F1336
s(dp27
g14
S'line'
p28
sS'x'
F903
sg16
I01
sS'y'
F144
s(dp29
S'y'
F-153
sS'x'
F903
sg16
I00
s(dp30
S'y'
F-282
sS'x'
F726
sg16
I00
stp31
stp32
sS'components'
p33
(tsS'anchors'
p34
(tsss."
LayerCount: 2
Fore
SplineSet
123 275 m 1
 240 229 331 210 401 210 c 0
 565 210 621 313 621 416 c 2
 621 1336 l 1
 909 1336 l 1
 909 354 l 2
 909 142 716 -19 440 -19 c 0
 331 -19 204 7 72 65 c 1
 123 275 l 1
EndSplineSet
EndChar

StartChar: Jcircumflex
Encoding: 308 308 70
Width: 780
VWidth: 0
Flags: HW
PickledData: "(dp1
S'com.typemytype.robofont.layerData'
p2
(dp3
s."
LayerCount: 2
Fore
SplineSet
40 -285 m 1
 28 -75 l 1
 207 -69 290 -21 290 126 c 2
 290 1336 l 1
 578 1336 l 1
 578 144 l 2
 578 -153 401 -282 40 -285 c 1
-30 1479 m 1
 204 1847 l 1
 400 1847 l 1
 636 1479 l 1
 450 1479 l 1
 292 1673 l 1
 150 1479 l 1
 -30 1479 l 1
EndSplineSet
EndChar

StartChar: K
Encoding: 75 75 71
Width: 1400
VWidth: 0
Flags: HW
PickledData: "(dp1
S'com.typemytype.robofont.layerData'
p2
(dp3
s."
LayerCount: 2
Fore
SplineSet
985 1336 m 1
 1317 1336 l 1
 812 734 l 1
 1349 0 l 1
 1018 0 l 1
 586 611 l 1
 468 507 l 1
 468 0 l 1
 180 0 l 1
 180 1336 l 1
 468 1336 l 1
 468 745 l 1
 985 1336 l 1
EndSplineSet
EndChar

StartChar: Kappa
Encoding: 922 922 72
Width: 1179
VWidth: 0
Flags: HW
PickledData: "(dp1
S'com.typemytype.robofont.layerData'
p2
(dp3
s."
LayerCount: 2
Fore
SplineSet
416 516 m 1
 416 0 l 1
 128 0 l 1
 128 1342 l 1
 416 1342 l 1
 416 765 l 1
 532 918 771 1195 882 1334 c 1
 884 1342 l 1
 1196 1342 l 1
 700 737 l 1
 1226 0 l 1
 919 0 l 1
 503 589 l 1
 474 565 446 541 416 516 c 1
EndSplineSet
EndChar

StartChar: Kcommaaccent
Encoding: 310 310 73
Width: 1361
VWidth: 0
Flags: HW
PickledData: "(dp1
S'com.typemytype.robofont.layerData'
p2
(dp3
s."
LayerCount: 2
Fore
SplineSet
958 1336 m 1
 1290 1336 l 1
 798 732 l 1
 1300 0 l 1
 974 0 l 1
 561 611 l 1
 490 537 l 1
 490 0 l 1
 202 0 l 1
 202 1336 l 1
 490 1336 l 1
 490 775 l 1
 958 1336 l 1
590 -601 m 1
 690 -122 l 1
 912 -122 l 1
 758 -601 l 1
 590 -601 l 1
EndSplineSet
EndChar

StartChar: L
Encoding: 76 76 74
Width: 1153
VWidth: 0
Flags: HW
PickledData: "(dp1
S'com.typemytype.robofont.layerData'
p2
(dp3
s."
LayerCount: 2
Fore
SplineSet
1073 216 m 1
 1059 0 l 1
 180 0 l 1
 180 1336 l 1
 468 1336 l 1
 468 216 l 1
 1073 216 l 1
EndSplineSet
EndChar

StartChar: Lacute
Encoding: 313 313 75
Width: 1103
VWidth: 0
Flags: HW
PickledData: "(dp1
S'com.typemytype.robofont.layerData'
p2
(dp3
s."
LayerCount: 2
Fore
SplineSet
1023 216 m 1
 1009 0 l 1
 202 0 l 1
 202 1336 l 1
 490 1336 l 1
 490 216 l 1
 1023 216 l 1
534 1479 m 1
 694 1840 l 1
 986 1840 l 1
 691 1479 l 1
 534 1479 l 1
EndSplineSet
EndChar

StartChar: Lambda
Encoding: 923 923 76
Width: 1110
VWidth: 0
Flags: HW
PickledData: "(dp1
S'com.typemytype.robofont.layerData'
p2
(dp3
s."
LayerCount: 2
Fore
SplineSet
964 0 m 1
 565 1155 l 1
 170 0 l 1
 -17 0 l 1
 476 1370 l 1
 652 1370 l 1
 1146 0 l 1
 964 0 l 1
EndSplineSet
EndChar

StartChar: Lcaron
Encoding: 317 317 77
Width: 1103
VWidth: 0
Flags: HW
PickledData: "(dp1
S'com.typemytype.robofont.layerData'
p2
(dp3
s."
LayerCount: 2
Fore
SplineSet
1023 216 m 1
 1009 0 l 1
 202 0 l 1
 202 1336 l 1
 490 1336 l 1
 490 216 l 1
 1023 216 l 1
1212 877 m 1
 1206 1357 l 1
 1408 1357 l 1
 1357 877 l 1
 1212 877 l 1
EndSplineSet
EndChar

StartChar: Lcommaaccent
Encoding: 315 315 78
Width: 1103
VWidth: 0
Flags: HW
PickledData: "(dp1
S'com.typemytype.robofont.layerData'
p2
(dp3
s."
LayerCount: 2
Fore
SplineSet
1023 216 m 1
 1009 0 l 1
 202 0 l 1
 202 1336 l 1
 490 1336 l 1
 490 216 l 1
 1023 216 l 1
451 -601 m 1
 552 -122 l 1
 774 -122 l 1
 619 -601 l 1
 451 -601 l 1
EndSplineSet
EndChar

StartChar: Ldot
Encoding: 319 319 79
Width: 937
VWidth: 0
Flags: HW
PickledData: "(dp1
S'com.typemytype.robofont.layerData'
p2
(dp3
s."
LayerCount: 2
Fore
SplineSet
128 0 m 1
 128 1342 l 1
 416 1342 l 1
 416 213 l 1
 953 213 l 1
 946 0 l 1
 128 0 l 1
EndSplineSet
EndChar

StartChar: Lslash
Encoding: 321 321 80
Width: 885
VWidth: 0
Flags: HW
PickledData: "(dp1
S'com.typemytype.robofont.layerData'
p2
(dp3
s."
LayerCount: 2
Fore
SplineSet
649 1029 m 1
 649 845 l 1
 366 678 l 1
 366 203 l 1
 913 203 l 1
 898 0 l 1
 111 0 l 1
 111 524 l 1
 -24 443 l 1
 -24 634 l 1
 111 714 l 1
 111 1340 l 1
 366 1340 l 1
 366 869 l 1
 646 1032 l 1
 649 1029 l 1
EndSplineSet
EndChar

StartChar: M
Encoding: 77 77 81
Width: 1838
VWidth: 0
Flags: HW
PickledData: "(dp1
S'com.typemytype.robofont.layerData'
p2
(dp3
s."
LayerCount: 2
Fore
SplineSet
1359 1336 m 1
 1638 1336 l 1
 1658 0 l 1
 1385 0 l 1
 1375 487 l 1
 1390 876 l 1
 1018 196 l 1
 811 196 l 1
 448 882 l 1
 464 484 l 1
 454 0 l 1
 180 0 l 1
 200 1336 l 1
 484 1336 l 1
 919 508 l 1
 1359 1336 l 1
EndSplineSet
EndChar

StartChar: Mu
Encoding: 924 924 82
Width: 1621
VWidth: 0
Flags: HW
PickledData: "(dp1
S'com.typemytype.robofont.layerData'
p2
(dp3
s."
LayerCount: 2
Fore
SplineSet
1223 1342 m 1
 1522 1342 l 1
 1522 0 l 1
 1278 0 l 1
 1278 658 l 1
 1284 968 l 1
 1271 929 l 1
 940 89 l 1
 720 89 l 1
 396 934 l 1
 382 974 l 1
 388 655 l 1
 388 0 l 1
 152 0 l 1
 152 1342 l 1
 453 1342 l 1
 837 407 l 1
 1223 1342 l 1
EndSplineSet
EndChar

StartChar: N
Encoding: 78 78 83
Width: 1548
VWidth: 0
Flags: HW
PickledData: "(dp1
S'com.typemytype.robofont.layerData'
p2
(dp3
s."
LayerCount: 2
Fore
SplineSet
1103 350 m 1
 1083 795 l 1
 1083 1336 l 1
 1368 1336 l 1
 1368 0 l 1
 1050 0 l 1
 441 961 l 1
 465 409 l 1
 465 0 l 1
 180 0 l 1
 180 1336 l 1
 487 1336 l 1
 1103 350 l 1
EndSplineSet
EndChar

StartChar: Nacute
Encoding: 323 323 84
Width: 1541
VWidth: 0
Flags: HW
PickledData: "(dp1
S'com.typemytype.robofont.layerData'
p2
(dp3
s."
LayerCount: 2
Fore
SplineSet
1087 350 m 1
 1087 350 1068 787 1068 795 c 2
 1068 1336 l 1
 1339 1336 l 1
 1339 0 l 1
 1036 0 l 1
 451 961 l 1
 451 961 479 430 479 409 c 2
 479 0 l 1
 202 0 l 1
 202 1336 l 1
 494 1336 l 1
 1087 350 l 1
692 1479 m 1
 852 1840 l 1
 1144 1840 l 1
 849 1479 l 1
 692 1479 l 1
EndSplineSet
EndChar

StartChar: Ncaron
Encoding: 327 327 85
Width: 1541
VWidth: 0
Flags: HW
PickledData: "(dp1
S'com.typemytype.robofont.layerData'
p2
(dp3
s."
LayerCount: 2
Fore
SplineSet
1087 350 m 1
 1087 350 1068 787 1068 795 c 2
 1068 1336 l 1
 1339 1336 l 1
 1339 0 l 1
 1036 0 l 1
 451 961 l 1
 451 961 479 430 479 409 c 2
 479 0 l 1
 202 0 l 1
 202 1336 l 1
 494 1336 l 1
 1087 350 l 1
676 1479 m 1
 428 1816 l 1
 628 1816 l 1
 758 1645 l 1
 908 1816 l 1
 1114 1816 l 1
 866 1479 l 1
 676 1479 l 1
EndSplineSet
EndChar

StartChar: Ncommaaccent
Encoding: 325 325 86
Width: 1541
VWidth: 0
Flags: HW
PickledData: "(dp1
S'com.typemytype.robofont.layerData'
p2
(dp3
s."
LayerCount: 2
Fore
SplineSet
1087 350 m 1
 1087 350 1068 787 1068 795 c 2
 1068 1336 l 1
 1339 1336 l 1
 1339 0 l 1
 1036 0 l 1
 451 961 l 1
 451 961 479 430 479 409 c 2
 479 0 l 1
 202 0 l 1
 202 1336 l 1
 494 1336 l 1
 1087 350 l 1
609 -601 m 1
 710 -122 l 1
 932 -122 l 1
 777 -601 l 1
 609 -601 l 1
EndSplineSet
EndChar

StartChar: Ntilde
Encoding: 209 209 87
Width: 1541
VWidth: 0
Flags: HW
PickledData: "(dp1
S'com.typemytype.robofont.layerData'
p2
(dp3
s."
LayerCount: 2
Fore
SplineSet
1087 350 m 1
 1087 350 1068 787 1068 795 c 2
 1068 1336 l 1
 1339 1336 l 1
 1339 0 l 1
 1036 0 l 1
 451 961 l 1
 451 961 479 430 479 409 c 2
 479 0 l 1
 202 0 l 1
 202 1336 l 1
 494 1336 l 1
 1087 350 l 1
455 1489 m 1
 455 1583 469 1721 617 1721 c 0
 738 1721 873 1636 904 1636 c 1
 924 1637 936 1721 936 1721 c 1
 1086 1721 l 1
 1086 1721 1076 1479 928 1479 c 0
 827 1479 694 1569 637 1569 c 0
 616 1569 602 1479 602 1479 c 1
 455 1489 l 1
EndSplineSet
EndChar

StartChar: Nu
Encoding: 925 925 88
Width: 1367
VWidth: 0
Flags: HW
PickledData: "(dp1
S'com.typemytype.robofont.layerData'
p2
(dp3
s."
LayerCount: 2
Fore
SplineSet
1015 384 m 1
 1014 461 996 793 996 801 c 2
 996 1342 l 1
 1282 1342 l 1
 1282 0 l 1
 975 0 l 1
 387 945 l 1
 387 945 415 430 415 409 c 2
 415 0 l 1
 130 0 l 1
 130 1342 l 1
 426 1342 l 1
 1015 384 l 1
EndSplineSet
EndChar

StartChar: O
Encoding: 79 79 89
Width: 1618
VWidth: 0
Flags: HW
PickledData: "(dp1
S'com.typemytype.robofont.guides'
p2
(tsS'com.typemytype.robofont.layerData'
p3
(dp4
s."
LayerCount: 2
Fore
SplineSet
810 -18 m 0
 417 -18 138 237 138 669 c 0
 138 1105 419 1357 810 1357 c 0
 1201 1357 1480 1105 1480 669 c 0
 1480 237 1203 -18 810 -18 c 0
810 1127 m 0
 583 1127 426 946 426 667 c 0
 426 393 582 210 810 210 c 0
 1038 210 1192 393 1192 667 c 0
 1192 946 1037 1127 810 1127 c 0
EndSplineSet
EndChar

StartChar: OE
Encoding: 338 338 90
Width: 1922
VWidth: 0
Flags: HW
PickledData: "(dp1
S'com.typemytype.robofont.layerData'
p2
(dp3
s."
LayerCount: 2
Fore
SplineSet
727 -17 m 0
 338 -17 65 274 65 676 c 1
 68 1073 349 1363 722 1363 c 0
 844 1363 945 1332 1030 1278 c 1
 1030 1338 l 1
 1879 1338 l 1
 1861 1133 l 1
 1277 1133 l 1
 1277 798 l 1
 1835 798 l 1
 1835 596 l 1
 1277 596 l 1
 1277 208 l 1
 1905 208 l 1
 1887 4 l 1
 1030 4 l 1
 1030 67 l 1
 954 19 842 -17 727 -17 c 0
725 187 m 0
 863 187 969 235 1030 289 c 1
 1030 1048 l 1
 966 1111 863 1160 722 1160 c 0
 461 1160 320 928 318 672 c 1
 318 415 451 188 725 187 c 0
EndSplineSet
EndChar

StartChar: Oacute
Encoding: 211 211 91
Width: 1566
VWidth: 0
Flags: HW
PickledData: "(dp1
S'com.typemytype.robofont.layerData'
p2
(dp3
s."
LayerCount: 2
Fore
SplineSet
784 -18 m 0
 391 -18 132 237 132 669 c 0
 132 1105 393 1357 784 1357 c 0
 1175 1357 1434 1105 1434 669 c 0
 1434 237 1177 -18 784 -18 c 0
784 1127 m 0
 557 1127 420 946 420 667 c 0
 420 393 556 210 784 210 c 0
 1012 210 1146 393 1146 667 c 0
 1146 946 1011 1127 784 1127 c 0
704 1479 m 1
 864 1840 l 1
 1156 1840 l 1
 862 1479 l 1
 704 1479 l 1
EndSplineSet
EndChar

StartChar: Obreve
Encoding: 334 334 92
Width: 1566
VWidth: 0
Flags: HW
PickledData: "(dp1
S'com.typemytype.robofont.layerData'
p2
(dp3
s."
LayerCount: 2
Fore
SplineSet
784 -18 m 0
 391 -18 132 237 132 669 c 0
 132 1105 393 1357 784 1357 c 0
 1175 1357 1434 1105 1434 669 c 0
 1434 237 1177 -18 784 -18 c 0
784 1127 m 0
 557 1127 420 946 420 667 c 0
 420 393 556 210 784 210 c 0
 1012 210 1146 393 1146 667 c 0
 1146 946 1011 1127 784 1127 c 0
1052 1722 m 1
 1052 1556 935 1479 782 1479 c 0
 630 1479 514 1557 514 1722 c 1
 682 1722 l 1
 682 1661 708 1637 782 1637 c 0
 856 1637 883 1661 883 1722 c 1
 1052 1722 l 1
EndSplineSet
EndChar

StartChar: Ocircumflex
Encoding: 212 212 93
Width: 1566
VWidth: 0
Flags: HW
PickledData: "(dp1
S'com.typemytype.robofont.layerData'
p2
(dp3
s."
LayerCount: 2
Fore
SplineSet
784 -18 m 0
 391 -18 132 237 132 669 c 0
 132 1105 393 1357 784 1357 c 0
 1175 1357 1434 1105 1434 669 c 0
 1434 237 1177 -18 784 -18 c 0
784 1127 m 0
 557 1127 420 946 420 667 c 0
 420 393 556 210 784 210 c 0
 1012 210 1146 393 1146 667 c 0
 1146 946 1011 1127 784 1127 c 0
450 1479 m 1
 684 1847 l 1
 880 1847 l 1
 1116 1479 l 1
 930 1479 l 1
 772 1673 l 1
 630 1479 l 1
 450 1479 l 1
EndSplineSet
EndChar

StartChar: Odieresis
Encoding: 214 214 94
Width: 1566
VWidth: 0
Flags: HW
PickledData: "(dp1
S'com.typemytype.robofont.layerData'
p2
(dp3
s."
LayerCount: 2
Fore
SplineSet
784 -18 m 0
 391 -18 132 237 132 669 c 0
 132 1105 393 1357 784 1357 c 0
 1175 1357 1434 1105 1434 669 c 0
 1434 237 1177 -18 784 -18 c 0
784 1127 m 0
 557 1127 420 946 420 667 c 0
 420 393 556 210 784 210 c 0
 1012 210 1146 393 1146 667 c 0
 1146 946 1011 1127 784 1127 c 0
498 1479 m 1
 498 1724 l 1
 692 1724 l 1
 692 1479 l 1
 498 1479 l 1
874 1479 m 1
 874 1724 l 1
 1068 1724 l 1
 1068 1479 l 1
 874 1479 l 1
EndSplineSet
EndChar

StartChar: Ograve
Encoding: 210 210 95
Width: 1566
VWidth: 0
Flags: HW
PickledData: "(dp1
S'com.typemytype.robofont.layerData'
p2
(dp3
s."
LayerCount: 2
Fore
SplineSet
784 -18 m 0
 391 -18 132 237 132 669 c 0
 132 1105 393 1357 784 1357 c 0
 1175 1357 1434 1105 1434 669 c 0
 1434 237 1177 -18 784 -18 c 0
784 1127 m 0
 557 1127 420 946 420 667 c 0
 420 393 556 210 784 210 c 0
 1012 210 1146 393 1146 667 c 0
 1146 946 1011 1127 784 1127 c 0
700 1479 m 1
 390 1840 l 1
 688 1840 l 1
 866 1479 l 1
 700 1479 l 1
EndSplineSet
EndChar

StartChar: Ohorn
Encoding: 416 416 96
Width: 1566
VWidth: 0
Flags: HW
PickledData: "(dp1
S'com.typemytype.robofont.layerData'
p2
(dp3
s."
LayerCount: 2
Fore
SplineSet
784 -18 m 0
 391 -18 132 237 132 669 c 0
 132 1105 393 1357 784 1357 c 0
 1175 1357 1434 1105 1434 669 c 0
 1434 237 1177 -18 784 -18 c 0
784 1127 m 0
 557 1127 420 946 420 667 c 0
 420 393 556 210 784 210 c 0
 1012 210 1146 393 1146 667 c 0
 1146 946 1011 1127 784 1127 c 0
1495 1139 m 1
 1504 1139 l 2
 1518 1139 1534 1138 1548 1138 c 0
 1592 1138 1606 1169 1606 1216 c 0
 1606 1257 1593 1308 1580 1344 c 2
 1575 1357 l 1
 1700 1357 l 1
 1701 1351 l 1
 1719 1307 1730 1259 1730 1215 c 0
 1730 1119 1683 1031 1586 1031 c 0
 1559 1031 1531 1034 1503 1037 c 2
 1495 1038 l 1
 1495 1139 l 1
EndSplineSet
EndChar

StartChar: Ohungarumlaut
Encoding: 336 336 97
Width: 1566
VWidth: 0
Flags: HW
PickledData: "(dp1
S'com.typemytype.robofont.layerData'
p2
(dp3
s."
LayerCount: 2
Fore
SplineSet
784 -18 m 0
 391 -18 132 237 132 669 c 0
 132 1105 393 1357 784 1357 c 0
 1175 1357 1434 1105 1434 669 c 0
 1434 237 1177 -18 784 -18 c 0
784 1127 m 0
 557 1127 420 946 420 667 c 0
 420 393 556 210 784 210 c 0
 1012 210 1146 393 1146 667 c 0
 1146 946 1011 1127 784 1127 c 0
576 1479 m 1
 808 1819 l 1
 1034 1819 l 1
 718 1479 l 1
 576 1479 l 1
850 1479 m 1
 1086 1819 l 1
 1316 1819 l 1
 990 1479 l 1
 850 1479 l 1
EndSplineSet
EndChar

StartChar: Omacron
Encoding: 332 332 98
Width: 1566
VWidth: 0
Flags: HW
PickledData: "(dp1
S'com.typemytype.robofont.layerData'
p2
(dp3
s."
LayerCount: 2
Fore
SplineSet
784 -18 m 0
 391 -18 132 237 132 669 c 0
 132 1105 393 1357 784 1357 c 0
 1175 1357 1434 1105 1434 669 c 0
 1434 237 1177 -18 784 -18 c 0
784 1127 m 0
 557 1127 420 946 420 667 c 0
 420 393 556 210 784 210 c 0
 1012 210 1146 393 1146 667 c 0
 1146 946 1011 1127 784 1127 c 0
458 1479 m 1
 458 1638 l 1
 1108 1638 l 1
 1108 1479 l 1
 458 1479 l 1
EndSplineSet
EndChar

StartChar: Omegatonos
Encoding: 911 911 99
Width: 407
VWidth: 0
Flags: HW
PickledData: "(dp1
S'com.typemytype.robofont.layerData'
p2
(dp3
s."
LayerCount: 2
Fore
SplineSet
215 483 m 0
 131 483 87 547 87 610 c 0
 87 673 131 737 215 737 c 0
 300 737 342 673 342 610 c 0
 342 547 300 483 215 483 c 0
EndSplineSet
EndChar

StartChar: Omicron
Encoding: 927 927 100
Width: 1431
VWidth: 0
Flags: HW
PickledData: "(dp1
S'com.typemytype.robofont.layerData'
p2
(dp3
s."
LayerCount: 2
Fore
SplineSet
737 -16 m 0
 344 -16 90 239 90 671 c 0
 90 1107 347 1359 738 1359 c 0
 1129 1359 1388 1105 1388 671 c 0
 1388 241 1129 -16 737 -16 c 0
738 212 m 0
 986 212 1100 395 1100 669 c 0
 1100 948 985 1129 739 1129 c 0
 492 1129 378 948 378 669 c 0
 378 395 490 212 738 212 c 0
EndSplineSet
EndChar

StartChar: Omicrontonos
Encoding: 908 908 101
Width: 407
VWidth: 0
Flags: HW
PickledData: "(dp1
S'com.typemytype.robofont.layerData'
p2
(dp3
s."
LayerCount: 2
Fore
SplineSet
215 483 m 0
 131 483 87 547 87 610 c 0
 87 673 131 737 215 737 c 0
 300 737 342 673 342 610 c 0
 342 547 300 483 215 483 c 0
EndSplineSet
EndChar

StartChar: Oslash
Encoding: 216 216 102
Width: 1435
VWidth: 0
Flags: HW
PickledData: "(dp1
S'com.typemytype.robofont.layerData'
p2
(dp3
s."
LayerCount: 2
Fore
SplineSet
429 -179 m 1
 324 -134 l 1
 405 54 l 1
 196 161 65 381 65 678 c 0
 65 1115 342 1377 729 1377 c 0
 810 1377 883 1366 954 1344 c 1
 1034 1530 l 1
 1145 1486 l 1
 1065 1296 l 1
 1264 1186 1388 972 1388 676 c 0
 1388 247 1116 -18 725 -18 c 0
 650 -18 579 -9 512 10 c 1
 429 -179 l 1
496 278 m 1
 866 1137 l 1
 828 1150 779 1158 728 1158 c 0
 461 1158 329 959 329 682 c 0
 329 502 384 359 496 278 c 1
728 194 m 0
 995 194 1128 386 1128 666 c 0
 1128 840 1077 982 971 1065 c 1
 601 212 l 1
 636 201 681 194 728 194 c 0
EndSplineSet
EndChar

StartChar: Oslashacute
Encoding: 510 510 103
Width: 1435
VWidth: 0
Flags: HW
PickledData: "(dp1
S'com.typemytype.robofont.layerData'
p2
(dp3
s."
LayerCount: 2
Fore
SplineSet
429 -179 m 1
 324 -134 l 1
 405 54 l 1
 196 161 65 381 65 678 c 0
 65 1115 342 1377 729 1377 c 0
 810 1377 883 1366 954 1344 c 1
 1034 1530 l 1
 1145 1486 l 1
 1065 1296 l 1
 1264 1186 1388 972 1388 676 c 0
 1388 247 1116 -18 725 -18 c 0
 650 -18 579 -9 512 10 c 1
 429 -179 l 1
496 278 m 1
 866 1137 l 1
 828 1150 779 1158 728 1158 c 0
 461 1158 329 959 329 682 c 0
 329 502 384 359 496 278 c 1
728 194 m 0
 995 194 1128 386 1128 666 c 0
 1128 840 1077 982 971 1065 c 1
 601 212 l 1
 636 201 681 194 728 194 c 0
648 1652 m 1
 808 2013 l 1
 1100 2013 l 1
 805 1652 l 1
 648 1652 l 1
EndSplineSet
EndChar

StartChar: Otilde
Encoding: 213 213 104
Width: 1566
VWidth: 0
Flags: HW
PickledData: "(dp1
S'com.typemytype.robofont.layerData'
p2
(dp3
s."
LayerCount: 2
Fore
SplineSet
784 -18 m 0
 391 -18 132 237 132 669 c 0
 132 1105 393 1357 784 1357 c 0
 1175 1357 1434 1105 1434 669 c 0
 1434 237 1177 -18 784 -18 c 0
784 1127 m 0
 557 1127 420 946 420 667 c 0
 420 393 556 210 784 210 c 0
 1012 210 1146 393 1146 667 c 0
 1146 946 1011 1127 784 1127 c 0
468 1489 m 1
 468 1583 482 1721 630 1721 c 0
 751 1721 885 1636 916 1636 c 1
 936 1637 948 1721 948 1721 c 1
 1098 1721 l 1
 1098 1721 1088 1479 940 1479 c 0
 839 1479 707 1569 650 1569 c 0
 629 1569 614 1479 614 1479 c 1
 468 1489 l 1
EndSplineSet
EndChar

StartChar: P
Encoding: 80 80 105
Width: 1318
VWidth: 0
Flags: HW
PickledData: "(dp1
S'com.typemytype.robofont.layerData'
p2
(dp3
s."
LayerCount: 2
Fore
SplineSet
180 0 m 1
 180 1336 l 1
 704 1336 l 2
 1003 1336 1225 1202 1225 916 c 0
 1225 674 1093 475 704 475 c 0
 652 475 535 476 468 482 c 1
 468 0 l 1
 180 0 l 1
678 670 m 0
 923 670 937 795 937 908 c 0
 937 1050 866 1126 705 1126 c 2
 468 1126 l 1
 468 671 l 1
 496 670 632 670 678 670 c 0
EndSplineSet
EndChar

StartChar: Phi
Encoding: 934 934 106
Width: 1462
VWidth: 0
Flags: HW
PickledData: "(dp1
S'com.typemytype.robofont.layerData'
p2
(dp3
s."
LayerCount: 2
Fore
SplineSet
824 0 m 1
 649 0 l 1
 649 154 l 1
 282 186 84 411 84 706 c 0
 84 1004 290 1214 649 1244 c 1
 649 1370 l 1
 824 1370 l 1
 824 1244 l 1
 1182 1215 1394 1007 1394 706 c 0
 1394 412 1197 185 824 154 c 1
 824 0 l 1
649 317 m 1
 649 1081 l 1
 398 1054 271 913 271 706 c 0
 271 508 385 347 649 317 c 1
824 1081 m 1
 824 317 l 1
 1087 346 1206 505 1206 706 c 0
 1206 910 1081 1055 824 1081 c 1
EndSplineSet
EndChar

StartChar: Pi
Encoding: 928 928 107
Width: 1288
VWidth: 0
Flags: HW
PickledData: "(dp1
S'com.typemytype.robofont.layerData'
p2
(dp3
s."
LayerCount: 2
Fore
SplineSet
1001 0 m 1
 1001 1215 l 1
 302 1215 l 1
 302 0 l 1
 125 0 l 1
 125 1370 l 1
 1178 1370 l 1
 1178 0 l 1
 1001 0 l 1
EndSplineSet
EndChar

StartChar: Psi
Encoding: 936 936 108
Width: 407
VWidth: 0
Flags: HW
PickledData: "(dp1
S'com.typemytype.robofont.layerData'
p2
(dp3
s."
LayerCount: 2
Fore
SplineSet
215 483 m 0
 131 483 87 547 87 610 c 0
 87 673 131 737 215 737 c 0
 300 737 342 673 342 610 c 0
 342 547 300 483 215 483 c 0
EndSplineSet
EndChar

StartChar: Q
Encoding: 81 81 109
Width: 1618
VWidth: 0
Flags: HW
PickledData: "(dp1
S'com.typemytype.robofont.layerData'
p2
(dp3
s."
LayerCount: 2
Fore
SplineSet
1329 -313 m 1
 1160 -460 l 1
 1050 -382 915 -158 838 -16 c 1
 1077 43 l 1
 1122 -32 1218 -202 1329 -313 c 1
EndSplineSet
Refer: 89 79 N 1 0 0 1 0 0 2
EndChar

StartChar: R
Encoding: 82 82 110
Width: 1366
VWidth: 0
Flags: HW
PickledData: "(dp1
S'com.typemytype.robofont.layerData'
p2
(dp3
s."
LayerCount: 2
Fore
SplineSet
693 742 m 2
 874 742 939 804 939 943 c 0
 939 1064 867 1126 703 1126 c 2
 468 1126 l 1
 468 742 l 1
 693 742 l 2
180 0 m 1
 180 1336 l 1
 690 1336 l 2
 996 1336 1227 1258 1227 947 c 0
 1227 770 1117 646 970 587 c 1
 1007 539 1044 465 1080 391 c 1
 1277 0 l 1
 974 0 l 1
 811 331 l 1
 781 395 726 501 711 530 c 1
 694 531 672 531 639 531 c 2
 468 531 l 1
 468 0 l 1
 180 0 l 1
EndSplineSet
EndChar

StartChar: Racute
Encoding: 340 340 111
Width: 1406
VWidth: 0
Flags: HW
PickledData: "(dp1
S'com.typemytype.robofont.layerData'
p2
(dp3
s."
LayerCount: 2
Fore
SplineSet
724 742 m 2
 905 742 970 804 970 943 c 0
 970 1064 898 1126 734 1126 c 2
 490 1126 l 1
 490 742 l 1
 724 742 l 2
202 0 m 1
 202 1336 l 1
 721 1336 l 2
 1027 1336 1258 1258 1258 947 c 0
 1258 770 1148 646 1001 587 c 1
 1038 539 1075 465 1111 391 c 1
 1308 0 l 1
 1005 0 l 1
 842 331 l 1
 812 395 757 501 742 530 c 1
 725 531 703 531 670 531 c 2
 490 531 l 1
 490 0 l 1
 202 0 l 1
676 1479 m 1
 836 1840 l 1
 1128 1840 l 1
 834 1479 l 1
 676 1479 l 1
EndSplineSet
EndChar

StartChar: Rcaron
Encoding: 344 344 112
Width: 1406
VWidth: 0
Flags: HW
PickledData: "(dp1
S'com.typemytype.robofont.layerData'
p2
(dp3
s."
LayerCount: 2
Fore
SplineSet
724 742 m 2
 905 742 970 804 970 943 c 0
 970 1064 898 1126 734 1126 c 2
 490 1126 l 1
 490 742 l 1
 724 742 l 2
202 0 m 1
 202 1336 l 1
 721 1336 l 2
 1027 1336 1258 1258 1258 947 c 0
 1258 770 1148 646 1001 587 c 1
 1038 539 1075 465 1111 391 c 1
 1308 0 l 1
 1005 0 l 1
 842 331 l 1
 812 395 757 501 742 530 c 1
 725 531 703 531 670 531 c 2
 490 531 l 1
 490 0 l 1
 202 0 l 1
660 1479 m 1
 412 1816 l 1
 613 1816 l 1
 743 1645 l 1
 893 1816 l 1
 1098 1816 l 1
 850 1479 l 1
 660 1479 l 1
EndSplineSet
EndChar

StartChar: Rcommaaccent
Encoding: 342 342 113
Width: 1406
VWidth: 0
Flags: HW
PickledData: "(dp1
S'com.typemytype.robofont.layerData'
p2
(dp3
s."
LayerCount: 2
Fore
SplineSet
724 742 m 2
 905 742 970 804 970 943 c 0
 970 1064 898 1126 734 1126 c 2
 490 1126 l 1
 490 742 l 1
 724 742 l 2
202 0 m 1
 202 1336 l 1
 721 1336 l 2
 1027 1336 1258 1258 1258 947 c 0
 1258 770 1148 646 1001 587 c 1
 1038 539 1075 465 1111 391 c 1
 1308 0 l 1
 1005 0 l 1
 842 331 l 1
 812 395 757 501 742 530 c 1
 725 531 703 531 670 531 c 2
 490 531 l 1
 490 0 l 1
 202 0 l 1
594 -601 m 1
 694 -122 l 1
 916 -122 l 1
 762 -601 l 1
 594 -601 l 1
EndSplineSet
EndChar

StartChar: Rho
Encoding: 929 929 114
Width: 1075
VWidth: 0
Flags: HW
PickledData: "(dp1
S'com.typemytype.robofont.layerData'
p2
(dp3
s."
LayerCount: 2
Fore
SplineSet
128 0 m 1
 128 1342 l 1
 599 1342 l 2
 898 1342 1120 1205 1120 919 c 0
 1120 677 988 482 599 482 c 0
 547 482 483 483 416 489 c 1
 416 0 l 1
 128 0 l 1
573 677 m 0
 818 677 832 798 832 911 c 0
 832 1053 761 1122 600 1122 c 2
 416 1122 l 1
 416 678 l 1
 444 677 527 677 573 677 c 0
EndSplineSet
EndChar

StartChar: S
Encoding: 83 83 115
Width: 1191
VWidth: 0
Flags: HW
PickledData: "(dp1
S'com.typemytype.robofont.layerData'
p2
(dp3
s."
LayerCount: 2
Fore
SplineSet
580 -18 m 0
 404 -18 251 21 135 87 c 1
 218 303 l 1
 295 253 458 210 590 210 c 0
 731 210 800 262 800 385 c 0
 800 464 745 512 648 544 c 2
 424 617 l 2
 262 670 158 785 158 975 c 0
 158 1227 355 1358 623 1358 c 0
 783 1358 933 1320 1054 1251 c 1
 972 1035 l 1
 880 1075 753 1128 634 1128 c 0
 501 1128 427 1087 427 980 c 0
 427 915 464 873 525 853 c 2
 733 783 l 1
 968 705 1073 598 1073 381 c 0
 1073 119 869 -18 580 -18 c 0
EndSplineSet
EndChar

StartChar: Sacute
Encoding: 346 346 116
Width: 1182
VWidth: 0
Flags: HW
PickledData: "(dp1
S'com.typemytype.robofont.layerData'
p2
(dp3
s."
LayerCount: 2
Fore
SplineSet
570 -18 m 0
 394 -18 241 21 125 87 c 1
 208 303 l 1
 285 253 448 210 580 210 c 0
 721 210 790 262 790 385 c 0
 790 464 735 512 638 544 c 2
 414 617 l 2
 252 670 148 785 148 975 c 0
 148 1227 345 1358 613 1358 c 0
 773 1358 923 1320 1044 1251 c 1
 962 1035 l 1
 870 1075 743 1128 624 1128 c 0
 491 1128 417 1087 417 980 c 0
 417 915 454 873 515 853 c 2
 723 783 l 1
 958 705 1063 598 1063 381 c 0
 1063 119 859 -18 570 -18 c 0
516 1480 m 1
 676 1841 l 1
 968 1841 l 1
 672 1480 l 1
 516 1480 l 1
EndSplineSet
EndChar

StartChar: Scaron
Encoding: 352 352 117
Width: 1182
VWidth: 0
Flags: HW
PickledData: "(dp1
S'com.typemytype.robofont.layerData'
p2
(dp3
s."
LayerCount: 2
Fore
SplineSet
570 -18 m 0
 394 -18 241 21 125 87 c 1
 208 303 l 1
 285 253 448 210 580 210 c 0
 721 210 790 262 790 385 c 0
 790 464 735 512 638 544 c 2
 414 617 l 2
 252 670 148 785 148 975 c 0
 148 1227 345 1358 613 1358 c 0
 773 1358 923 1320 1044 1251 c 1
 962 1035 l 1
 870 1075 743 1128 624 1128 c 0
 491 1128 417 1087 417 980 c 0
 417 915 454 873 515 853 c 2
 723 783 l 1
 958 705 1063 598 1063 381 c 0
 1063 119 859 -18 570 -18 c 0
499 1480 m 1
 251 1817 l 1
 452 1817 l 1
 582 1646 l 1
 732 1817 l 1
 937 1817 l 1
 689 1480 l 1
 499 1480 l 1
EndSplineSet
EndChar

StartChar: Scedilla
Encoding: 350 350 118
Width: 1182
VWidth: 0
Flags: HW
PickledData: "(dp1
S'com.typemytype.robofont.layerData'
p2
(dp3
s."
LayerCount: 2
Fore
SplineSet
404 -363 m 1
 517 -17 l 1
 534 -18 552 -18 570 -18 c 0
 603 -18 636 -17 667 -13 c 1
 614 -363 l 1
 404 -363 l 1
517 -17 m 1
 363 -10 229 28 125 87 c 1
 208 303 l 1
 285 253 448 210 580 210 c 0
 721 210 790 262 790 385 c 0
 790 464 735 512 638 544 c 2
 414 617 l 2
 252 670 148 785 148 975 c 0
 148 1227 345 1358 613 1358 c 0
 773 1358 923 1320 1044 1251 c 1
 962 1035 l 1
 870 1075 743 1128 624 1128 c 0
 491 1128 417 1087 417 980 c 0
 417 915 454 873 515 853 c 2
 723 783 l 1
 958 705 1063 598 1063 381 c 0
 1063 149 904 15 667 -13 c 1
 668 -6 l 1
 520 -6 l 1
 517 -17 l 1
EndSplineSet
EndChar

StartChar: Scircumflex
Encoding: 348 348 119
Width: 1182
VWidth: 0
Flags: HW
PickledData: "(dp1
S'com.typemytype.robofont.layerData'
p2
(dp3
s."
LayerCount: 2
Fore
SplineSet
570 -18 m 0
 394 -18 241 21 125 87 c 1
 208 303 l 1
 285 253 448 210 580 210 c 0
 721 210 790 262 790 385 c 0
 790 464 735 512 638 544 c 2
 414 617 l 2
 252 670 148 785 148 975 c 0
 148 1227 345 1358 613 1358 c 0
 773 1358 923 1320 1044 1251 c 1
 962 1035 l 1
 870 1075 743 1128 624 1128 c 0
 491 1128 417 1087 417 980 c 0
 417 915 454 873 515 853 c 2
 723 783 l 1
 958 705 1063 598 1063 381 c 0
 1063 119 859 -18 570 -18 c 0
260 1480 m 1
 496 1848 l 1
 692 1848 l 1
 928 1480 l 1
 742 1480 l 1
 584 1674 l 1
 442 1480 l 1
 260 1480 l 1
EndSplineSet
EndChar

StartChar: Scommaaccent
Encoding: 536 536 120
Width: 1182
VWidth: 0
Flags: HW
PickledData: "(dp1
S'com.typemytype.robofont.layerData'
p2
(dp3
s."
LayerCount: 2
Fore
SplineSet
570 -18 m 0
 394 -18 241 21 125 87 c 1
 208 303 l 1
 285 253 448 210 580 210 c 0
 721 210 790 262 790 385 c 0
 790 464 735 512 638 544 c 2
 414 617 l 2
 252 670 148 785 148 975 c 0
 148 1227 345 1358 613 1358 c 0
 773 1358 923 1320 1044 1251 c 1
 962 1035 l 1
 870 1075 743 1128 624 1128 c 0
 491 1128 417 1087 417 980 c 0
 417 915 454 873 515 853 c 2
 723 783 l 1
 958 705 1063 598 1063 381 c 0
 1063 119 859 -18 570 -18 c 0
432 -619 m 1
 534 -140 l 1
 756 -140 l 1
 600 -619 l 1
 432 -619 l 1
EndSplineSet
EndChar

StartChar: Sigma
Encoding: 931 931 121
Width: 1009
VWidth: 0
Flags: HW
PickledData: "(dp1
S'com.typemytype.robofont.layerData'
p2
(dp3
s."
LayerCount: 2
Fore
SplineSet
416 1122 m 1
 416 805 l 1
 920 805 l 1
 920 595 l 1
 416 595 l 1
 416 220 l 1
 968 220 l 1
 961 0 l 1
 128 0 l 1
 128 1342 l 1
 958 1342 l 1
 947 1122 l 1
 416 1122 l 1
EndSplineSet
EndChar

StartChar: T
Encoding: 84 84 122
Width: 1258
VWidth: 0
Flags: HW
PickledData: "(dp1
S'com.typemytype.robofont.layerData'
p2
(dp3
s."
LayerCount: 2
Fore
SplineSet
1146 1336 m 1
 1146 1126 l 1
 775 1126 l 1
 775 0 l 1
 487 0 l 1
 487 1126 l 1
 112 1126 l 1
 112 1336 l 1
 1146 1336 l 1
EndSplineSet
EndChar

StartChar: Tau
Encoding: 932 932 123
Width: 997
VWidth: 0
Flags: HW
PickledData: "(dp1
S'com.typemytype.robofont.layerData'
p2
(dp3
s."
LayerCount: 2
Fore
SplineSet
1073 1342 m 1
 1073 1122 l 1
 704 1122 l 1
 704 0 l 1
 416 0 l 1
 416 1122 l 1
 49 1122 l 1
 49 1342 l 1
 1073 1342 l 1
EndSplineSet
EndChar

StartChar: Tcaron
Encoding: 356 356 124
Width: 1164
VWidth: 0
Flags: HW
PickledData: "(dp1
S'com.typemytype.robofont.layerData'
p2
(dp3
s."
LayerCount: 2
Fore
SplineSet
1099 1336 m 1
 1099 1126 l 1
 728 1126 l 1
 728 0 l 1
 440 0 l 1
 440 1126 l 1
 65 1126 l 1
 65 1336 l 1
 1099 1336 l 1
487 1479 m 1
 239 1816 l 1
 440 1816 l 1
 570 1645 l 1
 720 1816 l 1
 925 1816 l 1
 677 1479 l 1
 487 1479 l 1
EndSplineSet
EndChar

StartChar: Tcommaaccent
Encoding: 354 354 125
Width: 1164
VWidth: 0
Flags: HW
PickledData: "(dp1
S'com.typemytype.robofont.layerData'
p2
(dp3
s."
LayerCount: 2
Fore
SplineSet
1099 1336 m 1
 1099 1126 l 1
 728 1126 l 1
 728 0 l 1
 654 0 l 1
 602 -345 l 1
 392 -345 l 1
 505 0 l 1
 440 0 l 1
 440 1126 l 1
 65 1126 l 1
 65 1336 l 1
 1099 1336 l 1
EndSplineSet
EndChar

StartChar: Theta
Encoding: 920 920 126
Width: 407
VWidth: 0
Flags: HW
PickledData: "(dp1
S'com.typemytype.robofont.layerData'
p2
(dp3
s."
LayerCount: 2
Fore
SplineSet
215 483 m 0
 131 483 87 547 87 610 c 0
 87 673 131 737 215 737 c 0
 300 737 342 673 342 610 c 0
 342 547 300 483 215 483 c 0
EndSplineSet
EndChar

StartChar: Thorn
Encoding: 222 222 127
Width: 1164
VWidth: 0
Flags: HW
PickledData: "(dp1
S'com.typemytype.robofont.layerData'
p2
(dp3
s."
LayerCount: 2
Fore
SplineSet
370 1326 m 1
 370 1126 l 1
 613 1126 l 2
 908 1126 1140 1016 1140 720 c 0
 1140 454 924 310 645 310 c 0
 643 310 423 311 370 311 c 1
 370 16 l 1
 153 16 l 1
 153 1326 l 1
 370 1326 l 1
370 946 m 1
 371 505 l 1
 657 505 l 2
 826 505 921 585 921 725 c 0
 921 882 823 946 632 946 c 2
 370 946 l 1
EndSplineSet
EndChar

StartChar: U
Encoding: 85 85 128
Width: 1448
VWidth: 0
Flags: HW
PickledData: "(dp1
S'com.typemytype.robofont.layerData'
p2
(dp3
s."
LayerCount: 2
Fore
SplineSet
724 -18 m 0
 376 -18 168 170 168 485 c 2
 168 1336 l 1
 456 1336 l 1
 456 504 l 2
 456 309 548 213 724 213 c 0
 906 213 992 310 992 505 c 2
 992 1336 l 1
 1280 1336 l 1
 1280 484 l 2
 1280 172 1071 -18 724 -18 c 0
EndSplineSet
EndChar

StartChar: Uacute
Encoding: 218 218 129
Width: 1440
VWidth: 0
Flags: HW
PickledData: "(dp1
S'com.typemytype.robofont.layerData'
p2
(dp3
s."
LayerCount: 2
Fore
SplineSet
720 -18 m 0
 372 -18 169 170 169 485 c 2
 169 1336 l 1
 457 1336 l 1
 457 504 l 2
 457 309 544 213 720 213 c 0
 902 213 983 310 983 505 c 2
 983 1336 l 1
 1271 1336 l 1
 1271 484 l 2
 1271 172 1067 -18 720 -18 c 0
642 1479 m 1
 802 1840 l 1
 1094 1840 l 1
 798 1479 l 1
 642 1479 l 1
EndSplineSet
EndChar

StartChar: Ubreve
Encoding: 364 364 130
Width: 1440
VWidth: 0
Flags: HW
PickledData: "(dp1
S'com.typemytype.robofont.layerData'
p2
(dp3
s."
LayerCount: 2
Fore
SplineSet
720 -18 m 0
 372 -18 169 170 169 485 c 2
 169 1336 l 1
 457 1336 l 1
 457 504 l 2
 457 309 544 213 720 213 c 0
 902 213 983 310 983 505 c 2
 983 1336 l 1
 1271 1336 l 1
 1271 484 l 2
 1271 172 1067 -18 720 -18 c 0
989 1722 m 1
 989 1556 872 1479 719 1479 c 0
 567 1479 451 1557 451 1722 c 1
 619 1722 l 1
 619 1661 645 1637 719 1637 c 0
 793 1637 820 1661 820 1722 c 1
 989 1722 l 1
EndSplineSet
EndChar

StartChar: Ucircumflex
Encoding: 219 219 131
Width: 1440
VWidth: 0
Flags: HW
PickledData: "(dp1
S'com.typemytype.robofont.layerData'
p2
(dp3
s."
LayerCount: 2
Fore
SplineSet
720 -18 m 0
 372 -18 169 170 169 485 c 2
 169 1336 l 1
 457 1336 l 1
 457 504 l 2
 457 309 544 213 720 213 c 0
 902 213 983 310 983 505 c 2
 983 1336 l 1
 1271 1336 l 1
 1271 484 l 2
 1271 172 1067 -18 720 -18 c 0
386 1479 m 1
 622 1847 l 1
 818 1847 l 1
 1054 1479 l 1
 868 1479 l 1
 710 1673 l 1
 568 1479 l 1
 386 1479 l 1
EndSplineSet
EndChar

StartChar: Udieresis
Encoding: 220 220 132
Width: 1440
VWidth: 0
Flags: HW
PickledData: "(dp1
S'com.typemytype.robofont.layerData'
p2
(dp3
s."
LayerCount: 2
Fore
SplineSet
720 -18 m 0
 372 -18 169 170 169 485 c 2
 169 1336 l 1
 457 1336 l 1
 457 504 l 2
 457 309 544 213 720 213 c 0
 902 213 983 310 983 505 c 2
 983 1336 l 1
 1271 1336 l 1
 1271 484 l 2
 1271 172 1067 -18 720 -18 c 0
436 1479 m 1
 436 1724 l 1
 630 1724 l 1
 630 1479 l 1
 436 1479 l 1
812 1479 m 1
 812 1724 l 1
 1004 1724 l 1
 1004 1479 l 1
 812 1479 l 1
EndSplineSet
EndChar

StartChar: Ugrave
Encoding: 217 217 133
Width: 1440
VWidth: 0
Flags: HW
PickledData: "(dp1
S'com.typemytype.robofont.layerData'
p2
(dp3
s."
LayerCount: 2
Fore
SplineSet
720 -18 m 0
 372 -18 169 170 169 485 c 2
 169 1336 l 1
 457 1336 l 1
 457 504 l 2
 457 309 544 213 720 213 c 0
 902 213 983 310 983 505 c 2
 983 1336 l 1
 1271 1336 l 1
 1271 484 l 2
 1271 172 1067 -18 720 -18 c 0
638 1479 m 1
 326 1840 l 1
 626 1840 l 1
 802 1479 l 1
 638 1479 l 1
EndSplineSet
EndChar

StartChar: Uhorn
Encoding: 431 431 134
Width: 1440
VWidth: 0
Flags: HW
PickledData: "(dp1
S'com.typemytype.robofont.layerData'
p2
(dp3
s."
LayerCount: 2
Fore
SplineSet
720 -18 m 0
 372 -18 169 170 169 485 c 2
 169 1336 l 1
 457 1336 l 1
 457 504 l 2
 457 309 544 213 720 213 c 0
 902 213 983 310 983 505 c 2
 983 1336 l 1
 1271 1336 l 1
 1271 484 l 2
 1271 172 1067 -18 720 -18 c 0
1332 1139 m 1
 1341 1139 l 2
 1355 1139 1371 1138 1385 1138 c 0
 1429 1138 1443 1169 1443 1216 c 0
 1443 1257 1430 1308 1417 1344 c 2
 1412 1357 l 1
 1537 1357 l 1
 1538 1351 l 1
 1556 1307 1567 1259 1567 1215 c 0
 1567 1119 1520 1031 1423 1031 c 0
 1396 1031 1368 1034 1340 1037 c 2
 1332 1038 l 1
 1332 1139 l 1
EndSplineSet
EndChar

StartChar: Uhungarumlaut
Encoding: 368 368 135
Width: 1440
VWidth: 0
Flags: HW
PickledData: "(dp1
S'com.typemytype.robofont.layerData'
p2
(dp3
s."
LayerCount: 2
Fore
SplineSet
720 -18 m 0
 372 -18 169 170 169 485 c 2
 169 1336 l 1
 457 1336 l 1
 457 504 l 2
 457 309 544 213 720 213 c 0
 902 213 983 310 983 505 c 2
 983 1336 l 1
 1271 1336 l 1
 1271 484 l 2
 1271 172 1067 -18 720 -18 c 0
512 1479 m 1
 744 1819 l 1
 970 1819 l 1
 656 1479 l 1
 512 1479 l 1
786 1479 m 1
 1024 1819 l 1
 1252 1819 l 1
 928 1479 l 1
 786 1479 l 1
EndSplineSet
EndChar

StartChar: Umacron
Encoding: 362 362 136
Width: 1440
VWidth: 0
Flags: HW
PickledData: "(dp1
S'com.typemytype.robofont.layerData'
p2
(dp3
s."
LayerCount: 2
Fore
SplineSet
720 -18 m 0
 372 -18 169 170 169 485 c 2
 169 1336 l 1
 457 1336 l 1
 457 504 l 2
 457 309 544 213 720 213 c 0
 902 213 983 310 983 505 c 2
 983 1336 l 1
 1271 1336 l 1
 1271 484 l 2
 1271 172 1067 -18 720 -18 c 0
396 1479 m 1
 396 1638 l 1
 1044 1638 l 1
 1044 1479 l 1
 396 1479 l 1
EndSplineSet
EndChar

StartChar: Uogonek
Encoding: 370 370 137
Width: 1440
VWidth: 0
Flags: HW
PickledData: "(dp1
S'com.typemytype.robofont.layerData'
p2
(dp3
s."
LayerCount: 2
Fore
SplineSet
688 -411 m 0
 584 -411 492 -357 492 -243 c 0
 492 -130 579 -58 648 -15 c 1
 344 9 169 192 169 485 c 2
 169 1336 l 1
 457 1336 l 1
 457 504 l 2
 457 309 544 213 720 213 c 0
 902 213 983 310 983 505 c 2
 983 1336 l 1
 1271 1336 l 1
 1271 484 l 2
 1271 182 1080 -5 753 -17 c 1
 774 -20 l 1
 700 -77 668 -141 668 -196 c 0
 668 -230 694 -265 732 -265 c 0
 784 -265 842 -239 854 -234 c 0
 855 -234 862 -375 862 -375 c 1
 807 -396 747 -411 688 -411 c 0
EndSplineSet
EndChar

StartChar: Upsilon
Encoding: 933 933 138
Width: 1101
VWidth: 0
Flags: HW
PickledData: "(dp1
S'com.typemytype.robofont.layerData'
p2
(dp3
s."
LayerCount: 2
Fore
SplineSet
584 786 m 1
 886 1342 l 1
 1169 1342 l 1
 714 536 l 1
 714 0 l 1
 454 0 l 1
 454 532 l 1
 0 1342 l 1
 283 1342 l 1
 584 786 l 1
EndSplineSet
EndChar

StartChar: Upsilondieresis
Encoding: 939 939 139
Width: 1101
VWidth: 0
Flags: HW
PickledData: "(dp1
S'com.typemytype.robofont.layerData'
p2
(dp3
s."
LayerCount: 2
Fore
SplineSet
473 1699 m 1
 473 1454 l 1
 279 1454 l 1
 279 1699 l 1
 473 1699 l 1
848 1699 m 1
 848 1454 l 1
 655 1454 l 1
 655 1699 l 1
 848 1699 l 1
584 786 m 1
 886 1342 l 1
 1169 1342 l 1
 714 536 l 1
 714 0 l 1
 454 0 l 1
 454 532 l 1
 0 1342 l 1
 283 1342 l 1
 584 786 l 1
EndSplineSet
EndChar

StartChar: Upsilontonos
Encoding: 910 910 140
Width: 407
VWidth: 0
Flags: HW
PickledData: "(dp1
S'com.typemytype.robofont.layerData'
p2
(dp3
s."
LayerCount: 2
Fore
SplineSet
215 483 m 0
 131 483 87 547 87 610 c 0
 87 673 131 737 215 737 c 0
 300 737 342 673 342 610 c 0
 342 547 300 483 215 483 c 0
EndSplineSet
EndChar

StartChar: Uring
Encoding: 366 366 141
Width: 1440
VWidth: 0
Flags: HW
PickledData: "(dp1
S'com.typemytype.robofont.layerData'
p2
(dp3
s."
LayerCount: 2
Fore
SplineSet
720 -18 m 0
 372 -18 169 170 169 485 c 2
 169 1336 l 1
 457 1336 l 1
 457 504 l 2
 457 309 544 213 720 213 c 0
 902 213 983 310 983 505 c 2
 983 1336 l 1
 1271 1336 l 1
 1271 484 l 2
 1271 172 1067 -18 720 -18 c 0
720 1580 m 0
 775 1580 806 1624 806 1675 c 0
 806 1724 775 1770 720 1770 c 0
 667 1770 635 1723 635 1675 c 0
 635 1623 663 1580 720 1580 c 0
720 1479 m 0
 591 1479 514 1572 514 1675 c 0
 514 1778 590 1870 720 1870 c 0
 851 1870 926 1777 926 1675 c 0
 926 1572 849 1479 720 1479 c 0
EndSplineSet
EndChar

StartChar: Utilde
Encoding: 360 360 142
Width: 1440
VWidth: 0
Flags: HW
PickledData: "(dp1
S'com.typemytype.robofont.layerData'
p2
(dp3
s."
LayerCount: 2
Fore
SplineSet
720 -18 m 0
 372 -18 169 170 169 485 c 2
 169 1336 l 1
 457 1336 l 1
 457 504 l 2
 457 309 544 213 720 213 c 0
 902 213 983 310 983 505 c 2
 983 1336 l 1
 1271 1336 l 1
 1271 484 l 2
 1271 172 1067 -18 720 -18 c 0
404 1489 m 1
 404 1583 418 1721 566 1721 c 0
 687 1721 823 1636 854 1636 c 1
 874 1637 886 1721 886 1721 c 1
 1036 1721 l 1
 1036 1721 1026 1479 878 1479 c 0
 777 1479 643 1569 586 1569 c 0
 565 1569 552 1479 552 1479 c 1
 404 1489 l 1
EndSplineSet
EndChar

StartChar: V
Encoding: 86 86 143
Width: 1478
VWidth: 0
Flags: HW
PickledData: "(dp1
S'com.typemytype.robofont.layerData'
p2
(dp3
s."
LayerCount: 2
Fore
SplineSet
902 0 m 1
 574 0 l 1
 122 1336 l 1
 430 1336 l 1
 661 586 l 1
 743 307 l 1
 823 587 l 1
 1050 1336 l 1
 1356 1336 l 1
 902 0 l 1
EndSplineSet
EndChar

StartChar: W
Encoding: 87 87 144
Width: 1942
VWidth: 0
Flags: HW
PickledData: "(dp1
S'com.typemytype.robofont.layerData'
p2
(dp3
s."
LayerCount: 2
Fore
SplineSet
842 1330 m 1
 1101 1330 l 1
 1367 373 l 1
 1611 1336 l 1
 1892 1336 l 1
 1509 0 l 1
 1237 0 l 1
 972 963 l 1
 686 0 l 1
 416 0 l 1
 50 1336 l 1
 332 1336 l 1
 563 376 l 1
 842 1330 l 1
EndSplineSet
EndChar

StartChar: Wacute
Encoding: 7810 7810 145
Width: 1868
VWidth: 0
Flags: HW
PickledData: "(dp1
S'com.typemytype.robofont.layerData'
p2
(dp3
s."
LayerCount: 2
Fore
SplineSet
868 1768 m 1
 1160 1768 l 1
 865 1407 l 1
 708 1407 l 1
 868 1768 l 1
1110 1330 m 1
 1376 373 l 1
 1620 1336 l 1
 1901 1336 l 1
 1518 0 l 1
 1246 0 l 1
 981 963 l 1
 695 0 l 1
 425 0 l 1
 59 1336 l 1
 341 1336 l 1
 572 376 l 1
 851 1330 l 1
 1110 1330 l 1
EndSplineSet
EndChar

StartChar: Wcircumflex
Encoding: 372 372 146
Width: 1956
VWidth: 0
Flags: HW
PickledData: "(dp1
S'com.typemytype.robofont.layerData'
p2
(dp3
s."
LayerCount: 2
Fore
SplineSet
851 1330 m 1
 1110 1330 l 1
 1376 373 l 1
 1620 1336 l 1
 1901 1336 l 1
 1518 0 l 1
 1246 0 l 1
 981 963 l 1
 695 0 l 1
 425 0 l 1
 59 1336 l 1
 341 1336 l 1
 572 376 l 1
 851 1330 l 1
646 1479 m 1
 882 1847 l 1
 1078 1847 l 1
 1314 1479 l 1
 1128 1479 l 1
 970 1673 l 1
 828 1479 l 1
 646 1479 l 1
EndSplineSet
EndChar

StartChar: Wdieresis
Encoding: 7812 7812 147
Width: 1868
VWidth: 0
Flags: HW
PickledData: "(dp1
S'com.typemytype.robofont.layerData'
p2
(dp3
s."
LayerCount: 2
Fore
SplineSet
1026 1690 m 1
 1218 1690 l 1
 1218 1445 l 1
 1026 1445 l 1
 1026 1690 l 1
650 1690 m 1
 844 1690 l 1
 844 1445 l 1
 650 1445 l 1
 650 1690 l 1
1110 1330 m 1
 1376 373 l 1
 1620 1336 l 1
 1901 1336 l 1
 1518 0 l 1
 1246 0 l 1
 981 963 l 1
 695 0 l 1
 425 0 l 1
 59 1336 l 1
 341 1336 l 1
 572 376 l 1
 851 1330 l 1
 1110 1330 l 1
EndSplineSet
EndChar

StartChar: Wgrave
Encoding: 7808 7808 148
Width: 1868
VWidth: 0
Flags: HW
PickledData: "(dp1
S'com.typemytype.robofont.layerData'
p2
(dp3
s."
LayerCount: 2
Fore
SplineSet
696 1768 m 1
 995 1768 l 1
 1172 1407 l 1
 1007 1407 l 1
 696 1768 l 1
1110 1330 m 1
 1376 373 l 1
 1620 1336 l 1
 1901 1336 l 1
 1518 0 l 1
 1246 0 l 1
 981 963 l 1
 695 0 l 1
 425 0 l 1
 59 1336 l 1
 341 1336 l 1
 572 376 l 1
 851 1330 l 1
 1110 1330 l 1
EndSplineSet
EndChar

StartChar: X
Encoding: 88 88 149
Width: 1382
VWidth: 0
Flags: HW
PickledData: "(dp1
S'com.typemytype.robofont.layerData'
p2
(dp3
s."
LayerCount: 2
Fore
SplineSet
851 682 m 1
 1309 0 l 1
 997 0 l 1
 687 456 l 1
 369 0 l 1
 73 0 l 1
 532 687 l 1
 105 1336 l 1
 410 1336 l 1
 699 880 l 1
 996 1336 l 1
 1287 1336 l 1
 851 682 l 1
EndSplineSet
EndChar

StartChar: Xi
Encoding: 926 926 150
Width: 407
VWidth: 0
Flags: HW
PickledData: "(dp1
S'com.typemytype.robofont.layerData'
p2
(dp3
s."
LayerCount: 2
Fore
SplineSet
215 483 m 0
 131 483 87 547 87 610 c 0
 87 673 131 737 215 737 c 0
 300 737 342 673 342 610 c 0
 342 547 300 483 215 483 c 0
EndSplineSet
EndChar

StartChar: Y
Encoding: 89 89 151
Width: 1353
VWidth: 0
Flags: HW
PickledData: "(dp1
S'com.typemytype.robofont.layerData'
p2
(dp3
s."
LayerCount: 2
Fore
SplineSet
676 749 m 1
 963 1336 l 1
 1261 1336 l 1
 817 499 l 1
 817 0 l 1
 535 0 l 1
 535 495 l 1
 92 1336 l 1
 395 1336 l 1
 676 749 l 1
EndSplineSet
EndChar

StartChar: Yacute
Encoding: 221 221 152
Width: 1231
VWidth: 0
Flags: HW
PickledData: "(dp1
S'com.typemytype.robofont.layerData'
p2
(dp3
s."
LayerCount: 2
Fore
SplineSet
623 749 m 1
 910 1336 l 1
 1208 1336 l 1
 764 499 l 1
 764 0 l 1
 482 0 l 1
 482 495 l 1
 39 1336 l 1
 342 1336 l 1
 623 749 l 1
545 1479 m 1
 705 1840 l 1
 997 1840 l 1
 702 1479 l 1
 545 1479 l 1
EndSplineSet
EndChar

StartChar: Ycircumflex
Encoding: 374 374 153
Width: 1231
VWidth: 0
Flags: HW
PickledData: "(dp1
S'com.typemytype.robofont.layerData'
p2
(dp3
s."
LayerCount: 2
Fore
SplineSet
623 749 m 1
 910 1336 l 1
 1208 1336 l 1
 764 499 l 1
 764 0 l 1
 482 0 l 1
 482 495 l 1
 39 1336 l 1
 342 1336 l 1
 623 749 l 1
290 1479 m 1
 525 1847 l 1
 721 1847 l 1
 957 1479 l 1
 771 1479 l 1
 613 1673 l 1
 471 1479 l 1
 290 1479 l 1
EndSplineSet
EndChar

StartChar: Ydieresis
Encoding: 376 376 154
Width: 1231
VWidth: 0
Flags: HW
PickledData: "(dp1
S'com.typemytype.robofont.layerData'
p2
(dp3
s."
LayerCount: 2
Fore
SplineSet
623 749 m 1
 910 1336 l 1
 1208 1336 l 1
 764 499 l 1
 764 0 l 1
 482 0 l 1
 482 495 l 1
 39 1336 l 1
 342 1336 l 1
 623 749 l 1
339 1479 m 1
 339 1724 l 1
 533 1724 l 1
 533 1479 l 1
 339 1479 l 1
715 1479 m 1
 715 1724 l 1
 908 1724 l 1
 908 1479 l 1
 715 1479 l 1
EndSplineSet
EndChar

StartChar: Ygrave
Encoding: 7922 7922 155
Width: 1172
VWidth: 0
Flags: HW
PickledData: "(dp1
S'com.typemytype.robofont.layerData'
p2
(dp3
s."
LayerCount: 2
Fore
SplineSet
650 1768 m 1
 651 1768 l 1
 652 1768 l 1
 653 1768 l 1
 654 1768 l 1
 655 1768 l 1
 656 1768 l 1
 833 1407 l 1
 832 1407 l 1
 831 1407 l 1
 830 1407 l 1
 829 1407 l 1
 828 1407 l 1
 827 1407 l 1
 826 1407 l 1
 825 1407 l 1
 824 1407 l 1
 823 1407 l 1
 822 1407 l 1
 821 1407 l 1
 668 1407 l 1
 667 1407 l 1
 666 1407 l 1
 665 1407 l 1
 664 1407 l 1
 663 1407 l 1
 662 1407 l 1
 661 1407 l 1
 660 1407 l 1
 659 1407 l 1
 658 1407 l 1
 657 1407 l 1
 656 1407 l 1
 345 1768 l 1
 346 1768 l 1
 347 1768 l 1
 348 1768 l 1
 349 1768 l 1
 350 1768 l 1
 351 1768 l 1
 352 1768 l 1
 353 1768 l 1
 354 1768 l 1
 355 1768 l 1
 356 1768 l 1
 357 1768 l 1
 644 1768 l 1
 645 1768 l 1
 646 1768 l 1
 647 1768 l 1
 648 1768 l 1
 649 1768 l 1
 650 1768 l 1
910 1336 m 1
 1208 1336 l 1
 764 499 l 1
 764 0 l 1
 482 0 l 1
 482 495 l 1
 39 1336 l 1
 342 1336 l 1
 623 749 l 1
 910 1336 l 1
EndSplineSet
EndChar

StartChar: Z
Encoding: 90 90 156
Width: 1249
VWidth: 0
Flags: HW
PickledData: "(dp1
S'com.typemytype.robofont.layerData'
p2
(dp3
s."
LayerCount: 2
Fore
SplineSet
170 1336 m 1
 1092 1336 l 1
 1092 1150 l 1
 533 216 l 1
 1101 216 l 1
 1101 0 l 1
 163 0 l 1
 163 172 l 1
 752 1126 l 1
 170 1126 l 1
 170 1336 l 1
EndSplineSet
EndChar

StartChar: Zacute
Encoding: 377 377 157
Width: 1202
VWidth: 0
Flags: HW
PickledData: "(dp1
S'com.typemytype.robofont.layerData'
p2
(dp3
s."
LayerCount: 2
Fore
SplineSet
140 1336 m 1
 1062 1336 l 1
 1062 1150 l 1
 503 216 l 1
 1071 216 l 1
 1071 0 l 1
 133 0 l 1
 133 172 l 1
 722 1126 l 1
 140 1126 l 1
 140 1336 l 1
524 1479 m 1
 684 1840 l 1
 976 1840 l 1
 680 1479 l 1
 524 1479 l 1
EndSplineSet
EndChar

StartChar: Zcaron
Encoding: 381 381 158
Width: 1202
VWidth: 0
Flags: HW
PickledData: "(dp1
S'com.typemytype.robofont.layerData'
p2
(dp3
s."
LayerCount: 2
Fore
SplineSet
140 1336 m 1
 1062 1336 l 1
 1062 1150 l 1
 503 216 l 1
 1071 216 l 1
 1071 0 l 1
 133 0 l 1
 133 172 l 1
 722 1126 l 1
 140 1126 l 1
 140 1336 l 1
507 1479 m 1
 259 1816 l 1
 460 1816 l 1
 590 1645 l 1
 740 1816 l 1
 945 1816 l 1
 697 1479 l 1
 507 1479 l 1
EndSplineSet
EndChar

StartChar: Zdotaccent
Encoding: 379 379 159
Width: 1202
VWidth: 0
Flags: HW
PickledData: "(dp1
S'com.typemytype.robofont.layerData'
p2
(dp3
s."
LayerCount: 2
Fore
SplineSet
140 1336 m 1
 1062 1336 l 1
 1062 1150 l 1
 503 216 l 1
 1071 216 l 1
 1071 0 l 1
 133 0 l 1
 133 172 l 1
 722 1126 l 1
 140 1126 l 1
 140 1336 l 1
503 1479 m 1
 503 1691 l 1
 701 1691 l 1
 701 1479 l 1
 503 1479 l 1
EndSplineSet
EndChar

StartChar: Zeta
Encoding: 918 918 160
Width: 1060
VWidth: 0
Flags: HW
PickledData: "(dp1
S'com.typemytype.robofont.layerData'
p2
(dp3
s."
LayerCount: 2
Fore
SplineSet
93 1342 m 1
 1054 1342 l 1
 1054 1150 l 1
 395 220 l 1
 1060 220 l 1
 1058 0 l 1
 70 0 l 1
 70 172 l 1
 742 1122 l 1
 92 1122 l 1
 93 1342 l 1
EndSplineSet
EndChar

StartChar: a
Encoding: 97 97 161
Width: 1132
VWidth: 0
Flags: HW
PickledData: "(dp1
S'com.typemytype.robofont.layerData'
p2
(dp3
s."
LayerCount: 2
Fore
SplineSet
473 -18 m 0
 297 -18 154 77 154 284 c 0
 154 508 311 595 564 621 c 0
 624 628 674 633 739 641 c 1
 739 689 l 2
 739 807 685 852 583 852 c 0
 496 852 353 817 252 776 c 1
 192 953 l 1
 313 1004 467 1041 614 1041 c 0
 879 1041 994 927 994 660 c 2
 994 0 l 1
 804 0 l 1
 801 12 778 118 769 153 c 1
 706 60 616 -18 473 -18 c 0
535 162 m 0
 643 162 721 243 738 281 c 1
 738 482 l 1
 718 480 659 473 659 473 c 1
 487 458 410 404 410 287 c 0
 410 208 451 162 535 162 c 0
EndSplineSet
EndChar

StartChar: aacute
Encoding: 225 225 162
Width: 1137
VWidth: 0
Flags: HW
PickledData: "(dp1
S'com.typemytype.robofont.layerData'
p2
(dp3
s."
LayerCount: 2
Fore
SplineSet
464 -18 m 0
 288 -18 145 77 145 284 c 0
 145 508 300 595 553 621 c 0
 613 628 658 633 723 641 c 1
 723 689 l 2
 723 807 674 852 572 852 c 0
 485 852 344 817 243 776 c 1
 238 790 189 940 183 953 c 1
 304 1004 451 1041 598 1041 c 0
 863 1041 978 927 978 660 c 2
 978 0 l 1
 788 0 l 1
 785 12 762 118 753 153 c 1
 690 60 607 -18 464 -18 c 0
524 162 m 0
 632 162 705 243 722 281 c 1
 722 482 l 1
 702 480 643 473 643 473 c 1
 471 458 401 404 401 287 c 0
 401 208 440 162 524 162 c 0
483 1163 m 1
 643 1524 l 1
 935 1524 l 1
 640 1163 l 1
 483 1163 l 1
EndSplineSet
EndChar

StartChar: abreve
Encoding: 259 259 163
Width: 1137
VWidth: 0
Flags: HW
PickledData: "(dp1
S'com.typemytype.robofont.layerData'
p2
(dp3
s."
LayerCount: 2
Fore
SplineSet
464 -18 m 0
 288 -18 145 77 145 284 c 0
 145 508 300 595 553 621 c 0
 613 628 658 633 723 641 c 1
 723 689 l 2
 723 807 674 852 572 852 c 0
 485 852 344 817 243 776 c 1
 238 790 189 940 183 953 c 1
 304 1004 451 1041 598 1041 c 0
 863 1041 978 927 978 660 c 2
 978 0 l 1
 788 0 l 1
 785 12 762 118 753 153 c 1
 690 60 607 -18 464 -18 c 0
524 162 m 0
 632 162 705 243 722 281 c 1
 722 482 l 1
 702 480 643 473 643 473 c 1
 471 458 401 404 401 287 c 0
 401 208 440 162 524 162 c 0
830 1406 m 1
 830 1240 713 1163 560 1163 c 0
 408 1163 292 1241 292 1406 c 1
 460 1406 l 1
 460 1345 486 1321 560 1321 c 0
 634 1321 662 1345 662 1406 c 1
 830 1406 l 1
EndSplineSet
EndChar

StartChar: acircumflex
Encoding: 226 226 164
Width: 1137
VWidth: 0
Flags: HW
PickledData: "(dp1
S'com.typemytype.robofont.layerData'
p2
(dp3
s."
LayerCount: 2
Fore
SplineSet
464 -18 m 0
 288 -18 145 77 145 284 c 0
 145 508 300 595 553 621 c 0
 613 628 658 633 723 641 c 1
 723 689 l 2
 723 807 674 852 572 852 c 0
 485 852 344 817 243 776 c 1
 238 790 189 940 183 953 c 1
 304 1004 451 1041 598 1041 c 0
 863 1041 978 927 978 660 c 2
 978 0 l 1
 788 0 l 1
 785 12 762 118 753 153 c 1
 690 60 607 -18 464 -18 c 0
524 162 m 0
 632 162 705 243 722 281 c 1
 722 482 l 1
 702 480 643 473 643 473 c 1
 471 458 401 404 401 287 c 0
 401 208 440 162 524 162 c 0
228 1163 m 1
 463 1531 l 1
 659 1531 l 1
 895 1163 l 1
 709 1163 l 1
 551 1357 l 1
 409 1163 l 1
 228 1163 l 1
EndSplineSet
EndChar

StartChar: acute
Encoding: 180 180 165
Width: 541
VWidth: 0
Flags: HW
PickledData: "(dp1
S'com.typemytype.robofont.layerData'
p2
(dp3
s."
LayerCount: 2
Fore
SplineSet
163 1081 m 1
 323 1442 l 1
 615 1442 l 1
 320 1081 l 1
 163 1081 l 1
EndSplineSet
EndChar

StartChar: adieresis
Encoding: 228 228 166
Width: 1137
VWidth: 0
Flags: HW
PickledData: "(dp1
S'com.typemytype.robofont.layerData'
p2
(dp3
s."
LayerCount: 2
Fore
SplineSet
464 -18 m 0
 288 -18 145 77 145 284 c 0
 145 508 300 595 553 621 c 0
 613 628 658 633 723 641 c 1
 723 689 l 2
 723 807 674 852 572 852 c 0
 485 852 344 817 243 776 c 1
 238 790 189 940 183 953 c 1
 304 1004 451 1041 598 1041 c 0
 863 1041 978 927 978 660 c 2
 978 0 l 1
 788 0 l 1
 785 12 762 118 753 153 c 1
 690 60 607 -18 464 -18 c 0
524 162 m 0
 632 162 705 243 722 281 c 1
 722 482 l 1
 702 480 643 473 643 473 c 1
 471 458 401 404 401 287 c 0
 401 208 440 162 524 162 c 0
277 1163 m 1
 277 1408 l 1
 471 1408 l 1
 471 1163 l 1
 277 1163 l 1
653 1163 m 1
 653 1408 l 1
 846 1408 l 1
 846 1163 l 1
 653 1163 l 1
EndSplineSet
EndChar

StartChar: ae
Encoding: 230 230 167
Width: 1478
VWidth: 0
Flags: HW
PickledData: "(dp1
S'com.typemytype.robofont.layerData'
p2
(dp3
s."
LayerCount: 2
Fore
SplineSet
368 -19 m 0
 178 -19 59 119 59 297 c 0
 59 526 253 552 542 584 c 1
 608 591 l 1
 608 687 l 2
 608 802 578 855 453 861 c 1
 342 861 221 812 170 792 c 2
 160 788 l 1
 112 969 l 1
 119 973 l 1
 205 1014 306 1045 459 1049 c 1
 604 1051 714 1000 757 901 c 1
 823 983 936 1049 1073 1049 c 0
 1339 1049 1442 822 1442 573 c 0
 1442 509 1381 488 1293 485 c 0
 1261 483 951 458 848 451 c 1
 858 270 939 170 1095 168 c 1
 1207 168 1299 206 1342 240 c 1
 1352 247 l 1
 1424 84 l 1
 1418 79 l 1
 1339 22 1242 -18 1079 -18 c 0
 918 -18 816 32 744 119 c 1
 661 45 536 -19 368 -19 c 0
402 153 m 0
 489 153 573 197 650 256 c 1
 639 283 617 358 613 421 c 1
 595 418 546 412 544 412 c 2
 543 412 l 1
 367 392 287 369 287 281 c 0
 287 196 325 153 402 153 c 0
849 614 m 1
 1215 646 l 1
 1215 665 l 2
 1215 757 1189 859 1071 859 c 0
 976 859 868 805 849 614 c 1
EndSplineSet
EndChar

StartChar: aeacute
Encoding: 509 509 168
Width: 1478
VWidth: 0
Flags: HW
PickledData: "(dp1
S'com.typemytype.robofont.layerData'
p2
(dp3
s."
LayerCount: 2
Fore
SplineSet
368 -19 m 0
 178 -19 59 119 59 297 c 0
 59 526 253 552 542 584 c 1
 608 591 l 1
 608 687 l 2
 608 802 578 855 453 861 c 1
 342 861 221 812 170 792 c 2
 160 788 l 1
 112 969 l 1
 119 973 l 1
 205 1014 306 1045 459 1049 c 1
 604 1051 714 1000 757 901 c 1
 823 983 936 1049 1073 1049 c 0
 1339 1049 1442 822 1442 573 c 0
 1442 509 1381 488 1293 485 c 0
 1261 483 951 458 848 451 c 1
 858 270 939 170 1095 168 c 1
 1207 168 1299 206 1342 240 c 1
 1352 247 l 1
 1424 84 l 1
 1418 79 l 1
 1339 22 1242 -18 1079 -18 c 0
 918 -18 816 32 744 119 c 1
 661 45 536 -19 368 -19 c 0
402 153 m 0
 489 153 573 197 650 256 c 1
 639 283 617 358 613 421 c 1
 595 418 546 412 544 412 c 2
 543 412 l 1
 367 392 287 369 287 281 c 0
 287 196 325 153 402 153 c 0
849 614 m 1
 1215 646 l 1
 1215 665 l 2
 1215 757 1189 859 1071 859 c 0
 976 859 868 805 849 614 c 1
672 1171 m 1
 832 1532 l 1
 1124 1532 l 1
 829 1171 l 1
 672 1171 l 1
EndSplineSet
EndChar

StartChar: afii10017
Encoding: 1040 1040 169
Width: 1194
VWidth: 0
Flags: HW
PickledData: "(dp1
S'com.typemytype.robofont.layerData'
p2
(dp3
s."
LayerCount: 2
Fore
SplineSet
476 577 m 1
 754 577 l 1
 734 642 648 950 616 1054 c 1
 585 957 498 647 476 577 c 1
414 368 m 1
 294 0 l 1
 -7 0 l 1
 449 1342 l 1
 781 1342 l 1
 1230 0 l 1
 941 0 l 1
 814 368 l 1
 414 368 l 1
EndSplineSet
EndChar

StartChar: afii10018
Encoding: 1041 1041 170
Width: 1142
VWidth: 0
Flags: HW
PickledData: "(dp1
S'com.typemytype.robofont.layerData'
p2
(dp3
s."
LayerCount: 2
Fore
SplineSet
368 600 m 1
 368 203 l 1
 608 203 l 2
 758 203 847 265 847 402 c 0
 847 537 757 600 607 600 c 2
 368 600 l 1
1101 399 m 0
 1101 115 872 0 595 0 c 2
 110 0 l 1
 110 1335 l 1
 1003 1335 l 1
 1003 1131 l 1
 369 1131 l 1
 368 799 l 1
 618 799 l 2
 883 799 1101 688 1101 399 c 0
EndSplineSet
EndChar

StartChar: afii10020
Encoding: 1043 1043 171
Width: 1283
VWidth: 0
Flags: HW
PickledData: "(dp1
S'com.typemytype.robofont.layerData'
p2
(dp3
s."
LayerCount: 2
Fore
SplineSet
938 1133 m 1
 368 1133 l 1
 368 0 l 1
 110 0 l 1
 110 1335 l 1
 959 1335 l 1
 938 1133 l 1
EndSplineSet
EndChar

StartChar: afii10023
Encoding: 1025 1025 172
Width: 1108
VWidth: 0
Flags: HW
PickledData: "(dp1
S'com.typemytype.robofont.layerData'
p2
(dp3
s."
LayerCount: 2
Fore
SplineSet
879 1449 m 1
 686 1449 l 1
 686 1694 l 1
 879 1694 l 1
 879 1449 l 1
504 1449 m 1
 310 1449 l 1
 310 1694 l 1
 504 1694 l 1
 504 1449 l 1
EndSplineSet
EndChar

StartChar: afii10025
Encoding: 1047 1047 173
Width: 1097
VWidth: 0
Flags: HW
PickledData: "(dp1
S'com.typemytype.robofont.layerData'
p2
(dp3
s."
LayerCount: 2
Fore
SplineSet
114 131 m 1
 139 172 174 250 197 296 c 2
 202 306 l 1
 212 299 l 1
 292 245 418 191 561 191 c 0
 774 191 833 273 833 392 c 0
 833 499 709 583 575 583 c 2
 399 583 l 1
 399 788 l 1
 577 788 l 2
 697 788 791 870 791 970 c 1
 789 1062 702 1152 561 1152 c 0
 417 1152 323 1115 250 1062 c 1
 241 1056 l 1
 145 1233 l 1
 152 1238 l 1
 261 1328 398 1365 567 1365 c 0
 811 1365 1030 1209 1030 1000 c 0
 1030 825 971 736 882 688 c 1
 988 630 1062 511 1062 383 c 0
 1062 138 896 -17 559 -17 c 0
 385 -17 203 29 114 118 c 1
 109 124 l 1
 114 131 l 1
EndSplineSet
EndChar

StartChar: afii10026
Encoding: 1048 1048 174
Width: 1295
VWidth: 0
Flags: HW
PickledData: "(dp1
S'com.typemytype.robofont.layerData'
p2
(dp3
s."
LayerCount: 2
Fore
SplineSet
349 426 m 1
 453 570 900 1147 956 1231 c 1
 958 1240 969 1317 976 1329 c 2
 979 1335 l 1
 1207 1335 l 1
 1207 0 l 1
 969 0 l 1
 969 838 l 1
 335 0 l 1
 110 0 l 1
 110 1335 l 1
 349 1335 l 1
 349 426 l 1
EndSplineSet
EndChar

StartChar: afii10027
Encoding: 1049 1049 175
Width: 1295
VWidth: 0
Flags: HW
PickledData: "(dp1
S'com.typemytype.robofont.layerData'
p2
(dp3
s."
LayerCount: 2
Fore
SplineSet
349 1335 m 1
 349 426 l 1
 453 570 900 1147 956 1231 c 1
 958 1240 969 1317 976 1329 c 2
 979 1335 l 1
 1207 1335 l 1
 1207 0 l 1
 969 0 l 1
 969 838 l 1
 335 0 l 1
 110 0 l 1
 110 1335 l 1
 349 1335 l 1
748 1671 m 1
 917 1671 l 1
 917 1505 800 1428 647 1428 c 0
 495 1428 379 1506 379 1671 c 1
 547 1671 l 1
 547 1610 573 1586 647 1586 c 0
 721 1586 748 1610 748 1671 c 1
EndSplineSet
EndChar

StartChar: afii10028
Encoding: 1050 1050 176
Width: 1179
VWidth: 0
Flags: HW
PickledData: "(dp1
S'com.typemytype.robofont.layerData'
p2
(dp3
s."
LayerCount: 2
Fore
SplineSet
416 516 m 1
 416 0 l 1
 128 0 l 1
 128 1342 l 1
 416 1342 l 1
 416 765 l 1
 532 918 771 1195 882 1334 c 1
 884 1342 l 1
 1196 1342 l 1
 700 737 l 1
 1226 0 l 1
 919 0 l 1
 503 589 l 1
 474 565 446 541 416 516 c 1
EndSplineSet
EndChar

StartChar: afii10030
Encoding: 1052 1052 177
Width: 1621
VWidth: 0
Flags: HW
PickledData: "(dp1
S'com.typemytype.robofont.layerData'
p2
(dp3
s."
LayerCount: 2
Fore
SplineSet
152 1342 m 1
 453 1342 l 1
 837 407 l 1
 1223 1342 l 1
 1522 1342 l 1
 1522 0 l 1
 1278 0 l 1
 1278 658 l 1
 1284 968 l 1
 1271 929 l 1
 940 89 l 1
 720 89 l 1
 396 934 l 1
 382 974 l 1
 388 655 l 1
 388 0 l 1
 152 0 l 1
 152 1342 l 1
EndSplineSet
EndChar

StartChar: afii10031
Encoding: 1053 1053 178
Width: 1337
VWidth: 0
Flags: HW
PickledData: "(dp1
S'com.typemytype.robofont.layerData'
p2
(dp3
s."
LayerCount: 2
Fore
SplineSet
130 0 m 1
 130 1342 l 1
 418 1342 l 1
 418 804 l 1
 962 804 l 1
 962 1342 l 1
 1250 1342 l 1
 1250 0 l 1
 962 0 l 1
 962 578 l 1
 418 578 l 1
 418 0 l 1
 130 0 l 1
EndSplineSet
EndChar

StartChar: afii10033
Encoding: 1055 1055 179
Width: 1278
VWidth: 0
Flags: HW
PickledData: "(dp1
S'com.typemytype.robofont.layerData'
p2
(dp3
s."
LayerCount: 2
Fore
SplineSet
368 1141 m 1
 368 0 l 1
 110 0 l 1
 110 1335 l 1
 1191 1335 l 1
 1191 0 l 1
 932 0 l 1
 932 1141 l 1
 368 1141 l 1
EndSplineSet
EndChar

StartChar: afii10035
Encoding: 1057 1057 180
Width: 1141
VWidth: 0
Flags: HW
PickledData: "(dp1
S'com.typemytype.robofont.layerData'
p2
(dp3
s."
LayerCount: 2
Fore
SplineSet
1124 1249 m 1
 1041 1048 l 1
 953 1097 880 1129 762 1129 c 0
 543 1129 378 963 378 671 c 0
 378 380 515 213 772 213 c 0
 871 213 968 238 1062 293 c 1
 1098 75 l 1
 974 13 876 -16 731 -16 c 0
 354 -16 90 240 90 677 c 0
 90 1091 360 1358 735 1358 c 0
 874 1358 1005 1328 1124 1249 c 1
EndSplineSet
EndChar

StartChar: afii10036
Encoding: 1058 1058 181
Width: 997
VWidth: 0
Flags: HW
PickledData: "(dp1
S'com.typemytype.robofont.layerData'
p2
(dp3
s."
LayerCount: 2
Fore
SplineSet
49 1122 m 1
 49 1342 l 1
 1073 1342 l 1
 1073 1122 l 1
 704 1122 l 1
 704 0 l 1
 416 0 l 1
 416 1122 l 1
 49 1122 l 1
EndSplineSet
EndChar

StartChar: afii10038
Encoding: 1060 1060 182
Width: 1597
VWidth: 0
Flags: HW
PickledData: "(dp1
S'com.typemytype.robofont.layerData'
p2
(dp3
s."
LayerCount: 2
Fore
SplineSet
931 0 m 1
 685 0 l 1
 683 145 l 1
 327 157 65 377 65 690 c 0
 65 994 323 1207 683 1219 c 1
 685 1335 l 1
 931 1335 l 1
 931 1219 l 1
 1285 1209 1551 1000 1551 690 c 0
 1551 374 1289 156 931 145 c 1
 931 0 l 1
683 358 m 1
 683 1006 l 1
 442 994 319 851 319 687 c 0
 319 517 439 370 683 358 c 1
931 1006 m 1
 931 358 l 1
 1175 369 1298 516 1298 687 c 0
 1298 850 1179 995 931 1006 c 1
EndSplineSet
EndChar

StartChar: afii10039
Encoding: 1061 1061 183
Width: 1174
VWidth: 0
Flags: HW
PickledData: "(dp1
S'com.typemytype.robofont.layerData'
p2
(dp3
s."
LayerCount: 2
Fore
SplineSet
22 0 m 1
 481 687 l 1
 54 1342 l 1
 349 1342 l 1
 648 856 l 1
 955 1342 l 1
 1236 1342 l 1
 800 682 l 1
 1258 0 l 1
 956 0 l 1
 636 508 l 1
 308 0 l 1
 22 0 l 1
EndSplineSet
EndChar

StartChar: afii10040
Encoding: 1062 1062 184
Width: 1357
VWidth: 0
Flags: HW
PickledData: "(dp1
S'com.typemytype.robofont.layerData'
p2
(dp3
s."
LayerCount: 2
Fore
SplineSet
1349 -303 m 1
 1120 -303 l 1
 1119 0 l 1
 110 0 l 1
 110 1335 l 1
 368 1335 l 1
 368 194 l 1
 961 194 l 1
 961 1335 l 1
 1219 1335 l 1
 1219 112 l 1
 1349 112 l 1
 1349 -303 l 1
EndSplineSet
EndChar

StartChar: afii10041
Encoding: 1063 1063 185
Width: 1598
VWidth: 0
Flags: HW
PickledData: "(dp1
S'com.typemytype.robofont.layerData'
p2
(dp3
s."
LayerCount: 2
Fore
SplineSet
1178 16 m 1
 943 16 l 1
 942 537 l 1
 891 517 729 507 701 507 c 0
 388 507 152 567 152 899 c 2
 152 1326 l 1
 372 1326 l 1
 372 919 l 2
 372 745 464 710 674 710 c 0
 700 710 908 734 943 747 c 1
 943 1326 l 1
 1178 1326 l 1
 1178 16 l 1
EndSplineSet
EndChar

StartChar: afii10042
Encoding: 1064 1064 186
Width: 1617
VWidth: 0
Flags: HW
PickledData: "(dp1
S'com.typemytype.robofont.layerData'
p2
(dp3
s."
LayerCount: 2
Fore
SplineSet
707 194 m 1
 707 1335 l 1
 964 1335 l 1
 964 194 l 1
 1271 194 l 1
 1271 1335 l 1
 1530 1335 l 1
 1530 0 l 1
 110 0 l 1
 110 1335 l 1
 368 1335 l 1
 368 194 l 1
 707 194 l 1
EndSplineSet
EndChar

StartChar: afii10043
Encoding: 1065 1065 187
Width: 1670
VWidth: 0
Flags: HW
PickledData: "(dp1
S'com.typemytype.robofont.layerData'
p2
(dp3
s."
LayerCount: 2
Fore
SplineSet
707 194 m 1
 707 1335 l 1
 964 1335 l 1
 964 194 l 1
 1272 194 l 1
 1272 1335 l 1
 1530 1335 l 1
 1530 112 l 1
 1658 112 l 1
 1658 -303 l 1
 1429 -303 l 1
 1428 0 l 1
 110 0 l 1
 110 1335 l 1
 368 1335 l 1
 368 194 l 1
 707 194 l 1
EndSplineSet
EndChar

StartChar: afii10044
Encoding: 1066 1066 188
Width: 1362
VWidth: 0
Flags: HW
PickledData: "(dp1
S'com.typemytype.robofont.layerData'
p2
(dp3
s."
LayerCount: 2
Fore
SplineSet
568 1326 m 1
 568 859 l 1
 794 859 l 2
 1076 859 1313 742 1313 449 c 0
 1313 158 1142 16 803 16 c 2
 338 16 l 1
 338 1125 l 1
 33 1125 l 1
 33 1326 l 1
 568 1326 l 1
568 660 m 1
 568 219 l 1
 822 219 l 2
 1011 219 1096 304 1096 442 c 0
 1096 573 992 660 813 660 c 2
 568 660 l 1
EndSplineSet
EndChar

StartChar: afii10046
Encoding: 1068 1068 189
Width: 1135
VWidth: 0
Flags: HW
PickledData: "(dp1
S'com.typemytype.robofont.layerData'
p2
(dp3
s."
LayerCount: 2
Fore
SplineSet
379 859 m 1
 592 859 l 2
 885 859 1102 716 1102 441 c 0
 1102 167 896 16 596 16 c 2
 153 16 l 1
 153 1326 l 1
 379 1326 l 1
 379 859 l 1
379 219 m 1
 612 219 l 2
 793 219 882 304 882 442 c 0
 882 576 793 660 610 660 c 2
 379 660 l 1
 379 219 l 1
EndSplineSet
EndChar

StartChar: afii10047
Encoding: 1069 1069 190
Width: 1226
VWidth: 0
Flags: HW
PickledData: "(dp1
S'com.typemytype.robofont.layerData'
p2
(dp3
s."
LayerCount: 2
Fore
SplineSet
165 300 m 1
 175 293 l 1
 270 229 385 187 494 187 c 0
 705 187 859 330 895 583 c 1
 305 583 l 1
 305 786 l 1
 891 786 l 1
 850 1004 707 1160 494 1160 c 0
 384 1160 272 1117 174 1048 c 1
 165 1041 l 1
 83 1236 l 1
 89 1240 l 1
 217 1323 363 1363 507 1363 c 0
 862 1363 1152 1090 1152 677 c 0
 1152 265 872 -17 511 -17 c 0
 369 -17 225 24 90 103 c 1
 83 108 l 1
 165 300 l 1
EndSplineSet
EndChar

StartChar: afii10048
Encoding: 1070 1070 191
Width: 1472
VWidth: 0
Flags: HW
PickledData: "(dp1
S'com.typemytype.robofont.layerData'
p2
(dp3
s."
LayerCount: 2
Fore
SplineSet
1175 -17 m 0
 812 -17 612 253 580 587 c 1
 379 587 l 1
 379 10 l 1
 153 10 l 1
 153 1331 l 1
 379 1331 l 1
 379 791 l 1
 583 791 l 1
 623 1113 822 1363 1173 1363 c 0
 1561 1363 1764 1056 1764 670 c 0
 1764 290 1562 -17 1175 -17 c 0
1174 187 m 0
 1419 187 1524 406 1524 676 c 0
 1524 941 1417 1160 1172 1160 c 0
 930 1160 823 942 823 676 c 0
 823 605 934 187 1174 187 c 0
EndSplineSet
EndChar

StartChar: afii10049
Encoding: 1071 1071 192
Width: 1158
VWidth: 0
Flags: HW
PickledData: "(dp1
S'com.typemytype.robofont.layerData'
p2
(dp3
s."
LayerCount: 2
Fore
SplineSet
556 1127 m 2
 389 1127 311 1071 311 945 c 0
 311 807 376 746 562 746 c 2
 809 746 l 1
 809 1127 l 1
 556 1127 l 2
296 600 m 1
 155 660 69 773 69 952 c 0
 69 1253 267 1335 576 1335 c 2
 1068 1335 l 1
 1068 0 l 1
 809 0 l 1
 809 541 l 1
 637 541 l 2
 582 541 549 542 530 541 c 1
 517 514 444 372 421 325 c 2
 268 0 l 1
 -8 0 l 1
 -2 13 l 2
 8 34 168 364 185 399 c 0
 226 483 256 549 296 600 c 1
EndSplineSet
EndChar

StartChar: afii10053
Encoding: 1028 1028 193
Width: 1226
VWidth: 0
Flags: HW
PickledData: "(dp1
S'com.typemytype.robofont.layerData'
p2
(dp3
s."
LayerCount: 2
Fore
SplineSet
1145 1240 m 1
 1152 1236 l 1
 1070 1041 l 1
 1060 1048 l 2
 963 1117 851 1160 742 1160 c 0
 530 1160 384 1008 343 786 c 1
 929 786 l 1
 929 583 l 1
 340 583 l 1
 375 334 529 187 741 187 c 0
 850 187 964 229 1059 293 c 1
 1069 300 l 1
 1152 108 l 1
 1145 103 l 1
 1010 24 866 -17 724 -17 c 0
 364 -17 83 265 83 677 c 0
 83 1090 371 1363 729 1363 c 0
 872 1363 1018 1323 1145 1240 c 1
EndSplineSet
EndChar

StartChar: afii10054
Encoding: 1029 1029 194
Width: 1036
VWidth: 0
Flags: HW
PickledData: "(dp1
S'com.typemytype.robofont.layerData'
p2
(dp3
s."
LayerCount: 2
Fore
SplineSet
505 -17 m 0
 329 -17 184 16 68 82 c 1
 133 300 l 1
 215 251 383 210 515 210 c 0
 656 210 725 262 725 385 c 0
 725 464 670 512 573 544 c 2
 349 617 l 2
 187 670 83 785 83 975 c 0
 83 1227 280 1358 548 1358 c 0
 708 1358 842 1324 963 1255 c 1
 882 1048 l 1
 790 1088 678 1128 559 1128 c 0
 426 1128 352 1087 352 980 c 0
 352 915 389 873 450 853 c 2
 658 783 l 1
 893 705 998 598 998 381 c 0
 998 119 794 -17 505 -17 c 0
EndSplineSet
EndChar

StartChar: afii10056
Encoding: 1031 1031 195
Width: 516
VWidth: 0
Flags: HW
PickledData: "(dp1
S'com.typemytype.robofont.layerData'
p2
(dp3
s."
LayerCount: 2
Fore
SplineSet
532 1445 m 1
 339 1445 l 1
 339 1690 l 1
 532 1690 l 1
 532 1445 l 1
157 1445 m 1
 -37 1445 l 1
 -37 1690 l 1
 157 1690 l 1
 157 1445 l 1
EndSplineSet
EndChar

StartChar: afii10057
Encoding: 1032 1032 196
Width: 556
VWidth: 0
Flags: HW
PickledData: "(dp1
S'com.typemytype.robofont.layerData'
p2
(dp3
s."
LayerCount: 2
Fore
SplineSet
-26 -285 m 1
 -38 -75 l 1
 1 -82 42 -84 65 -84 c 0
 197 -84 224 -21 224 126 c 2
 224 1342 l 1
 512 1342 l 1
 512 144 l 2
 512 -153 383 -293 67 -293 c 0
 37 -293 5 -292 -26 -285 c 1
EndSplineSet
EndChar

StartChar: afii10058
Encoding: 1033 1033 197
Width: 1654
VWidth: 0
Flags: HW
PickledData: "(dp1
S'com.typemytype.robofont.layerData'
p2
(dp3
s."
LayerCount: 2
Fore
SplineSet
48 -17 m 1
 48 174 l 1
 125 176 l 2
 264 179 282 227 282 364 c 2
 280 1326 l 1
 1006 1326 l 1
 1006 811 l 1
 1153 811 l 2
 1441 811 1688 698 1688 405 c 0
 1688 120 1457 5 1158 5 c 2
 800 5 l 1
 772 1117 l 1
 517 1117 l 1
 528 402 l 1
 528 113 443 -17 107 -17 c 2
 48 -17 l 1
1024 611 m 1
 1024 216 l 1
 1172 216 l 2
 1353 216 1466 280 1466 415 c 0
 1466 548 1352 611 1172 611 c 2
 1024 611 l 1
EndSplineSet
EndChar

StartChar: afii10061
Encoding: 1036 1036 198
Width: 1179
VWidth: 0
Flags: HW
PickledData: "(dp1
S'com.typemytype.robofont.layerData'
p2
(dp3
s."
LayerCount: 2
Fore
SplineSet
758 1883 m 1
 1050 1883 l 1
 756 1522 l 1
 598 1522 l 1
 758 1883 l 1
416 0 m 1
 128 0 l 1
 128 1342 l 1
 416 1342 l 1
 416 765 l 1
 532 918 771 1195 882 1334 c 1
 884 1342 l 1
 1196 1342 l 1
 700 737 l 1
 1226 0 l 1
 919 0 l 1
 503 589 l 1
 474 565 446 541 416 516 c 1
 416 0 l 1
EndSplineSet
EndChar

StartChar: afii10062
Encoding: 1038 1038 199
Width: 1141
VWidth: 0
Flags: HW
PickledData: "(dp1
S'com.typemytype.robofont.layerData'
p2
(dp3
s."
LayerCount: 2
Fore
SplineSet
462 1702 m 1
 462 1693 l 2
 462 1632 488 1608 562 1608 c 0
 636 1608 663 1632 663 1693 c 2
 663 1702 l 1
 832 1702 l 1
 832 1693 l 2
 832 1527 715 1450 562 1450 c 0
 410 1450 294 1528 294 1693 c 2
 294 1702 l 1
 462 1702 l 1
EndSplineSet
EndChar

StartChar: afii10065
Encoding: 1072 1072 200
Width: 1075
VWidth: 0
Flags: HW
PickledData: "(dp1
S'com.typemytype.robofont.layerData'
p2
(dp3
s."
LayerCount: 2
Fore
SplineSet
753 153 m 1
 690 60 607 -18 464 -18 c 0
 288 -18 145 77 145 284 c 0
 145 508 300 595 553 621 c 0
 613 628 658 633 723 641 c 1
 723 689 l 2
 723 807 674 852 572 852 c 0
 485 852 344 817 243 776 c 1
 238 790 189 940 183 953 c 1
 304 1004 451 1041 598 1041 c 0
 863 1041 978 927 978 660 c 2
 978 0 l 1
 788 0 l 1
 785 12 762 118 753 153 c 1
401 287 m 0
 401 208 440 162 524 162 c 0
 632 162 705 243 722 281 c 1
 722 482 l 1
 702 480 643 473 643 473 c 1
 471 458 401 404 401 287 c 0
EndSplineSet
EndChar

StartChar: afii10066
Encoding: 1073 1073 201
Width: 953
VWidth: 0
Flags: HW
PickledData: "(dp1
S'com.typemytype.robofont.layerData'
p2
(dp3
s."
LayerCount: 2
Fore
SplineSet
512 -17 m 0
 242 -17 64 138 64 480 c 0
 64 931 344 1216 761 1216 c 1
 813 1001 l 1
 451 1001 365 775 352 741 c 1
 381 775 528 797 556 797 c 0
 795 797 962 655 962 402 c 0
 962 136 773 -17 512 -17 c 0
506 180 m 0
 620 180 722 248 722 389 c 0
 722 536 634 586 521 586 c 0
 450 586 344 534 307 495 c 1
 307 336 352 180 506 180 c 0
EndSplineSet
EndChar

StartChar: afii10067
Encoding: 1074 1074 202
Width: 976
VWidth: 0
Flags: HW
PickledData: "(dp1
S'com.typemytype.robofont.layerData'
p2
(dp3
s."
LayerCount: 2
Fore
SplineSet
89 0 m 1
 89 1016 l 1
 559 1016 l 2
 769 1016 915 923 915 734 c 0
 915 649 874 572 789 532 c 1
 886 496 941 394 942 299 c 1
 942 98 790 0 577 0 c 2
 89 0 l 1
336 433 m 1
 336 187 l 1
 585 187 l 2
 677 187 722 246 722 311 c 1
 721 372 676 433 585 433 c 2
 336 433 l 1
336 814 m 1
 336 604 l 1
 577 604 l 2
 656 604 694 659 694 711 c 0
 694 766 658 814 577 814 c 2
 336 814 l 1
EndSplineSet
EndChar

StartChar: afii10068
Encoding: 1075 1075 203
Width: 649
VWidth: 0
Flags: HW
PickledData: "(dp1
S'com.typemytype.robofont.layerData'
p2
(dp3
s."
LayerCount: 2
Fore
SplineSet
625 819 m 1
 336 819 l 1
 336 0 l 1
 89 0 l 1
 89 1016 l 1
 625 1016 l 1
 625 819 l 1
EndSplineSet
EndChar

StartChar: afii10069
Encoding: 1076 1076 204
Width: 1064
VWidth: 0
Flags: HW
PickledData: "(dp1
S'com.typemytype.robofont.layerData'
p2
(dp3
s."
LayerCount: 2
Fore
SplineSet
29 -302 m 1
 29 194 l 1
 106 194 l 1
 165 299 224 521 226 741 c 1
 233 1016 l 1
 956 1016 l 1
 956 194 l 1
 1064 194 l 1
 1064 -302 l 1
 848 -302 l 1
 833 0 l 1
 257 0 l 1
 249 -302 l 1
 29 -302 l 1
711 810 m 1
 474 810 l 1
 473 771 471 676 468 647 c 1
 454 425 410 271 381 197 c 1
 711 197 l 1
 711 810 l 1
EndSplineSet
EndChar

StartChar: afii10070
Encoding: 1077 1077 205
Width: 1030
VWidth: 0
Flags: HW
PickledData: "(dp1
S'com.typemytype.robofont.layerData'
p2
(dp3
s."
LayerCount: 2
Fore
SplineSet
587 854 m 0
 484 854 403 774 384 613 c 1
 778 613 l 1
 774 760 704 854 587 854 c 0
979 63 m 1
 883 2 779 -18 623 -18 c 0
 308 -18 119 183 119 512 c 0
 119 830 297 1040 586 1041 c 0
 865 1041 1018 840 1018 558 c 0
 1018 543 1011 448 1011 448 c 1
 378 448 l 1
 391 273 474 174 647 174 c 0
 810 174 902 224 944 243 c 1
 979 63 l 1
EndSplineSet
EndChar

StartChar: afii10071
Encoding: 1105 1105 206
Width: 1030
VWidth: 0
Flags: HW
PickledData: "(dp1
S'com.typemytype.robofont.layerData'
p2
(dp3
s."
LayerCount: 2
Fore
SplineSet
587 854 m 0
 484 854 403 774 384 613 c 1
 778 613 l 1
 774 760 704 854 587 854 c 0
979 63 m 1
 883 2 779 -18 623 -18 c 0
 308 -18 119 183 119 512 c 0
 119 830 297 1040 586 1041 c 0
 865 1041 1018 840 1018 558 c 0
 1018 543 1011 448 1011 448 c 1
 378 448 l 1
 391 273 474 174 647 174 c 0
 810 174 902 224 944 243 c 1
 979 63 l 1
230 1364 m 1
 240 1364 l 1
 242 1364 l 1
 252 1364 l 1
 262 1364 l 1
 262 1364 l 1
 264 1364 l 1
 424 1364 l 1
 434 1364 l 1
 436 1364 l 1
 446 1364 l 1
 456 1364 l 1
 456 1364 l 1
 458 1364 l 1
 458 1119 l 1
 456 1119 l 1
 456 1119 l 1
 446 1119 l 1
 436 1119 l 1
 434 1119 l 1
 424 1119 l 1
 264 1119 l 1
 262 1119 l 1
 262 1119 l 1
 252 1119 l 1
 242 1119 l 1
 240 1119 l 1
 230 1119 l 1
 230 1364 l 1
606 1364 m 1
 616 1364 l 1
 618 1364 l 1
 628 1364 l 1
 638 1364 l 1
 638 1364 l 1
 640 1364 l 1
 800 1364 l 1
 810 1364 l 1
 810 1364 l 1
 820 1364 l 1
 830 1364 l 1
 832 1364 l 1
 832 1364 l 1
 832 1119 l 1
 832 1119 l 1
 830 1119 l 1
 820 1119 l 1
 810 1119 l 1
 810 1119 l 1
 800 1119 l 1
 640 1119 l 1
 638 1119 l 1
 638 1119 l 1
 628 1119 l 1
 618 1119 l 1
 616 1119 l 1
 606 1119 l 1
 606 1364 l 1
EndSplineSet
EndChar

StartChar: afii10072
Encoding: 1078 1078 207
Width: 1385
VWidth: 0
Flags: HW
PickledData: "(dp1
S'com.typemytype.robofont.layerData'
p2
(dp3
s."
LayerCount: 2
Fore
SplineSet
592 603 m 1
 592 1016 l 1
 823 1016 l 1
 823 603 l 1
 1095 1016 l 1
 1387 1016 l 1
 1013 512 l 1
 1404 0 l 1
 1120 0 l 1
 823 415 l 1
 823 0 l 1
 592 0 l 1
 592 415 l 1
 294 0 l 1
 11 0 l 1
 401 512 l 1
 28 1016 l 1
 319 1016 l 1
 592 603 l 1
EndSplineSet
EndChar

StartChar: afii10073
Encoding: 1079 1079 208
Width: 874
VWidth: 0
Flags: HW
PickledData: "(dp1
S'com.typemytype.robofont.layerData'
p2
(dp3
s."
LayerCount: 2
Fore
SplineSet
839 286 m 1
 839 68 656 -18 424 -18 c 0
 273 -18 147 16 67 79 c 1
 118 243 l 1
 183 200 304 169 431 169 c 0
 570 169 620 219 620 305 c 0
 620 368 563 419 458 419 c 2
 253 419 l 1
 253 596 l 1
 458 596 l 2
 551 596 593 647 593 706 c 0
 593 782 539 823 408 823 c 0
 276 823 174 797 120 759 c 1
 62 928 l 1
 144 987 291 1006 410 1006 c 0
 635 1006 813 918 813 736 c 0
 813 647 775 562 687 521 c 1
 776 481 837 386 839 286 c 1
EndSplineSet
EndChar

StartChar: afii10074
Encoding: 1080 1080 209
Width: 1037
VWidth: 0
Flags: HW
PickledData: "(dp1
S'com.typemytype.robofont.layerData'
p2
(dp3
s."
LayerCount: 2
Fore
SplineSet
322 376 m 1
 739 906 l 1
 739 1016 l 1
 969 1016 l 1
 969 0 l 1
 739 0 l 1
 739 558 l 1
 302 0 l 1
 89 0 l 1
 89 1016 l 1
 322 1016 l 1
 322 376 l 1
EndSplineSet
EndChar

StartChar: afii10075
Encoding: 1081 1081 210
Width: 1037
VWidth: 0
Flags: HW
PickledData: "(dp1
S'com.typemytype.robofont.layerData'
p2
(dp3
s."
LayerCount: 2
Fore
SplineSet
322 1016 m 1
 322 376 l 1
 739 906 l 1
 739 1016 l 1
 969 1016 l 1
 969 0 l 1
 739 0 l 1
 739 558 l 1
 302 0 l 1
 89 0 l 1
 89 1016 l 1
 322 1016 l 1
619 1345 m 1
 788 1345 l 1
 788 1179 671 1102 518 1102 c 0
 366 1102 250 1180 250 1345 c 1
 418 1345 l 1
 418 1284 444 1260 518 1260 c 0
 592 1260 619 1284 619 1345 c 1
EndSplineSet
EndChar

StartChar: afii10076
Encoding: 1082 1082 211
Width: 987
VWidth: 0
Flags: HW
PickledData: "(dp1
S'com.typemytype.robofont.layerData'
p2
(dp3
s."
LayerCount: 2
Fore
SplineSet
89 1016 m 1
 336 1016 l 1
 336 634 l 1
 385 686 691 1017 691 1017 c 1
 988 1015 l 1
 988 1015 545 549 512 515 c 1
 1034 0 l 1
 713 0 l 1
 336 373 l 1
 336 0 l 1
 89 0 l 1
 89 1016 l 1
EndSplineSet
EndChar

StartChar: afii10077
Encoding: 1083 1083 212
Width: 1075
VWidth: 0
Flags: HW
PickledData: "(dp1
S'com.typemytype.robofont.layerData'
p2
(dp3
s."
LayerCount: 2
Fore
SplineSet
758 1 m 1
 758 811 l 1
 395 811 l 1
 395 360 l 2
 395 94 267 -16 20 -24 c 0
 11 -25 10 181 10 181 c 1
 141 193 151 219 151 387 c 2
 151 1016 l 1
 1004 1016 l 1
 1004 1 l 1
 758 1 l 1
EndSplineSet
EndChar

StartChar: afii10078
Encoding: 1084 1084 213
Width: 1139
VWidth: 0
Flags: HW
PickledData: "(dp1
S'com.typemytype.robofont.layerData'
p2
(dp3
s."
LayerCount: 2
Fore
SplineSet
850 1016 m 1
 1071 1016 l 1
 1071 0 l 1
 841 0 l 1
 841 628 l 1
 634 309 l 1
 527 309 l 1
 322 627 l 1
 322 0 l 1
 89 0 l 1
 89 1016 l 1
 311 1016 l 1
 580 600 l 1
 850 1016 l 1
EndSplineSet
EndChar

StartChar: afii10079
Encoding: 1085 1085 214
Width: 1047
VWidth: 0
Flags: HW
PickledData: "(dp1
S'com.typemytype.robofont.layerData'
p2
(dp3
s."
LayerCount: 2
Fore
SplineSet
732 641 m 1
 732 1016 l 1
 978 1016 l 1
 978 0 l 1
 732 0 l 1
 732 449 l 1
 336 449 l 1
 336 0 l 1
 89 0 l 1
 89 1016 l 1
 336 1016 l 1
 336 641 l 1
 732 641 l 1
EndSplineSet
EndChar

StartChar: afii10080
Encoding: 1086 1086 215
Width: 1112
VWidth: 0
Flags: HW
PickledData: "(dp1
S'com.typemytype.robofont.layerData'
p2
(dp3
s."
LayerCount: 2
Fore
SplineSet
1079 512 m 0
 1079 185 907 -18 599 -18 c 0
 304 -18 119 190 119 512 c 0
 119 843 291 1041 599 1041 c 0
 896 1041 1079 835 1079 512 c 0
375 511 m 0
 375 290 448 178 599 178 c 0
 749 178 823 289 823 512 c 0
 823 730 750 844 599 844 c 0
 450 844 375 729 375 511 c 0
EndSplineSet
EndChar

StartChar: afii10081
Encoding: 1087 1087 216
Width: 1056
VWidth: 0
Flags: HW
PickledData: "(dp1
S'com.typemytype.robofont.layerData'
p2
(dp3
s."
LayerCount: 2
Fore
SplineSet
732 0 m 1
 732 821 l 1
 343 821 l 1
 343 0 l 1
 97 0 l 1
 97 1016 l 1
 979 1016 l 1
 979 0 l 1
 732 0 l 1
EndSplineSet
EndChar

StartChar: afii10082
Encoding: 1088 1088 217
Width: 1101
VWidth: 0
Flags: HW
PickledData: "(dp1
S'com.typemytype.robofont.layerData'
p2
(dp3
s."
LayerCount: 2
Fore
SplineSet
130 1017 m 1
 349 1017 l 1
 371 906 l 1
 430 976 548 1041 676 1041 c 0
 924 1041 1070 806 1070 513 c 0
 1070 207 915 -18 655 -18 c 0
 540 -18 446 28 379 99 c 1
 382 54 384 13 384 -15 c 2
 384 -395 l 1
 130 -408 l 1
 130 1017 l 1
607 179 m 0
 733 179 817 291 817 515 c 0
 817 746 730 844 603 844 c 0
 467 844 384 755 382 530 c 1
 382 277 463 179 607 179 c 0
EndSplineSet
EndChar

StartChar: afii10083
Encoding: 1089 1089 218
Width: 913
VWidth: 0
Flags: HW
PickledData: "(dp1
S'com.typemytype.robofont.layerData'
p2
(dp3
s."
LayerCount: 2
Fore
SplineSet
119 516 m 0
 119 856 327 1041 604 1041 c 0
 722 1041 819 1013 905 959 c 1
 845 781 l 1
 807 797 768 840 634 840 c 1
 490 833 375 735 375 513 c 0
 375 292 482 190 627 183 c 0
 634 183 640 182 647 182 c 0
 728 182 796 210 862 247 c 1
 895 64 l 1
 859 45 792 -18 601 -18 c 0
 306 -18 119 170 119 516 c 0
EndSplineSet
EndChar

StartChar: afii10084
Encoding: 1090 1090 219
Width: 784
VWidth: 0
Flags: HW
PickledData: "(dp1
S'com.typemytype.robofont.layerData'
p2
(dp3
s."
LayerCount: 2
Fore
SplineSet
797 1016 m 1
 797 837 l 1
 523 837 l 1
 523 0 l 1
 284 0 l 1
 284 837 l 1
 3 837 l 1
 3 1016 l 1
 797 1016 l 1
EndSplineSet
EndChar

StartChar: afii10085
Encoding: 1091 1091 220
Width: 971
VWidth: 0
Flags: HW
PickledData: "(dp1
S'com.typemytype.robofont.layerData'
p2
(dp3
s."
LayerCount: 2
Fore
SplineSet
63 -365 m 1
 36 -172 l 1
 36 -172 314 -183 378 46 c 1
 -12 1016 l 1
 248 1016 l 1
 502 350 l 1
 726 1016 l 1
 991 1016 l 1
 600 -33 l 1
 500 -296 63 -365 63 -365 c 1
EndSplineSet
EndChar

StartChar: afii10086
Encoding: 1092 1092 221
Width: 1303
VWidth: 0
Flags: HW
PickledData: "(dp1
S'com.typemytype.robofont.layerData'
p2
(dp3
s."
LayerCount: 2
Fore
SplineSet
785 -165 m 1
 540 -165 l 1
 540 17 l 1
 516 14 457 13 449 13 c 0
 207 13 70 274 70 511 c 0
 70 751 222 1007 465 1007 c 0
 474 1007 516 1006 540 1003 c 1
 540 1156 l 1
 785 1156 l 1
 785 1003 l 1
 805 1005 852 1007 860 1007 c 0
 1103 1007 1255 750 1255 510 c 0
 1255 272 1116 13 875 13 c 0
 866 13 812 14 785 17 c 1
 785 -165 l 1
453 196 m 0
 462 196 517 196 540 199 c 1
 540 820 l 1
 524 822 474 823 467 823 c 0
 364 823 297 659 297 505 c 0
 297 351 350 196 453 196 c 0
870 196 m 0
 974 196 1027 353 1027 506 c 0
 1027 660 960 824 858 824 c 0
 850 824 805 825 785 821 c 1
 785 200 l 1
 804 197 863 196 870 196 c 0
EndSplineSet
EndChar

StartChar: afii10087
Encoding: 1093 1093 222
Width: 1045
VWidth: 0
Flags: HW
PickledData: "(dp1
S'com.typemytype.robofont.layerData'
p2
(dp3
s."
LayerCount: 2
Fore
SplineSet
785 1017 m 1
 1069 1017 l 1
 730 521 l 1
 1080 0 l 1
 789 0 l 1
 569 355 l 1
 344 0 l 1
 57 0 l 1
 410 520 l 1
 74 1017 l 1
 362 1017 l 1
 569 688 l 1
 785 1017 l 1
EndSplineSet
EndChar

StartChar: afii10088
Encoding: 1094 1094 223
Width: 1059
VWidth: 0
Flags: HW
PickledData: "(dp1
S'com.typemytype.robofont.layerData'
p2
(dp3
s."
LayerCount: 2
Fore
SplineSet
1052 -302 m 1
 845 -302 l 1
 826 0 l 1
 92 0 l 1
 92 1016 l 1
 339 1016 l 1
 339 193 l 1
 697 193 l 1
 697 1016 l 1
 943 1016 l 1
 943 114 l 1
 1052 114 l 1
 1052 -302 l 1
EndSplineSet
EndChar

StartChar: afii10089
Encoding: 1095 1095 224
Width: 1028
VWidth: 0
Flags: HW
PickledData: "(dp1
S'com.typemytype.robofont.layerData'
p2
(dp3
s."
LayerCount: 2
Fore
SplineSet
959 0 m 1
 712 0 l 1
 712 429 l 1
 660 378 575 342 451 342 c 1
 173 345 52 508 52 758 c 2
 52 1016 l 1
 298 1016 l 1
 298 802 l 2
 298 666 319 541 493 541 c 0
 639 541 706 626 712 678 c 1
 712 1016 l 1
 959 1016 l 1
 959 0 l 1
EndSplineSet
EndChar

StartChar: afii10090
Encoding: 1096 1096 225
Width: 1301
VWidth: 0
Flags: HW
PickledData: "(dp1
S'com.typemytype.robofont.layerData'
p2
(dp3
s."
LayerCount: 2
Fore
SplineSet
546 195 m 1
 546 1016 l 1
 777 1016 l 1
 777 195 l 1
 1002 195 l 1
 1002 1016 l 1
 1233 1016 l 1
 1233 0 l 1
 89 0 l 1
 89 1016 l 1
 322 1016 l 1
 322 195 l 1
 546 195 l 1
EndSplineSet
EndChar

StartChar: afii10091
Encoding: 1097 1097 226
Width: 1356
VWidth: 0
Flags: HW
PickledData: "(dp1
S'com.typemytype.robofont.layerData'
p2
(dp3
s."
LayerCount: 2
Fore
SplineSet
1131 -295 m 1
 1117 0 l 1
 89 0 l 1
 89 1016 l 1
 322 1016 l 1
 322 193 l 1
 547 193 l 1
 547 1016 l 1
 777 1016 l 1
 777 193 l 1
 1003 193 l 1
 1003 1016 l 1
 1233 1016 l 1
 1233 113 l 1
 1342 113 l 1
 1342 -295 l 1
 1131 -295 l 1
EndSplineSet
EndChar

StartChar: afii10092
Encoding: 1098 1098 227
Width: 1042
VWidth: 0
Flags: HW
PickledData: "(dp1
S'com.typemytype.robofont.layerData'
p2
(dp3
s."
LayerCount: 2
Fore
SplineSet
190 0 m 1
 190 823 l 1
 -2 823 l 1
 -2 1016 l 1
 434 1016 l 1
 434 647 l 1
 656 647 l 2
 849 647 1014 539 1014 329 c 0
 1014 133 878 0 669 0 c 2
 190 0 l 1
435 188 m 1
 655 188 l 2
 741 188 789 259 789 333 c 0
 789 399 743 467 649 467 c 2
 435 467 l 1
 435 188 l 1
EndSplineSet
EndChar

StartChar: afii10094
Encoding: 1100 1100 228
Width: 927
VWidth: 0
Flags: HW
PickledData: "(dp1
S'com.typemytype.robofont.layerData'
p2
(dp3
s."
LayerCount: 2
Fore
SplineSet
335 1017 m 1
 335 652 l 1
 542 652 l 2
 734 652 899 543 899 332 c 0
 899 136 762 0 554 0 c 2
 89 0 l 1
 89 1017 l 1
 335 1017 l 1
336 470 m 1
 336 188 l 1
 541 188 l 2
 626 188 673 261 673 336 c 0
 673 405 629 470 536 470 c 2
 336 470 l 1
EndSplineSet
EndChar

StartChar: afii10095
Encoding: 1101 1101 229
Width: 868
VWidth: 0
Flags: HW
PickledData: "(dp1
S'com.typemytype.robofont.layerData'
p2
(dp3
s."
LayerCount: 2
Fore
SplineSet
338 -19 m 0
 216 -19 127 12 48 67 c 1
 105 241 l 1
 165 201 240 168 325 168 c 0
 462 168 557 244 585 420 c 1
 153 420 l 1
 153 602 l 1
 585 602 l 1
 560 772 465 844 329 844 c 0
 244 844 151 804 109 774 c 1
 56 946 l 1
 132 1005 226 1034 351 1034 c 0
 606 1034 831 859 831 523 c 0
 831 178 629 -19 338 -19 c 0
EndSplineSet
EndChar

StartChar: afii10096
Encoding: 1102 1102 230
Width: 1360
VWidth: 0
Flags: HW
PickledData: "(dp1
S'com.typemytype.robofont.layerData'
p2
(dp3
s."
LayerCount: 2
Fore
SplineSet
885 -18 m 0
 621 -18 478 175 445 410 c 1
 336 410 l 1
 336 0 l 1
 89 0 l 1
 89 1016 l 1
 336 1016 l 1
 336 610 l 1
 445 610 l 1
 479 850 624 1034 885 1034 c 0
 1178 1034 1325 802 1325 511 c 0
 1325 227 1171 -18 885 -18 c 0
885 168 m 0
 1029 168 1084 326 1084 509 c 0
 1084 703 1034 847 885 847 c 0
 746 847 677 693 677 508 c 0
 677 325 743 168 885 168 c 0
EndSplineSet
EndChar

StartChar: afii10097
Encoding: 1103 1103 231
Width: 992
VWidth: 0
Flags: HW
PickledData: "(dp1
S'com.typemytype.robofont.layerData'
p2
(dp3
s."
LayerCount: 2
Fore
SplineSet
63 0 m 1
 284 430 l 1
 170 475 83 570 83 705 c 0
 83 898 231 1016 438 1016 c 2
 926 1016 l 1
 926 0 l 1
 680 0 l 1
 680 392 l 1
 524 392 l 1
 338 0 l 1
 63 0 l 1
460 588 m 2
 680 588 l 1
 680 813 l 1
 460 813 l 2
 368 813 327 764 327 705 c 1
 327 705 367 588 460 588 c 2
EndSplineSet
EndChar

StartChar: afii10099
Encoding: 1106 1106 232
Width: 974
VWidth: 0
Flags: HW
PickledData: "(dp1
S'com.typemytype.robofont.layerData'
p2
(dp3
s."
LayerCount: 2
Fore
SplineSet
539 -252 m 1
 527 -106 l 1
 574 -106 l 2
 721 -106 734 -86 734 104 c 2
 734 340 l 2
 734 562 706 664 550 664 c 0
 407 664 290 542 266 453 c 1
 266 0 l 1
 96 0 l 1
 96 995 l 1
 13 995 l 1
 13 1119 l 1
 96 1119 l 1
 96 1382 l 1
 266 1382 l 1
 266 1119 l 1
 628 1119 l 1
 628 994 l 1
 266 994 l 1
 266 682 l 1
 340 770 439 824 564 824 c 0
 798 824 902 676 902 414 c 2
 902 155 l 2
 902 -120 879 -252 609 -252 c 2
 539 -252 l 1
EndSplineSet
EndChar

StartChar: afii10100
Encoding: 1107 1107 233
Width: 649
VWidth: 0
Flags: HW
PickledData: "(dp1
S'com.typemytype.robofont.layerData'
p2
(dp3
s."
LayerCount: 2
Fore
SplineSet
625 1016 m 1
 625 819 l 1
 336 819 l 1
 336 0 l 1
 89 0 l 1
 89 1016 l 1
 625 1016 l 1
438 1565 m 1
 730 1565 l 1
 436 1204 l 1
 278 1204 l 1
 438 1565 l 1
EndSplineSet
EndChar

StartChar: afii10101
Encoding: 1108 1108 234
Width: 868
VWidth: 0
Flags: HW
PickledData: "(dp1
S'com.typemytype.robofont.layerData'
p2
(dp3
s."
LayerCount: 2
Fore
SplineSet
825 946 m 1
 830 942 l 1
 783 767 l 1
 772 774 l 1
 711 816 631 845 551 845 c 0
 423 845 321 773 295 609 c 1
 728 609 l 1
 728 428 l 1
 296 428 l 1
 324 256 429 168 560 168 c 0
 631 168 704 192 774 241 c 1
 786 249 l 1
 839 71 l 1
 833 67 l 1
 754 12 664 -19 543 -19 c 0
 252 -19 49 178 49 523 c 0
 49 859 275 1039 529 1039 c 0
 654 1039 749 1004 825 946 c 1
EndSplineSet
EndChar

StartChar: afii10102
Encoding: 1109 1109 235
Width: 860
VWidth: 0
Flags: HW
PickledData: "(dp1
S'com.typemytype.robofont.layerData'
p2
(dp3
s."
LayerCount: 2
Fore
SplineSet
426 -17 m 0
 280 -17 163 9 78 57 c 1
 73 61 l 1
 99 257 l 1
 111 250 l 1
 181 212 318 167 418 167 c 0
 513 167 566 204 568 275 c 1
 568 340 510 361 389 421 c 1
 388 421 l 1
 378 427 348 442 336 448 c 1
 336 447 l 1
 167 526 77 586 76 748 c 1
 76 940 223 1041 449 1041 c 0
 572 1041 681 1017 777 969 c 2
 785 965 l 1
 720 785 l 1
 711 790 l 1
 637 825 541 854 452 854 c 0
 365 854 317 827 317 768 c 0
 317 709 364 694 491 637 c 0
 508 630 528 620 546 612 c 0
 717 540 811 466 811 306 c 0
 811 99 667 -17 426 -17 c 0
EndSplineSet
EndChar

StartChar: afii10103
Encoding: 1110 1110 236
Width: 447
VWidth: 0
Flags: HW
PickledData: "(dp1
S'com.typemytype.robofont.layerData'
p2
(dp3
s."
LayerCount: 2
Fore
SplineSet
384 0 m 1
 130 0 l 1
 130 1017 l 1
 384 1017 l 1
 384 0 l 1
130 1139 m 1
 130 1357 l 1
 384 1357 l 1
 384 1139 l 1
 130 1139 l 1
EndSplineSet
EndChar

StartChar: afii10104
Encoding: 1111 1111 237
Width: 480
VWidth: 0
Flags: HW
PickledData: "(dp1
S'com.typemytype.robofont.layerData'
p2
(dp3
s."
LayerCount: 2
Fore
SplineSet
109 1016 m 1
 356 1016 l 1
 356 0 l 1
 109 0 l 1
 109 1016 l 1
324 1449 m 1
 517 1449 l 1
 517 1204 l 1
 324 1204 l 1
 324 1449 l 1
-52 1449 m 1
 142 1449 l 1
 142 1204 l 1
 -52 1204 l 1
 -52 1449 l 1
EndSplineSet
EndChar

StartChar: afii10105
Encoding: 1112 1112 238
Width: 461
VWidth: 0
Flags: HW
PickledData: "(dp1
S'com.typemytype.robofont.layerData'
p2
(dp3
s."
LayerCount: 2
Fore
SplineSet
24 -379 m 2
 -36 -379 l 1
 -65 -187 l 1
 -3 -187 l 2
 138 -187 151 -149 151 -4 c 2
 151 1017 l 1
 404 1017 l 1
 404 40 l 2
 404 -240 342 -379 24 -379 c 2
404 1139 m 1
 151 1139 l 1
 151 1357 l 1
 404 1357 l 1
 404 1139 l 1
EndSplineSet
EndChar

StartChar: afii10107
Encoding: 1114 1114 239
Width: 1486
VWidth: 0
Flags: HW
PickledData: "(dp1
S'com.typemytype.robofont.layerData'
p2
(dp3
s."
LayerCount: 2
Fore
SplineSet
940 463 m 1
 940 191 l 1
 1100 191 l 2
 1195 191 1246 255 1246 333 c 0
 1246 406 1193 463 1099 463 c 2
 940 463 l 1
696 642 m 1
 696 1016 l 1
 940 1016 l 1
 940 643 l 1
 1111 643 l 2
 1318 643 1457 544 1457 328 c 0
 1457 138 1315 0 1110 0 c 2
 696 0 l 1
 696 437 l 1
 336 437 l 1
 336 0 l 1
 89 0 l 1
 89 1016 l 1
 336 1016 l 1
 336 642 l 1
 696 642 l 1
EndSplineSet
EndChar

StartChar: afii10108
Encoding: 1115 1115 240
Width: 974
VWidth: 0
Flags: HW
PickledData: "(dp1
S'com.typemytype.robofont.layerData'
p2
(dp3
s."
LayerCount: 2
Fore
SplineSet
266 0 m 1
 96 0 l 1
 96 996 l 1
 13 996 l 1
 13 1120 l 1
 96 1120 l 1
 96 1382 l 1
 266 1382 l 1
 266 1120 l 1
 628 1120 l 1
 628 995 l 1
 266 995 l 1
 266 682 l 1
 340 770 439 824 564 824 c 0
 798 824 902 675 902 412 c 2
 902 0 l 1
 734 0 l 1
 734 340 l 2
 734 563 706 664 550 664 c 0
 407 664 290 542 266 453 c 1
 266 0 l 1
EndSplineSet
EndChar

StartChar: afii10109
Encoding: 1116 1116 241
Width: 987
VWidth: 0
Flags: HW
PickledData: "(dp1
S'com.typemytype.robofont.layerData'
p2
(dp3
s."
LayerCount: 2
Fore
SplineSet
89 0 m 1
 89 1016 l 1
 336 1016 l 1
 336 634 l 1
 385 686 691 1017 691 1017 c 1
 988 1015 l 1
 988 1015 545 549 512 515 c 1
 1034 0 l 1
 713 0 l 1
 336 373 l 1
 336 0 l 1
 89 0 l 1
643 1565 m 1
 935 1565 l 1
 640 1204 l 1
 483 1204 l 1
 643 1565 l 1
EndSplineSet
EndChar

StartChar: afii10110
Encoding: 1118 1118 242
Width: 971
VWidth: 0
Flags: HW
PickledData: "(dp1
S'com.typemytype.robofont.layerData'
p2
(dp3
s."
LayerCount: 2
Fore
SplineSet
586 1345 m 1
 755 1345 l 1
 755 1179 638 1102 485 1102 c 0
 333 1102 217 1180 217 1345 c 1
 385 1345 l 1
 385 1284 411 1260 485 1260 c 0
 559 1260 586 1284 586 1345 c 1
36 -172 m 1
 36 -172 38 -172 42 -172 c 0
 83 -172 320 -163 378 46 c 1
 -12 1016 l 1
 248 1016 l 1
 502 350 l 1
 726 1016 l 1
 991 1016 l 1
 600 -33 l 1
 500 -296 63 -365 63 -365 c 1
 36 -172 l 1
EndSplineSet
EndChar

StartChar: afii10193
Encoding: 1119 1119 243
Width: 1017
VWidth: 0
Flags: HW
PickledData: "(dp1
S'com.typemytype.robofont.layerData'
p2
(dp3
s."
LayerCount: 2
Fore
SplineSet
336 1016 m 1
 336 193 l 1
 696 193 l 1
 696 1016 l 1
 943 1016 l 1
 943 0 l 1
 642 0 l 1
 630 -304 l 1
 424 -304 l 1
 415 0 l 1
 89 0 l 1
 89 1016 l 1
 336 1016 l 1
EndSplineSet
EndChar

StartChar: afii57929
Encoding: 700 700 244
Width: 334
VWidth: 0
Flags: HW
PickledData: "(dp1
S'com.typemytype.robofont.layerData'
p2
(dp3
s."
LayerCount: 2
Fore
SplineSet
91 877 m 1
 85 1357 l 1
 287 1357 l 1
 236 877 l 1
 91 877 l 1
EndSplineSet
EndChar

StartChar: afii61352
Encoding: 8470 8470 245
Width: 2438
VWidth: 0
Flags: HW
PickledData: "(dp1
S'com.typemytype.robofont.layerData'
p2
(dp3
s."
LayerCount: 2
Fore
SplineSet
1912 -18 m 0
 1617 -18 1439 200 1439 512 c 0
 1439 833 1613 1041 1921 1041 c 0
 2218 1041 2394 825 2394 512 c 0
 2394 195 2220 -18 1912 -18 c 0
1916 844 m 0
 1767 844 1691 729 1691 511 c 0
 1691 296 1766 178 1917 178 c 0
 2067 178 2141 296 2141 512 c 0
 2141 730 2067 844 1916 844 c 0
1015 384 m 1
 1014 461 996 793 996 801 c 2
 996 1342 l 1
 1282 1342 l 1
 1282 0 l 1
 975 0 l 1
 387 945 l 1
 387 945 415 430 415 409 c 2
 415 0 l 1
 130 0 l 1
 130 1342 l 1
 426 1342 l 1
 1015 384 l 1
EndSplineSet
EndChar

StartChar: agrave
Encoding: 224 224 246
Width: 1137
VWidth: 0
Flags: HW
PickledData: "(dp1
S'com.typemytype.robofont.layerData'
p2
(dp3
s."
LayerCount: 2
Fore
SplineSet
464 -18 m 0
 288 -18 145 77 145 284 c 0
 145 508 300 595 553 621 c 0
 613 628 658 633 723 641 c 1
 723 689 l 2
 723 807 674 852 572 852 c 0
 485 852 344 817 243 776 c 1
 238 790 189 940 183 953 c 1
 304 1004 451 1041 598 1041 c 0
 863 1041 978 927 978 660 c 2
 978 0 l 1
 788 0 l 1
 785 12 762 118 753 153 c 1
 690 60 607 -18 464 -18 c 0
524 162 m 0
 632 162 705 243 722 281 c 1
 722 482 l 1
 702 480 643 473 643 473 c 1
 471 458 401 404 401 287 c 0
 401 208 440 162 524 162 c 0
479 1163 m 1
 168 1524 l 1
 467 1524 l 1
 644 1163 l 1
 479 1163 l 1
EndSplineSet
EndChar

StartChar: alpha
Encoding: 945 945 247
Width: 407
VWidth: 0
Flags: HW
PickledData: "(dp1
S'com.typemytype.robofont.layerData'
p2
(dp3
s."
LayerCount: 2
Fore
SplineSet
215 483 m 0
 131 483 87 547 87 610 c 0
 87 673 131 737 215 737 c 0
 300 737 342 673 342 610 c 0
 342 547 300 483 215 483 c 0
EndSplineSet
EndChar

StartChar: alphatonos
Encoding: 940 940 248
Width: 407
VWidth: 0
Flags: HW
PickledData: "(dp1
S'com.typemytype.robofont.layerData'
p2
(dp3
s."
LayerCount: 2
Fore
SplineSet
215 483 m 0
 131 483 87 547 87 610 c 0
 87 673 131 737 215 737 c 0
 300 737 342 673 342 610 c 0
 342 547 300 483 215 483 c 0
EndSplineSet
EndChar

StartChar: amacron
Encoding: 257 257 249
Width: 1137
VWidth: 0
Flags: HW
PickledData: "(dp1
S'com.typemytype.robofont.layerData'
p2
(dp3
s."
LayerCount: 2
Fore
SplineSet
464 -18 m 0
 288 -18 145 77 145 284 c 0
 145 508 300 595 553 621 c 0
 613 628 658 633 723 641 c 1
 723 689 l 2
 723 807 674 852 572 852 c 0
 485 852 344 817 243 776 c 1
 238 790 189 940 183 953 c 1
 304 1004 451 1041 598 1041 c 0
 863 1041 978 927 978 660 c 2
 978 0 l 1
 788 0 l 1
 785 12 762 118 753 153 c 1
 690 60 607 -18 464 -18 c 0
524 162 m 0
 632 162 705 243 722 281 c 1
 722 482 l 1
 702 480 643 473 643 473 c 1
 471 458 401 404 401 287 c 0
 401 208 440 162 524 162 c 0
237 1163 m 1
 237 1322 l 1
 886 1322 l 1
 886 1163 l 1
 237 1163 l 1
EndSplineSet
EndChar

StartChar: ampersand
Encoding: 38 38 250
Width: 1331
VWidth: 0
Flags: HW
PickledData: "(dp1
S'com.typemytype.robofont.layerData'
p2
(dp3
s."
LayerCount: 2
Fore
SplineSet
587 -1 m 0
 344 -1 115 111 115 389 c 0
 115 585 256 688 409 772 c 1
 341 851 268 936 268 1052 c 0
 268 1263 433 1359 614 1359 c 0
 782 1359 973 1275 973 1068 c 0
 973 898 835 795 697 725 c 1
 989 403 l 1
 1034 456 1083 533 1117 597 c 1
 1286 488 l 1
 1246 409 1189 322 1130 256 c 1
 1319 57 l 1
 1111 4 l 1
 987 134 l 1
 872 49 733 -1 587 -1 c 0
592 178 m 0
 687 178 782 210 854 266 c 1
 805 320 569 578 522 630 c 1
 422 574 340 518 340 399 c 0
 340 247 450 178 592 178 c 0
581 863 m 1
 668 911 754 968 754 1067 c 0
 754 1151 698 1189 621 1189 c 0
 538 1189 483 1150 483 1061 c 0
 483 984 524 924 581 863 c 1
EndSplineSet
EndChar

StartChar: aogonek
Encoding: 261 261 251
Width: 1137
VWidth: 0
Flags: HW
PickledData: "(dp1
S'com.typemytype.robofont.layerData'
p2
(dp3
s."
LayerCount: 2
Fore
SplineSet
464 -18 m 0
 288 -18 145 77 145 284 c 0
 145 508 300 595 553 621 c 0
 613 628 658 633 723 641 c 1
 723 689 l 2
 723 807 674 852 572 852 c 0
 485 852 344 817 243 776 c 1
 238 790 189 940 183 953 c 1
 304 1004 451 1041 598 1041 c 0
 863 1041 978 927 978 660 c 2
 978 0 l 1
 788 0 l 1
 785 12 762 118 753 153 c 1
 690 60 607 -18 464 -18 c 0
524 162 m 0
 632 162 705 243 722 281 c 1
 722 482 l 1
 702 480 643 473 643 473 c 1
 471 458 401 404 401 287 c 0
 401 208 440 162 524 162 c 0
809 -411 m 0
 705 -411 614 -357 614 -243 c 0
 614 -120 717 -45 788 -4 c 1
 895 -20 l 1
 821 -77 789 -141 789 -196 c 0
 789 -230 815 -265 853 -265 c 0
 905 -265 964 -239 976 -234 c 0
 977 -234 984 -375 984 -375 c 1
 929 -396 868 -411 809 -411 c 0
EndSplineSet
EndChar

StartChar: approxequal
Encoding: 8776 8776 252
Width: 1151
VWidth: 0
Flags: HW
PickledData: "(dp1
S'com.typemytype.robofont.layerData'
p2
(dp3
s."
LayerCount: 2
Fore
SplineSet
212 104 m 1
 114 226 l 1
 158 335 241 421 383 421 c 0
 464 421 548 390 620 357 c 1
 695 321 753 299 803 299 c 0
 871 299 925 333 999 421 c 1
 1087 305 l 1
 1044 206 929 110 789 110 c 0
 700 110 634 139 543 183 c 1
 485 213 439 234 376 234 c 0
 295 234 245 176 212 104 c 1
212 472 m 1
 114 594 l 1
 157 703 240 789 382 789 c 0
 462 789 546 759 622 723 c 1
 699 685 752 667 803 667 c 0
 871 667 926 700 998 789 c 1
 1087 673 l 1
 1044 573 928 478 788 478 c 0
 699 478 633 507 543 551 c 1
 485 581 438 602 375 602 c 0
 295 602 244 544 212 472 c 1
EndSplineSet
EndChar

StartChar: aring
Encoding: 229 229 253
Width: 1137
VWidth: 0
Flags: HW
PickledData: "(dp1
S'com.typemytype.robofont.layerData'
p2
(dp3
s."
LayerCount: 2
Fore
SplineSet
464 -18 m 0
 288 -18 145 77 145 284 c 0
 145 508 300 595 553 621 c 0
 613 628 658 633 723 641 c 1
 723 689 l 2
 723 807 674 852 572 852 c 0
 485 852 344 817 243 776 c 1
 238 790 189 940 183 953 c 1
 304 1004 451 1041 598 1041 c 0
 863 1041 978 927 978 660 c 2
 978 0 l 1
 788 0 l 1
 785 12 762 118 753 153 c 1
 690 60 607 -18 464 -18 c 0
524 162 m 0
 632 162 705 243 722 281 c 1
 722 482 l 1
 702 480 643 473 643 473 c 1
 471 458 401 404 401 287 c 0
 401 208 440 162 524 162 c 0
562 1264 m 0
 617 1264 648 1308 648 1359 c 0
 648 1408 617 1454 562 1454 c 0
 509 1454 476 1407 476 1359 c 0
 476 1307 505 1264 562 1264 c 0
562 1163 m 0
 433 1163 356 1256 356 1359 c 0
 356 1462 432 1554 562 1554 c 0
 693 1554 768 1461 768 1359 c 0
 768 1256 691 1163 562 1163 c 0
EndSplineSet
EndChar

StartChar: aringacute
Encoding: 507 507 254
Width: 1137
VWidth: 0
Flags: HW
PickledData: "(dp1
S'com.typemytype.robofont.layerData'
p2
(dp3
s."
LayerCount: 2
Fore
SplineSet
464 -18 m 0
 288 -18 145 77 145 284 c 0
 145 508 300 595 553 621 c 0
 613 628 658 633 723 641 c 1
 723 689 l 2
 723 807 674 852 572 852 c 0
 485 852 344 817 243 776 c 1
 238 790 189 940 183 953 c 1
 304 1004 451 1041 598 1041 c 0
 863 1041 978 927 978 660 c 2
 978 0 l 1
 788 0 l 1
 785 12 762 118 753 153 c 1
 690 60 607 -18 464 -18 c 0
524 162 m 0
 632 162 705 243 722 281 c 1
 722 482 l 1
 702 480 643 473 643 473 c 1
 471 458 401 404 401 287 c 0
 401 208 440 162 524 162 c 0
562 1264 m 0
 617 1264 648 1308 648 1359 c 0
 648 1408 617 1454 562 1454 c 0
 509 1454 476 1407 476 1359 c 0
 476 1307 505 1264 562 1264 c 0
562 1163 m 0
 433 1163 356 1256 356 1359 c 0
 356 1462 432 1554 562 1554 c 0
 693 1554 768 1461 768 1359 c 0
 768 1256 691 1163 562 1163 c 0
483 1676 m 1
 643 2037 l 1
 935 2037 l 1
 640 1676 l 1
 483 1676 l 1
EndSplineSet
EndChar

StartChar: asciicircum
Encoding: 94 94 255
Width: 1081
VWidth: 0
Flags: HW
PickledData: "(dp1
S'com.typemytype.robofont.layerData'
p2
(dp3
s."
LayerCount: 2
Fore
SplineSet
46 491 m 1
 465 1347 l 1
 590 1347 l 1
 1035 491 l 1
 826 491 l 1
 529 1075 l 1
 255 491 l 1
 46 491 l 1
EndSplineSet
EndChar

StartChar: asciitilde
Encoding: 126 126 256
Width: 1139
VWidth: 0
Flags: HW
PickledData: "(dp1
S'com.typemytype.robofont.layerData'
p2
(dp3
s."
LayerCount: 2
Fore
SplineSet
196 433 m 1
 112 571 l 1
 159 667 237 750 375 750 c 0
 453 750 534 724 610 691 c 0
 689 656 747 635 797 635 c 0
 864 635 925 670 999 753 c 1
 1077 620 l 1
 1029 530 915 443 783 443 c 0
 696 443 632 470 547 508 c 1
 482 539 431 561 367 561 c 0
 289 561 232 500 196 433 c 1
EndSplineSet
EndChar

StartChar: asterisk
Encoding: 42 42 257
Width: 1093
VWidth: 0
Flags: HW
PickledData: "(dp1
S'com.typemytype.robofont.layerData'
p2
(dp3
s."
LayerCount: 2
Fore
SplineSet
167 1117 m 1
 466 993 l 1
 435 1336 l 1
 656 1336 l 1
 627 993 l 1
 929 1117 l 1
 990 904 l 1
 683 836 l 1
 721 788 896 568 896 568 c 1
 700 456 l 1
 545 741 l 1
 397 458 l 1
 196 568 l 1
 409 836 l 1
 103 904 l 1
 167 1117 l 1
EndSplineSet
EndChar

StartChar: at
Encoding: 64 64 258
Width: 1742
VWidth: 0
Flags: HW
PickledData: "(dp1
S'com.typemytype.robofont.layerData'
p2
(dp3
s."
LayerCount: 2
Fore
SplineSet
855 -119 m 0
 434 -119 132 157 132 596 c 0
 132 1034 466 1358 915 1358 c 0
 1304 1358 1610 1106 1610 713 c 0
 1610 400 1420 243 1265 243 c 0
 1165 243 1075 309 1051 440 c 1
 1029 352 914 244 796 244 c 0
 603 244 514 390 514 554 c 0
 514 763 659 1000 918 1000 c 0
 1004 1000 1144 975 1221 930 c 1
 1196 750 1162 586 1162 476 c 0
 1162 410 1209 368 1266 368 c 0
 1352 368 1461 465 1461 721 c 0
 1461 960 1317 1225 907 1225 c 0
 507 1225 300 902 300 590 c 0
 300 298 481 15 856 15 c 0
 1003 15 1164 50 1283 118 c 1
 1325 -3 l 1
 1210 -80 1026 -119 855 -119 c 0
813 360 m 0
 949 360 994 487 1016 664 c 0
 1025 732 1033 803 1040 872 c 1
 1005 884 973 890 942 890 c 0
 776 890 675 723 675 549 c 0
 675 446 718 360 813 360 c 0
EndSplineSet
EndChar

StartChar: atilde
Encoding: 227 227 259
Width: 1137
VWidth: 0
Flags: HW
PickledData: "(dp1
S'com.typemytype.robofont.layerData'
p2
(dp3
s."
LayerCount: 2
Fore
SplineSet
464 -18 m 0
 288 -18 145 77 145 284 c 0
 145 508 300 595 553 621 c 0
 613 628 658 633 723 641 c 1
 723 689 l 2
 723 807 674 852 572 852 c 0
 485 852 344 817 243 776 c 1
 238 790 189 940 183 953 c 1
 304 1004 451 1041 598 1041 c 0
 863 1041 978 927 978 660 c 2
 978 0 l 1
 788 0 l 1
 785 12 762 118 753 153 c 1
 690 60 607 -18 464 -18 c 0
524 162 m 0
 632 162 705 243 722 281 c 1
 722 482 l 1
 702 480 643 473 643 473 c 1
 471 458 401 404 401 287 c 0
 401 208 440 162 524 162 c 0
246 1173 m 1
 246 1267 260 1405 408 1405 c 0
 529 1405 664 1320 695 1320 c 1
 715 1321 727 1405 727 1405 c 1
 877 1405 l 1
 877 1405 867 1163 719 1163 c 0
 618 1163 485 1253 428 1253 c 0
 407 1253 393 1163 393 1163 c 1
 246 1173 l 1
EndSplineSet
EndChar

StartChar: b
Encoding: 98 98 260
Width: 1236
VWidth: 0
Flags: HW
PickledData: "(dp1
S'com.typemytype.robofont.layerData'
p2
(dp3
s."
LayerCount: 2
Fore
SplineSet
705 -18 m 0
 572 -18 471 50 417 127 c 1
 397 1 l 1
 176 1 l 1
 176 1376 l 1
 432 1393 l 1
 432 1079 l 2
 432 1028 428 974 426 908 c 1
 477 969 565 1041 709 1041 c 0
 968 1041 1118 819 1118 519 c 0
 1118 202 958 -18 705 -18 c 0
648 179 m 0
 773 179 862 290 862 516 c 0
 862 744 776 845 651 845 c 0
 516 845 429 757 427 527 c 1
 427 277 506 179 648 179 c 0
EndSplineSet
EndChar

StartChar: backslash
Encoding: 92 92 261
Width: 843
VWidth: 0
Flags: HW
PickledData: "(dp1
S'com.typemytype.robofont.layerData'
p2
(dp3
s."
LayerCount: 2
Fore
SplineSet
539 0 m 1
 98 1336 l 1
 329 1336 l 1
 765 0 l 1
 539 0 l 1
EndSplineSet
EndChar

StartChar: bar
Encoding: 124 124 262
Width: 605
VWidth: 0
Flags: HW
PickledData: "(dp1
S'com.typemytype.robofont.layerData'
p2
(dp3
s."
LayerCount: 2
Fore
SplineSet
213 -256 m 1
 213 1456 l 1
 414 1456 l 1
 414 -256 l 1
 213 -256 l 1
EndSplineSet
EndChar

StartChar: beta
Encoding: 946 946 263
Width: 407
VWidth: 0
Flags: HW
PickledData: "(dp1
S'com.typemytype.robofont.layerData'
p2
(dp3
s."
LayerCount: 2
Fore
SplineSet
215 483 m 0
 131 483 87 547 87 610 c 0
 87 673 131 737 215 737 c 0
 300 737 342 673 342 610 c 0
 342 547 300 483 215 483 c 0
EndSplineSet
EndChar

StartChar: braceleft
Encoding: 123 123 264
Width: 691
VWidth: 0
Flags: HW
PickledData: "(dp1
S'com.typemytype.robofont.layerData'
p2
(dp3
s."
LayerCount: 2
Fore
SplineSet
240 277 m 2
 240 413 204 458 49 458 c 2
 39 458 l 1
 39 671 l 1
 49 671 l 1
 211 672 240 711 240 849 c 2
 240 1112 l 2
 240 1325 377 1383 630 1383 c 2
 640 1383 l 1
 640 1183 l 1
 630 1183 l 1
 504 1181 485 1150 485 1037 c 2
 485 796 l 1
 483 676 432 613 318 564 c 1
 424 533 485 461 485 340 c 2
 485 97 l 2
 485 -16 503 -45 630 -47 c 1
 640 -47 l 1
 640 -245 l 1
 630 -245 l 2
 373 -245 240 -186 240 30 c 2
 240 277 l 2
EndSplineSet
EndChar

StartChar: braceright
Encoding: 125 125 265
Width: 691
VWidth: 0
Flags: HW
PickledData: "(dp1
S'com.typemytype.robofont.layerData'
p2
(dp3
s."
LayerCount: 2
Fore
SplineSet
80 -245 m 1
 80 -47 l 1
 206 -45 224 -17 224 97 c 2
 224 340 l 2
 224 462 282 525 392 564 c 1
 281 605 226 675 224 796 c 1
 224 1037 l 2
 224 1151 207 1181 80 1183 c 1
 80 1383 l 1
 336 1383 469 1326 469 1104 c 2
 469 848 l 2
 469 712 500 672 661 671 c 1
 661 458 l 1
 506 458 469 416 469 277 c 2
 469 22 l 2
 469 -189 339 -245 80 -245 c 1
EndSplineSet
EndChar

StartChar: bracketleft
Encoding: 91 91 266
Width: 756
VWidth: 0
Flags: HW
PickledData: "(dp1
S'com.typemytype.robofont.layerData'
p2
(dp3
s."
LayerCount: 2
Fore
SplineSet
443 1254 m 1
 443 73 l 1
 630 73 l 1
 630 -108 l 1
 198 -108 l 1
 198 1434 l 1
 630 1434 l 1
 630 1254 l 1
 443 1254 l 1
EndSplineSet
EndChar

StartChar: bracketright
Encoding: 93 93 267
Width: 756
VWidth: 0
Flags: HW
PickledData: "(dp1
S'com.typemytype.robofont.layerData'
p2
(dp3
s."
LayerCount: 2
Fore
SplineSet
313 72 m 1
 313 1253 l 1
 126 1253 l 1
 126 1434 l 1
 558 1434 l 1
 558 -108 l 1
 126 -108 l 1
 126 72 l 1
 313 72 l 1
EndSplineSet
EndChar

StartChar: breve
Encoding: 728 728 268
Width: 622
VWidth: 0
Flags: HW
PickledData: "(dp1
S'com.typemytype.robofont.layerData'
p2
(dp3
s."
LayerCount: 2
Fore
SplineSet
586 1345 m 1
 586 1179 469 1102 316 1102 c 0
 164 1102 48 1180 48 1345 c 1
 216 1345 l 1
 216 1284 242 1260 316 1260 c 0
 390 1260 417 1284 417 1345 c 1
 586 1345 l 1
EndSplineSet
EndChar

StartChar: brokenbar
Encoding: 166 166 269
Width: 718
VWidth: 0
Flags: HW
PickledData: "(dp1
S'com.typemytype.robofont.layerData'
p2
(dp3
s."
LayerCount: 2
Fore
SplineSet
266 -337 m 1
 266 331 l 1
 467 331 l 1
 467 -337 l 1
 266 -337 l 1
266 739 m 1
 266 1406 l 1
 467 1406 l 1
 467 739 l 1
 266 739 l 1
EndSplineSet
EndChar

StartChar: bullet
Encoding: 8226 8226 270
Width: 871
VWidth: 0
Flags: HW
PickledData: "(dp1
S'com.typemytype.robofont.layerData'
p2
(dp3
s."
LayerCount: 2
Fore
SplineSet
443 324 m 0
 258 324 121 457 121 635 c 0
 121 813 264 950 448 950 c 0
 631 950 769 819 769 641 c 0
 769 462 628 324 443 324 c 0
EndSplineSet
EndChar

StartChar: c
Encoding: 99 99 271
Width: 1024
VWidth: 0
Flags: HW
PickledData: "(dp1
S'com.typemytype.robofont.layerData'
p2
(dp3
s."
LayerCount: 2
Fore
SplineSet
612 -18 m 0
 317 -18 118 170 118 516 c 0
 118 856 338 1041 615 1041 c 0
 738 1041 834 1015 916 959 c 1
 856 781 l 1
 826 799 754 840 645 840 c 0
 501 840 374 735 374 513 c 0
 374 292 493 190 638 183 c 0
 728 178 802 207 873 247 c 1
 906 64 l 1
 874 41 797 -18 612 -18 c 0
EndSplineSet
EndChar

StartChar: cacute
Encoding: 263 263 272
Width: 993
VWidth: 0
Flags: HW
PickledData: "(dp1
S'com.typemytype.robofont.layerData'
p2
(dp3
s."
LayerCount: 2
Fore
SplineSet
601 -18 m 0
 306 -18 119 170 119 516 c 0
 119 856 327 1041 604 1041 c 0
 722 1041 819 1013 905 959 c 1
 845 781 l 1
 807 797 768 840 634 840 c 1
 490 833 375 735 375 513 c 0
 375 292 482 190 627 183 c 0
 717 178 791 207 862 247 c 1
 895 64 l 1
 859 45 792 -18 601 -18 c 0
434 1163 m 1
 594 1524 l 1
 886 1524 l 1
 590 1163 l 1
 434 1163 l 1
EndSplineSet
EndChar

StartChar: caron
Encoding: 711 711 273
Width: 679
VWidth: 0
Flags: HW
PickledData: "(dp1
S'com.typemytype.robofont.layerData'
p2
(dp3
s."
LayerCount: 2
Fore
SplineSet
271 1076 m 1
 23 1413 l 1
 224 1413 l 1
 354 1242 l 1
 504 1413 l 1
 709 1413 l 1
 461 1076 l 1
 271 1076 l 1
EndSplineSet
EndChar

StartChar: ccaron
Encoding: 269 269 274
Width: 993
VWidth: 0
Flags: HW
PickledData: "(dp1
S'com.typemytype.robofont.layerData'
p2
(dp3
s."
LayerCount: 2
Fore
SplineSet
601 -18 m 0
 306 -18 119 170 119 516 c 0
 119 856 327 1041 604 1041 c 0
 722 1041 819 1013 905 959 c 1
 845 781 l 1
 807 797 768 840 634 840 c 1
 490 833 375 735 375 513 c 0
 375 292 482 190 627 183 c 0
 717 178 791 207 862 247 c 1
 895 64 l 1
 859 45 792 -18 601 -18 c 0
417 1163 m 1
 169 1500 l 1
 370 1500 l 1
 500 1329 l 1
 650 1500 l 1
 855 1500 l 1
 607 1163 l 1
 417 1163 l 1
EndSplineSet
EndChar

StartChar: ccedilla
Encoding: 231 231 275
Width: 993
VWidth: 0
Flags: HW
PickledData: "(dp1
S'com.typemytype.robofont.layerData'
p2
(dp3
s."
LayerCount: 2
Fore
SplineSet
601 -18 m 0
 595 -18 590 -18 584 -18 c 1
 532 -363 l 1
 322 -363 l 1
 438 -6 l 1
 479 -6 l 1
 255 40 119 220 119 516 c 0
 119 856 327 1041 604 1041 c 0
 722 1041 819 1013 905 959 c 1
 845 781 l 1
 807 797 768 840 634 840 c 1
 490 833 375 735 375 513 c 0
 375 292 482 190 627 183 c 0
 717 178 791 207 862 247 c 1
 895 64 l 1
 859 45 792 -18 601 -18 c 0
EndSplineSet
EndChar

StartChar: ccircumflex
Encoding: 265 265 276
Width: 993
VWidth: 0
Flags: HW
PickledData: "(dp1
S'com.typemytype.robofont.layerData'
p2
(dp3
s."
LayerCount: 2
Fore
SplineSet
601 -18 m 0
 306 -18 119 170 119 516 c 0
 119 856 327 1041 604 1041 c 0
 722 1041 819 1013 905 959 c 1
 845 781 l 1
 807 797 768 840 634 840 c 1
 490 833 375 735 375 513 c 0
 375 292 482 190 627 183 c 0
 717 178 791 207 862 247 c 1
 895 64 l 1
 859 45 792 -18 601 -18 c 0
178 1163 m 1
 414 1531 l 1
 610 1531 l 1
 846 1163 l 1
 660 1163 l 1
 502 1357 l 1
 360 1163 l 1
 178 1163 l 1
EndSplineSet
EndChar

StartChar: cdotaccent
Encoding: 267 267 277
Width: 993
VWidth: 0
Flags: HW
PickledData: "(dp1
S'com.typemytype.robofont.layerData'
p2
(dp3
s."
LayerCount: 2
Fore
SplineSet
601 -18 m 0
 306 -18 119 170 119 516 c 0
 119 856 327 1041 604 1041 c 0
 722 1041 819 1013 905 959 c 1
 845 781 l 1
 807 797 768 840 634 840 c 1
 490 833 375 735 375 513 c 0
 375 292 482 190 627 183 c 0
 717 178 791 207 862 247 c 1
 895 64 l 1
 859 45 792 -18 601 -18 c 0
413 1163 m 1
 413 1375 l 1
 611 1375 l 1
 611 1163 l 1
 413 1163 l 1
EndSplineSet
EndChar

StartChar: cedilla
Encoding: 184 184 278
Width: 514
VWidth: 0
Flags: HW
PickledData: "(dp1
S'com.typemytype.robofont.layerData'
p2
(dp3
s."
LayerCount: 2
Fore
SplineSet
46 -297 m 1
 162 60 l 1
 309 60 l 1
 255 -297 l 1
 46 -297 l 1
EndSplineSet
EndChar

StartChar: cent
Encoding: 162 162 279
Width: 945
VWidth: 0
Flags: HW
PickledData: "(dp1
S'com.typemytype.robofont.layerData'
p2
(dp3
s."
LayerCount: 2
Fore
SplineSet
500 -183 m 1
 500 47 l 1
 244 71 67 258 67 574 c 1
 68 880 262 1051 500 1070 c 1
 500 1266 l 1
 605 1266 l 1
 605 1068 l 1
 698 1059 772 1031 833 985 c 1
 781 815 l 1
 743 842 676 870 605 880 c 1
 605 235 l 1
 675 243 739 272 784 304 c 1
 842 132 l 1
 774 84 700 55 605 47 c 1
 605 -183 l 1
 500 -183 l 1
500 250 m 1
 500 885 l 1
 390 861 307 766 307 576 c 0
 307 384 382 280 500 250 c 1
EndSplineSet
EndChar

StartChar: chi
Encoding: 967 967 280
Width: 1015
VWidth: 0
Flags: HW
PickledData: "(dp1
S'com.typemytype.robofont.layerData'
p2
(dp3
s."
LayerCount: 2
Fore
SplineSet
540 688 m 1
 756 1017 l 1
 1040 1017 l 1
 701 521 l 1
 1051 0 l 1
 760 0 l 1
 540 355 l 1
 315 0 l 1
 28 0 l 1
 381 520 l 1
 45 1017 l 1
 333 1017 l 1
 540 688 l 1
EndSplineSet
EndChar

StartChar: circumflex
Encoding: 710 710 281
Width: 680
VWidth: 0
Flags: HW
PickledData: "(dp1
S'com.typemytype.robofont.layerData'
p2
(dp3
s."
LayerCount: 2
Fore
SplineSet
31 1045 m 1
 266 1413 l 1
 462 1413 l 1
 698 1045 l 1
 512 1045 l 1
 354 1239 l 1
 212 1045 l 1
 31 1045 l 1
EndSplineSet
EndChar

StartChar: colon
Encoding: 58 58 282
Width: 638
VWidth: 0
Flags: HW
PickledData: "(dp1
S'com.typemytype.robofont.layerData'
p2
(dp3
s."
LayerCount: 2
Fore
SplineSet
191 0 m 1
 191 266 l 1
 447 266 l 1
 447 0 l 1
 191 0 l 1
191 761 m 1
 191 1016 l 1
 447 1016 l 1
 447 761 l 1
 191 761 l 1
EndSplineSet
EndChar

StartChar: comma
Encoding: 44 44 283
Width: 528
VWidth: 0
Flags: HW
PickledData: "(dp1
S'com.typemytype.robofont.layerData'
p2
(dp3
s."
LayerCount: 2
Fore
SplineSet
310 -233 m 1
 133 -233 l 1
 221 245 l 1
 458 245 l 1
 453 190 l 1
 310 -233 l 1
EndSplineSet
EndChar

StartChar: copyright
Encoding: 169 169 284
Width: 1533
VWidth: 0
Flags: HW
PickledData: "(dp1
S'com.typemytype.robofont.layerData'
p2
(dp3
s."
LayerCount: 2
Fore
SplineSet
759 236 m 0
 519 236 342 422 342 679 c 0
 342 929 511 1129 758 1129 c 0
 867 1129 960 1104 1034 1054 c 1
 981 946 l 1
 917 984 835 1003 769 1003 c 0
 599 1003 491 874 491 679 c 0
 491 487 600 361 772 361 c 0
 838 361 923 381 986 419 c 1
 1035 310 l 1
 963 263 868 236 759 236 c 0
771 108 m 0
 1107 108 1350 367 1350 687 c 0
 1350 1007 1106 1268 770 1268 c 0
 439 1268 195 1007 195 688 c 0
 195 367 439 108 771 108 c 0
771 0 m 0
 396 0 72 285 72 688 c 0
 72 1091 395 1377 770 1377 c 0
 1148 1377 1472 1090 1472 688 c 0
 1472 285 1150 0 771 0 c 0
EndSplineSet
EndChar

StartChar: currency
Encoding: 164 164 285
Width: 1017
VWidth: 0
Flags: HW
PickledData: "(dp1
S'com.typemytype.robofont.layerData'
p2
(dp3
s."
LayerCount: 2
Fore
SplineSet
999 308 m 1
 906 210 l 1
 739 366 l 1
 677 320 602 291 519 291 c 0
 434 291 359 317 296 365 c 1
 136 211 l 1
 38 306 l 1
 203 464 l 1
 164 525 139 597 139 675 c 0
 139 752 162 822 203 887 c 1
 37 1046 l 1
 136 1142 l 1
 298 987 l 1
 359 1032 437 1060 519 1060 c 0
 603 1060 675 1034 739 985 c 1
 906 1142 l 1
 1000 1045 l 1
 835 887 l 1
 874 826 899 753 899 675 c 0
 899 597 877 528 836 464 c 1
 999 308 l 1
519 434 m 0
 651 434 757 541 757 675 c 0
 757 809 650 917 519 917 c 0
 389 917 283 808 283 675 c 0
 283 541 389 434 519 434 c 0
EndSplineSet
EndChar

StartChar: d
Encoding: 100 100 286
Width: 1236
VWidth: 0
Flags: HW
PickledData: "(dp1
S'com.typemytype.robofont.layerData'
p2
(dp3
s."
LayerCount: 2
Fore
SplineSet
539 -17 m 0
 278 -17 118 200 118 517 c 0
 118 826 277 1041 539 1041 c 0
 691 1041 768 978 812 920 c 1
 808 963 804 1017 804 1052 c 2
 804 1376 l 1
 1060 1393 l 1
 1060 0 l 1
 840 0 l 1
 816 117 l 1
 776 55 708 -17 539 -17 c 0
595 179 m 0
 734 179 813 267 815 497 c 1
 815 748 738 843 593 843 c 0
 468 843 374 742 374 512 c 0
 374 285 467 179 595 179 c 0
EndSplineSet
EndChar

StartChar: dagger
Encoding: 8224 8224 287
Width: 856
VWidth: 0
Flags: HW
PickledData: "(dp1
S'com.typemytype.robofont.layerData'
p2
(dp3
s."
LayerCount: 2
Fore
SplineSet
335 1052 m 1
 335 1360 l 1
 526 1360 l 1
 526 1052 l 1
 822 1052 l 1
 822 872 l 1
 518 872 l 1
 518 102 l 1
 335 102 l 1
 335 872 l 1
 54 872 l 1
 54 1052 l 1
 335 1052 l 1
EndSplineSet
EndChar

StartChar: daggerdbl
Encoding: 8225 8225 288
Width: 870
VWidth: 0
Flags: HW
PickledData: "(dp1
S'com.typemytype.robofont.layerData'
p2
(dp3
s."
LayerCount: 2
Fore
SplineSet
352 498 m 1
 352 863 l 1
 109 863 l 1
 109 1037 l 1
 352 1037 l 1
 352 1354 l 1
 543 1354 l 1
 543 1037 l 1
 788 1037 l 1
 788 863 l 1
 543 863 l 1
 544 498 l 1
 785 498 l 1
 785 335 l 1
 544 335 l 1
 544 -23 l 1
 352 -23 l 1
 352 335 l 1
 107 335 l 1
 107 498 l 1
 352 498 l 1
EndSplineSet
EndChar

StartChar: dcaron
Encoding: 271 271 289
Width: 1218
VWidth: 0
Flags: HW
PickledData: "(dp1
S'com.typemytype.robofont.layerData'
p2
(dp3
s."
LayerCount: 2
Fore
SplineSet
534 -17 m 0
 273 -17 118 200 118 517 c 0
 118 826 272 1041 534 1041 c 0
 686 1041 767 978 811 920 c 1
 807 963 803 1017 803 1052 c 2
 803 1376 l 1
 1059 1393 l 1
 1059 0 l 1
 839 0 l 1
 815 117 l 1
 775 55 703 -17 534 -17 c 0
590 179 m 0
 729 179 812 267 814 497 c 1
 814 748 733 843 588 843 c 0
 463 843 374 742 374 512 c 0
 374 285 462 179 590 179 c 0
1248 913 m 1
 1242 1393 l 1
 1444 1393 l 1
 1393 913 l 1
 1248 913 l 1
EndSplineSet
EndChar

StartChar: degree
Encoding: 176 176 290
Width: 748
VWidth: 0
Flags: HW
PickledData: "(dp1
S'com.typemytype.robofont.layerData'
p2
(dp3
s."
LayerCount: 2
Fore
SplineSet
384 908 m 0
 454 908 519 961 519 1052 c 0
 519 1141 454 1191 385 1191 c 0
 314 1191 247 1141 247 1052 c 0
 247 961 314 908 384 908 c 0
384 774 m 0
 197 774 93 913 93 1057 c 0
 93 1204 200 1332 384 1332 c 0
 565 1332 673 1204 673 1057 c 0
 673 914 570 774 384 774 c 0
EndSplineSet
EndChar

StartChar: delta
Encoding: 948 948 291
Width: 407
VWidth: 0
Flags: HW
PickledData: "(dp1
S'com.typemytype.robofont.layerData'
p2
(dp3
s."
LayerCount: 2
Fore
SplineSet
215 483 m 0
 131 483 87 547 87 610 c 0
 87 673 131 737 215 737 c 0
 300 737 342 673 342 610 c 0
 342 547 300 483 215 483 c 0
EndSplineSet
EndChar

StartChar: dieresis
Encoding: 168 168 292
Width: 679
VWidth: 0
Flags: HW
PickledData: "(dp1
S'com.typemytype.robofont.layerData'
p2
(dp3
s."
LayerCount: 2
Fore
SplineSet
63 1119 m 1
 63 1364 l 1
 257 1364 l 1
 257 1119 l 1
 63 1119 l 1
439 1119 m 1
 439 1364 l 1
 632 1364 l 1
 632 1119 l 1
 439 1119 l 1
EndSplineSet
EndChar

StartChar: dieresistonos
Encoding: 901 901 293
Width: 407
VWidth: 0
Flags: HW
PickledData: "(dp1
S'com.typemytype.robofont.layerData'
p2
(dp3
s."
LayerCount: 2
Fore
SplineSet
215 483 m 0
 131 483 87 547 87 610 c 0
 87 673 131 737 215 737 c 0
 300 737 342 673 342 610 c 0
 342 547 300 483 215 483 c 0
EndSplineSet
EndChar

StartChar: divide
Encoding: 247 247 294
Width: 1282
VWidth: 0
Flags: HW
PickledData: "(dp1
S'com.typemytype.robofont.layerData'
p2
(dp3
s."
LayerCount: 2
Fore
SplineSet
519 18 m 1
 519 279 l 1
 779 279 l 1
 779 18 l 1
 519 18 l 1
154 444 m 1
 154 630 l 1
 1142 630 l 1
 1142 444 l 1
 154 444 l 1
519 797 m 1
 519 1047 l 1
 787 1047 l 1
 787 797 l 1
 519 797 l 1
EndSplineSet
EndChar

StartChar: dollar
Encoding: 36 36 295
Width: 1174
VWidth: 0
Flags: HW
PickledData: "(dp1
S'com.typemytype.robofont.layerData'
p2
(dp3
s."
LayerCount: 2
Fore
SplineSet
544 841 m 1
 544 1123 l 1
 457 1109 409 1066 409 980 c 0
 409 915 446 873 507 853 c 2
 544 841 l 1
663 220 m 1
 666 220 l 1
 744 241 782 293 782 385 c 0
 782 454 739 500 663 532 c 1
 663 220 l 1
663 -148 m 1
 544 -148 l 1
 544 -17 l 1
 376 -15 237 18 125 82 c 1
 190 300 l 1
 266 254 417 216 544 211 c 1
 544 572 l 1
 406 617 l 2
 244 670 140 785 140 975 c 0
 140 1207 308 1337 544 1356 c 1
 544 1480 l 1
 663 1480 l 1
 663 1356 l 1
 798 1349 914 1315 1020 1255 c 1
 939 1048 l 1
 859 1083 764 1118 663 1126 c 1
 663 801 l 1
 715 783 l 1
 950 705 1055 598 1055 381 c 0
 1055 151 897 18 663 -11 c 1
 663 -148 l 1
EndSplineSet
EndChar

StartChar: dotaccent
Encoding: 729 729 296
Width: 473
VWidth: 0
Flags: HW
PickledData: "(dp1
S'com.typemytype.robofont.layerData'
p2
(dp3
s."
LayerCount: 2
Fore
SplineSet
135 1129 m 1
 135 1342 l 1
 333 1342 l 1
 333 1129 l 1
 135 1129 l 1
EndSplineSet
EndChar

StartChar: dotlessi
Encoding: 305 305 297
Width: 480
VWidth: 0
Flags: HW
PickledData: "(dp1
S'com.typemytype.robofont.layerData'
p2
(dp3
s."
LayerCount: 2
Fore
SplineSet
109 0 m 1
 109 1016 l 1
 356 1016 l 1
 356 0 l 1
 109 0 l 1
EndSplineSet
EndChar

StartChar: e
Encoding: 101 101 298
Width: 1196
VWidth: 0
Flags: HW
PickledData: "(dp1
S'com.typemytype.robofont.layerData'
p2
(dp3
s."
LayerCount: 2
Fore
SplineSet
383 613 m 1
 824 613 l 1
 820 760 738 854 621 854 c 0
 518 854 402 774 383 613 c 1
657 -18 m 0
 342 -18 118 183 118 512 c 0
 118 830 330 1040 619 1041 c 0
 898 1041 1064 840 1064 558 c 0
 1064 543 1057 448 1057 448 c 1
 377 448 l 1
 390 273 508 174 681 174 c 0
 844 174 960 231 1002 250 c 1
 1037 70 l 1
 941 9 813 -18 657 -18 c 0
EndSplineSet
EndChar

StartChar: eacute
Encoding: 233 233 299
Width: 1119
VWidth: 0
Flags: HW
PickledData: "(dp1
S'com.typemytype.robofont.layerData'
p2
(dp3
s."
LayerCount: 2
Fore
SplineSet
384 613 m 1
 778 613 l 1
 774 760 704 854 587 854 c 0
 484 854 403 774 384 613 c 1
623 -18 m 0
 308 -18 119 183 119 512 c 0
 119 830 297 1040 586 1041 c 0
 865 1041 1018 840 1018 558 c 0
 1018 543 1011 448 1011 448 c 1
 378 448 l 1
 391 273 474 174 647 174 c 0
 810 174 902 224 944 243 c 1
 979 63 l 1
 883 2 779 -18 623 -18 c 0
490 1163 m 1
 650 1524 l 1
 942 1524 l 1
 647 1163 l 1
 490 1163 l 1
EndSplineSet
EndChar

StartChar: ebreve
Encoding: 277 277 300
Width: 1119
VWidth: 0
Flags: HW
PickledData: "(dp1
S'com.typemytype.robofont.layerData'
p2
(dp3
s."
LayerCount: 2
Fore
SplineSet
384 613 m 1
 778 613 l 1
 774 760 704 854 587 854 c 0
 484 854 403 774 384 613 c 1
623 -18 m 0
 308 -18 119 183 119 512 c 0
 119 830 297 1040 586 1041 c 0
 865 1041 1018 840 1018 558 c 0
 1018 543 1011 448 1011 448 c 1
 378 448 l 1
 391 273 474 174 647 174 c 0
 810 174 902 224 944 243 c 1
 979 63 l 1
 883 2 779 -18 623 -18 c 0
838 1406 m 1
 838 1240 721 1163 568 1163 c 0
 416 1163 300 1241 300 1406 c 1
 468 1406 l 1
 468 1345 494 1321 568 1321 c 0
 642 1321 668 1345 668 1406 c 1
 838 1406 l 1
EndSplineSet
EndChar

StartChar: ecaron
Encoding: 283 283 301
Width: 1119
VWidth: 0
Flags: HW
PickledData: "(dp1
S'com.typemytype.robofont.layerData'
p2
(dp3
s."
LayerCount: 2
Fore
SplineSet
384 613 m 1
 778 613 l 1
 774 760 704 854 587 854 c 0
 484 854 403 774 384 613 c 1
623 -18 m 0
 308 -18 119 183 119 512 c 0
 119 830 297 1040 586 1041 c 0
 865 1041 1018 840 1018 558 c 0
 1018 543 1011 448 1011 448 c 1
 378 448 l 1
 391 273 474 174 647 174 c 0
 810 174 902 224 944 243 c 1
 979 63 l 1
 883 2 779 -18 623 -18 c 0
474 1163 m 1
 226 1500 l 1
 426 1500 l 1
 556 1329 l 1
 706 1500 l 1
 912 1500 l 1
 664 1163 l 1
 474 1163 l 1
EndSplineSet
EndChar

StartChar: ecircumflex
Encoding: 234 234 302
Width: 1119
VWidth: 0
Flags: HW
PickledData: "(dp1
S'com.typemytype.robofont.layerData'
p2
(dp3
s."
LayerCount: 2
Fore
SplineSet
384 613 m 1
 778 613 l 1
 774 760 704 854 587 854 c 0
 484 854 403 774 384 613 c 1
623 -18 m 0
 308 -18 119 183 119 512 c 0
 119 830 297 1040 586 1041 c 0
 865 1041 1018 840 1018 558 c 0
 1018 543 1011 448 1011 448 c 1
 378 448 l 1
 391 273 474 174 647 174 c 0
 810 174 902 224 944 243 c 1
 979 63 l 1
 883 2 779 -18 623 -18 c 0
235 1163 m 1
 470 1531 l 1
 666 1531 l 1
 902 1163 l 1
 716 1163 l 1
 558 1357 l 1
 416 1163 l 1
 235 1163 l 1
EndSplineSet
EndChar

StartChar: edieresis
Encoding: 235 235 303
Width: 1119
VWidth: 0
Flags: HW
PickledData: "(dp1
S'com.typemytype.robofont.layerData'
p2
(dp3
s."
LayerCount: 2
Fore
SplineSet
384 613 m 1
 778 613 l 1
 774 760 704 854 587 854 c 0
 484 854 403 774 384 613 c 1
623 -18 m 0
 308 -18 119 183 119 512 c 0
 119 830 297 1040 586 1041 c 0
 865 1041 1018 840 1018 558 c 0
 1018 543 1011 448 1011 448 c 1
 378 448 l 1
 391 273 474 174 647 174 c 0
 810 174 902 224 944 243 c 1
 979 63 l 1
 883 2 779 -18 623 -18 c 0
284 1163 m 1
 284 1408 l 1
 478 1408 l 1
 478 1163 l 1
 284 1163 l 1
660 1163 m 1
 660 1408 l 1
 853 1408 l 1
 853 1163 l 1
 660 1163 l 1
EndSplineSet
EndChar

StartChar: edotaccent
Encoding: 279 279 304
Width: 1119
VWidth: 0
Flags: HW
PickledData: "(dp1
S'com.typemytype.robofont.layerData'
p2
(dp3
s."
LayerCount: 2
Fore
SplineSet
384 613 m 1
 778 613 l 1
 774 760 704 854 587 854 c 0
 484 854 403 774 384 613 c 1
623 -18 m 0
 308 -18 119 183 119 512 c 0
 119 830 297 1040 586 1041 c 0
 865 1041 1018 840 1018 558 c 0
 1018 543 1011 448 1011 448 c 1
 378 448 l 1
 391 273 474 174 647 174 c 0
 810 174 902 224 944 243 c 1
 979 63 l 1
 883 2 779 -18 623 -18 c 0
470 1163 m 1
 470 1375 l 1
 668 1375 l 1
 668 1163 l 1
 470 1163 l 1
EndSplineSet
EndChar

StartChar: egrave
Encoding: 232 232 305
Width: 1119
VWidth: 0
Flags: HW
PickledData: "(dp1
S'com.typemytype.robofont.layerData'
p2
(dp3
s."
LayerCount: 2
Fore
SplineSet
384 613 m 1
 778 613 l 1
 774 760 704 854 587 854 c 0
 484 854 403 774 384 613 c 1
623 -18 m 0
 308 -18 119 183 119 512 c 0
 119 830 297 1040 586 1041 c 0
 865 1041 1018 840 1018 558 c 0
 1018 543 1011 448 1011 448 c 1
 378 448 l 1
 391 273 474 174 647 174 c 0
 810 174 902 224 944 243 c 1
 979 63 l 1
 883 2 779 -18 623 -18 c 0
486 1163 m 1
 175 1524 l 1
 474 1524 l 1
 651 1163 l 1
 486 1163 l 1
EndSplineSet
EndChar

StartChar: eight
Encoding: 56 56 306
Width: 1261
VWidth: 0
Flags: HW
PickledData: "(dp1
S'com.typemytype.robofont.layerData'
p2
(dp3
s."
LayerCount: 2
Fore
SplineSet
633 -18 m 0
 384 -18 168 116 168 362 c 0
 168 527 256 641 385 705 c 1
 274 764 193 859 193 1011 c 0
 193 1243 394 1357 632 1357 c 0
 872 1357 1069 1243 1069 1011 c 0
 1069 862 996 766 890 705 c 1
 1011 640 1093 525 1093 361 c 0
 1093 114 880 -18 633 -18 c 0
633 154 m 0
 776 154 857 230 857 356 c 0
 857 487 762 573 633 608 c 1
 503 573 407 488 407 355 c 0
 407 230 491 154 633 154 c 0
633 775 m 1
 765 806 845 885 845 1010 c 0
 845 1112 756 1178 633 1178 c 0
 510 1178 418 1112 418 1010 c 0
 418 885 500 806 633 775 c 1
EndSplineSet
EndChar

StartChar: emacron
Encoding: 275 275 307
Width: 1119
VWidth: 0
Flags: HW
PickledData: "(dp1
S'com.typemytype.robofont.layerData'
p2
(dp3
s."
LayerCount: 2
Fore
SplineSet
384 613 m 1
 778 613 l 1
 774 760 704 854 587 854 c 0
 484 854 403 774 384 613 c 1
623 -18 m 0
 308 -18 119 183 119 512 c 0
 119 830 297 1040 586 1041 c 0
 865 1041 1018 840 1018 558 c 0
 1018 543 1011 448 1011 448 c 1
 378 448 l 1
 391 273 474 174 647 174 c 0
 810 174 902 224 944 243 c 1
 979 63 l 1
 883 2 779 -18 623 -18 c 0
244 1163 m 1
 244 1322 l 1
 893 1322 l 1
 893 1163 l 1
 244 1163 l 1
EndSplineSet
EndChar

StartChar: emdash
Encoding: 8212 8212 308
Width: 1894
VWidth: 0
Flags: HW
PickledData: "(dp1
S'com.typemytype.robofont.layerData'
p2
(dp3
s."
LayerCount: 2
Fore
SplineSet
19 419 m 1
 19 603 l 1
 1886 603 l 1
 1886 419 l 1
 19 419 l 1
EndSplineSet
EndChar

StartChar: endash
Encoding: 8211 8211 309
Width: 1113
VWidth: 0
Flags: HW
PickledData: "(dp1
S'com.typemytype.robofont.layerData'
p2
(dp3
s."
LayerCount: 2
Fore
SplineSet
72 419 m 1
 72 603 l 1
 1063 603 l 1
 1063 419 l 1
 72 419 l 1
EndSplineSet
EndChar

StartChar: eng
Encoding: 331 331 310
Width: 1041
VWidth: 0
Flags: HW
PickledData: "(dp1
S'com.typemytype.robofont.layerData'
p2
(dp3
s."
LayerCount: 2
Fore
SplineSet
646 -332 m 2
 583 -332 l 1
 557 -141 l 1
 617 -141 l 2
 753 -141 768 -109 768 54 c 2
 768 612 l 1
 767 761 737 844 611 844 c 0
 513 844 431 789 395 713 c 1
 382 656 379 582 379 496 c 2
 379 0 l 1
 123 0 l 1
 123 1016 l 1
 331 1016 l 1
 355 902 l 1
 435 979 535 1041 676 1041 c 0
 911 1041 1024 891 1024 640 c 2
 1024 101 l 1
 1023 -185 963 -332 646 -332 c 2
EndSplineSet
EndChar

StartChar: eogonek
Encoding: 281 281 311
Width: 1119
VWidth: 0
Flags: HW
PickledData: "(dp1
S'com.typemytype.robofont.layerData'
p2
(dp3
s."
LayerCount: 2
Fore
SplineSet
384 613 m 1
 778 613 l 1
 774 760 704 854 587 854 c 0
 484 854 403 774 384 613 c 1
536 -411 m 0
 432 -411 341 -357 341 -243 c 0
 341 -124 437 -50 508 -8 c 1
 538 -13 571 -17 604 -18 c 1
 622 -20 l 1
 548 -77 516 -141 516 -196 c 0
 516 -230 542 -265 580 -265 c 0
 632 -265 691 -239 703 -234 c 0
 704 -234 711 -375 711 -375 c 1
 656 -396 595 -411 536 -411 c 0
508 -8 m 1
 262 36 119 225 119 512 c 0
 119 830 297 1040 586 1041 c 0
 865 1041 1018 840 1018 558 c 0
 1018 543 1011 448 1011 448 c 1
 378 448 l 1
 391 273 474 174 647 174 c 0
 810 174 902 224 944 243 c 1
 979 63 l 1
 883 2 779 -18 623 -18 c 0
 617 -18 610 -18 604 -18 c 2
 515 -4 l 1
 513 -5 510 -7 508 -8 c 1
EndSplineSet
EndChar

StartChar: epsilon
Encoding: 949 949 312
Width: 407
VWidth: 0
Flags: HW
PickledData: "(dp1
S'com.typemytype.robofont.layerData'
p2
(dp3
s."
LayerCount: 2
Fore
SplineSet
215 483 m 0
 131 483 87 547 87 610 c 0
 87 673 131 737 215 737 c 0
 300 737 342 673 342 610 c 0
 342 547 300 483 215 483 c 0
EndSplineSet
EndChar

StartChar: epsilontonos
Encoding: 941 941 313
Width: 407
VWidth: 0
Flags: HW
PickledData: "(dp1
S'com.typemytype.robofont.layerData'
p2
(dp3
s."
LayerCount: 2
Fore
SplineSet
215 483 m 0
 131 483 87 547 87 610 c 0
 87 673 131 737 215 737 c 0
 300 737 342 673 342 610 c 0
 342 547 300 483 215 483 c 0
EndSplineSet
EndChar

StartChar: equal
Encoding: 61 61 314
Width: 1179
VWidth: 0
Flags: HW
PickledData: "(dp1
S'com.typemytype.robofont.layerData'
p2
(dp3
s."
LayerCount: 2
Fore
SplineSet
130 326 m 1
 130 518 l 1
 1049 518 l 1
 1049 326 l 1
 130 326 l 1
130 680 m 1
 130 881 l 1
 1049 881 l 1
 1049 680 l 1
 130 680 l 1
EndSplineSet
EndChar

StartChar: eta
Encoding: 951 951 315
Width: 407
VWidth: 0
Flags: HW
PickledData: "(dp1
S'com.typemytype.robofont.layerData'
p2
(dp3
s."
LayerCount: 2
Fore
SplineSet
215 483 m 0
 131 483 87 547 87 610 c 0
 87 673 131 737 215 737 c 0
 300 737 342 673 342 610 c 0
 342 547 300 483 215 483 c 0
EndSplineSet
EndChar

StartChar: etatonos
Encoding: 942 942 316
Width: 407
VWidth: 0
Flags: HW
PickledData: "(dp1
S'com.typemytype.robofont.layerData'
p2
(dp3
s."
LayerCount: 2
Fore
SplineSet
215 483 m 0
 131 483 87 547 87 610 c 0
 87 673 131 737 215 737 c 0
 300 737 342 673 342 610 c 0
 342 547 300 483 215 483 c 0
EndSplineSet
EndChar

StartChar: eth
Encoding: 240 240 317
Width: 1075
VWidth: 0
Flags: HW
PickledData: "(dp1
S'com.typemytype.robofont.layerData'
p2
(dp3
s."
LayerCount: 2
Fore
SplineSet
557 -17 m 0
 267 -17 69 167 69 433 c 0
 69 691 247 862 515 862 c 0
 552 862 599 852 633 842 c 1
 595 890 508 990 476 1025 c 1
 253 936 l 1
 192 1105 l 1
 350 1169 l 1
 165 1377 l 1
 454 1377 l 1
 558 1255 l 1
 798 1353 l 1
 861 1183 l 1
 680 1110 l 1
 780 996 875 889 947 770 c 1
 1003 675 1040 557 1041 424 c 1
 1041 146 851 -17 557 -17 c 0
564 179 m 0
 726 179 818 278 818 430 c 0
 818 582 723 688 558 688 c 0
 393 688 302 589 302 434 c 0
 302 285 399 179 564 179 c 0
EndSplineSet
EndChar

StartChar: exclam
Encoding: 33 33 318
Width: 629
VWidth: 0
Flags: HW
PickledData: "(dp1
S'com.typemytype.robofont.layerData'
p2
(dp3
s."
LayerCount: 2
Fore
SplineSet
442 1127 m 1
 385 418 l 1
 272 418 l 1
 208 1127 l 1
 208 1335 l 1
 442 1335 l 1
 442 1127 l 1
321 -7 m 0
 237 -7 174 61 174 139 c 0
 174 218 237 286 321 286 c 0
 404 286 467 218 467 139 c 0
 467 61 404 -7 321 -7 c 0
EndSplineSet
EndChar

StartChar: exclamdown
Encoding: 161 161 319
Width: 386
VWidth: 0
Flags: HW
PickledData: "(dp1
S'com.typemytype.robofont.layerData'
p2
(dp3
s."
LayerCount: 2
Fore
SplineSet
324 203 m 1
 324 -4 l 1
 89 -4 l 1
 89 203 l 1
 152 913 l 1
 266 913 l 1
 324 203 l 1
202 1046 m 0
 118 1046 55 1114 55 1193 c 0
 55 1273 119 1338 202 1338 c 0
 285 1338 348 1272 348 1193 c 0
 348 1114 285 1046 202 1046 c 0
EndSplineSet
EndChar

StartChar: f
Encoding: 102 102 320
Width: 864
VWidth: 0
Flags: HW
PickledData: "(dp1
S'com.typemytype.robofont.layerData'
p2
(dp3
s."
LayerCount: 2
Fore
SplineSet
279 0 m 1
 279 839 l 1
 133 839 l 1
 138 998 l 1
 279 1015 l 1
 279 1061 l 2
 279 1350 425 1420 620 1420 c 0
 679 1420 741 1414 808 1401 c 1
 785 1208 l 1
 755 1213 706 1219 666 1219 c 0
 584 1219 535 1201 535 1074 c 2
 535 1016 l 1
 763 1016 l 1
 763 839 l 1
 535 839 l 1
 535 0 l 1
 279 0 l 1
EndSplineSet
EndChar

StartChar: five
Encoding: 53 53 321
Width: 1222
VWidth: 0
Flags: HW
PickledData: "(dp1
S'com.typemytype.robofont.layerData'
p2
(dp3
s."
LayerCount: 2
Fore
SplineSet
589 -18 m 0
 382 -18 194 91 172 110 c 1
 261 292 l 1
 276 281 412 189 563 189 c 0
 737 189 814 292 814 430 c 0
 814 569 728 654 609 654 c 0
 542 654 471 625 411 561 c 1
 227 590 l 1
 264 1336 l 1
 1028 1336 l 1
 1011 1129 l 1
 502 1129 l 1
 500 1081 480 862 478 799 c 1
 528 822 596 855 648 855 c 0
 904 855 1078 679 1078 428 c 0
 1078 165 901 -18 589 -18 c 0
EndSplineSet
EndChar

StartChar: fj
Encoding: 65537 -1 322
Width: 903
VWidth: 0
Flags: HW
PickledData: "(dp1
S'com.typemytype.robofont.layerData'
p2
(dp3
s."
LayerCount: 2
Fore
SplineSet
655 -96 m 2
 655 885 l 1
 321 885 l 1
 321 4 l 1
 154 4 l 1
 154 885 l 1
 12 885 l 1
 12 1011 l 1
 154 1011 l 1
 156 1322 237 1405 478 1405 c 2
 548 1405 l 1
 570 1272 l 1
 477 1272 l 2
 329 1272 321 1220 321 1013 c 1
 823 1013 l 1
 823 -111 l 2
 823 -355 766 -446 519 -446 c 2
 466 -446 l 1
 444 -293 l 1
 500 -293 l 2
 654 -293 655 -244 655 -96 c 2
823 1175 m 1
 655 1175 l 1
 655 1370 l 1
 823 1370 l 1
 823 1175 l 1
EndSplineSet
EndChar

StartChar: florin
Encoding: 402 402 323
Width: 923
VWidth: 0
Flags: HW
PickledData: "(dp1
S'com.typemytype.robofont.layerData'
p2
(dp3
s."
LayerCount: 2
Fore
SplineSet
39 -89 m 1
 51 -92 l 2
 56 -94 120 -114 133 -114 c 0
 199 -114 228 -45 249 43 c 0
 302 255 338 486 381 710 c 1
 243 710 l 1
 258 893 l 1
 414 893 l 1
 429 1002 l 2
 454 1179 534 1343 754 1343 c 0
 801 1343 889 1324 901 1321 c 1
 909 1318 l 1
 897 1120 l 1
 885 1125 l 2
 878 1128 801 1152 775 1152 c 0
 692 1152 672 1118 657 1037 c 2
 632 897 l 1
 802 897 l 1
 789 712 l 1
 599 712 l 1
 489 127 l 1
 451 -65 395 -299 144 -299 c 0
 113 -299 41 -282 31 -278 c 1
 24 -276 l 1
 39 -89 l 1
EndSplineSet
EndChar

StartChar: four
Encoding: 52 52 324
Width: 1246
VWidth: 0
Flags: HW
PickledData: "(dp1
S'com.typemytype.robofont.layerData'
p2
(dp3
s."
LayerCount: 2
Fore
SplineSet
666 1336 m 1
 976 1336 l 1
 976 498 l 1
 1137 498 l 1
 1123 296 l 1
 976 296 l 1
 976 0 l 1
 722 0 l 1
 722 296 l 1
 138 296 l 1
 138 473 l 1
 666 1336 l 1
722 494 m 1
 722 1055 l 1
 397 494 l 1
 722 494 l 1
EndSplineSet
EndChar

StartChar: fraction
Encoding: 8260 8260 325
Width: 1033
VWidth: 0
Flags: HW
PickledData: "(dp1
S'com.typemytype.robofont.layerData'
p2
(dp3
s."
LayerCount: 2
Fore
SplineSet
25 0 m 1
 831 1347 l 1
 1029 1347 l 1
 226 0 l 1
 25 0 l 1
EndSplineSet
EndChar

StartChar: g
Encoding: 103 103 326
Width: 1216
VWidth: 0
Flags: HW
PickledData: "(dp1
S'com.typemytype.robofont.layerData'
p2
(dp3
s."
LayerCount: 2
Fore
SplineSet
589 195 m 0
 759 195 802 323 804 508 c 1
 804 536 l 2
 804 733 745 841 602 843 c 1
 436 843 374 716 374 526 c 0
 374 343 440 195 589 195 c 0
526 -439 m 0
 379 -439 282 -405 274 -402 c 1
 290 -207 l 1
 347 -215 399 -237 501 -237 c 0
 719 -237 801 -85 801 87 c 0
 801 103 800 139 798 156 c 1
 760 70 666 0 528 0 c 0
 268 0 118 213 118 519 c 0
 118 854 302 1041 537 1041 c 0
 669 1041 753 1005 809 893 c 1
 822 1017 l 1
 1049 1017 l 1
 1049 185 l 2
 1049 -166 906 -439 526 -439 c 0
EndSplineSet
EndChar

StartChar: gamma
Encoding: 947 947 327
Width: 407
VWidth: 0
Flags: HW
PickledData: "(dp1
S'com.typemytype.robofont.layerData'
p2
(dp3
s."
LayerCount: 2
Fore
SplineSet
215 483 m 0
 131 483 87 547 87 610 c 0
 87 673 131 737 215 737 c 0
 300 737 342 673 342 610 c 0
 342 547 300 483 215 483 c 0
EndSplineSet
EndChar

StartChar: gbreve
Encoding: 287 287 328
Width: 1212
VWidth: 0
Flags: HW
PickledData: "(dp1
S'com.typemytype.robofont.layerData'
p2
(dp3
s."
LayerCount: 2
Fore
SplineSet
598 195 m 0
 768 195 809 323 811 508 c 1
 811 536 l 2
 811 733 754 841 611 843 c 1
 445 843 375 716 375 526 c 0
 375 343 449 195 598 195 c 0
525 -439 m 0
 378 -439 281 -405 273 -402 c 1
 289 -207 l 1
 346 -215 398 -237 500 -237 c 0
 718 -237 808 -85 808 87 c 0
 808 103 807 139 805 156 c 1
 767 70 675 0 537 0 c 0
 277 0 119 213 119 519 c 0
 119 854 311 1041 546 1041 c 0
 678 1041 760 1005 816 893 c 1
 829 1017 l 1
 1056 1017 l 1
 1056 185 l 2
 1056 -166 905 -439 525 -439 c 0
856 1406 m 1
 856 1240 739 1163 586 1163 c 0
 434 1163 318 1241 318 1406 c 1
 486 1406 l 1
 486 1345 512 1321 586 1321 c 0
 660 1321 688 1345 688 1406 c 1
 856 1406 l 1
EndSplineSet
EndChar

StartChar: gcaron
Encoding: 487 487 329
Width: 1212
VWidth: 0
Flags: HW
PickledData: "(dp1
S'com.typemytype.robofont.layerData'
p2
(dp3
s."
LayerCount: 2
Fore
SplineSet
598 195 m 0
 768 195 809 323 811 508 c 1
 811 536 l 2
 811 733 754 841 611 843 c 1
 445 843 375 716 375 526 c 0
 375 343 449 195 598 195 c 0
525 -439 m 0
 378 -439 281 -405 273 -402 c 1
 289 -207 l 1
 346 -215 398 -237 500 -237 c 0
 718 -237 808 -85 808 87 c 0
 808 103 807 139 805 156 c 1
 767 70 675 0 537 0 c 0
 277 0 119 213 119 519 c 0
 119 854 311 1041 546 1041 c 0
 678 1041 760 1005 816 893 c 1
 829 1017 l 1
 1056 1017 l 1
 1056 185 l 2
 1056 -166 905 -439 525 -439 c 0
492 1163 m 1
 244 1500 l 1
 446 1500 l 1
 576 1329 l 1
 726 1500 l 1
 930 1500 l 1
 682 1163 l 1
 492 1163 l 1
EndSplineSet
EndChar

StartChar: gcircumflex
Encoding: 285 285 330
Width: 1212
VWidth: 0
Flags: HW
PickledData: "(dp1
S'com.typemytype.robofont.layerData'
p2
(dp3
s."
LayerCount: 2
Fore
SplineSet
598 195 m 0
 768 195 809 323 811 508 c 1
 811 536 l 2
 811 733 754 841 611 843 c 1
 445 843 375 716 375 526 c 0
 375 343 449 195 598 195 c 0
525 -439 m 0
 378 -439 281 -405 273 -402 c 1
 289 -207 l 1
 346 -215 398 -237 500 -237 c 0
 718 -237 808 -85 808 87 c 0
 808 103 807 139 805 156 c 1
 767 70 675 0 537 0 c 0
 277 0 119 213 119 519 c 0
 119 854 311 1041 546 1041 c 0
 678 1041 760 1005 816 893 c 1
 829 1017 l 1
 1056 1017 l 1
 1056 185 l 2
 1056 -166 905 -439 525 -439 c 0
254 1163 m 1
 489 1531 l 1
 685 1531 l 1
 921 1163 l 1
 735 1163 l 1
 577 1357 l 1
 435 1163 l 1
 254 1163 l 1
EndSplineSet
EndChar

StartChar: gcommaaccent
Encoding: 291 291 331
Width: 1120
VWidth: 0
Flags: HW
PickledData: "(dp1
S'com.typemytype.robofont.layerData'
p2
(dp3
s."
LayerCount: 2
Fore
SplineSet
707 1577 m 1
 606 1098 l 1
 388 1098 l 1
 540 1577 l 1
 707 1577 l 1
559 195 m 0
 729 195 787 323 789 508 c 1
 789 536 l 2
 789 733 715 841 572 843 c 1
 406 843 327 716 327 526 c 0
 327 343 410 195 559 195 c 0
516 -439 m 0
 369 -439 256 -405 255 -405 c 2
 248 -402 l 1
 264 -207 l 1
 275 -209 l 1
 275 -209 393 -237 491 -237 c 0
 709 -237 786 -85 786 87 c 0
 786 103 785 119 783 136 c 1
 745 68 661 0 523 0 c 0
 263 0 72 213 72 519 c 0
 72 854 276 1041 511 1041 c 0
 643 1041 737 991 793 903 c 1
 807 1017 l 1
 1034 1017 l 1
 1034 185 l 2
 1034 -166 896 -439 516 -439 c 0
EndSplineSet
EndChar

StartChar: gdotaccent
Encoding: 289 289 332
Width: 1212
VWidth: 0
Flags: HW
PickledData: "(dp1
S'com.typemytype.robofont.layerData'
p2
(dp3
s."
LayerCount: 2
Fore
SplineSet
598 195 m 0
 768 195 809 323 811 508 c 1
 811 536 l 2
 811 733 754 841 611 843 c 1
 445 843 375 716 375 526 c 0
 375 343 449 195 598 195 c 0
525 -439 m 0
 378 -439 281 -405 273 -402 c 1
 289 -207 l 1
 346 -215 398 -237 500 -237 c 0
 718 -237 808 -85 808 87 c 0
 808 103 807 139 805 156 c 1
 767 70 675 0 537 0 c 0
 277 0 119 213 119 519 c 0
 119 854 311 1041 546 1041 c 0
 678 1041 760 1005 816 893 c 1
 829 1017 l 1
 1056 1017 l 1
 1056 185 l 2
 1056 -166 905 -439 525 -439 c 0
488 1163 m 1
 488 1375 l 1
 686 1375 l 1
 686 1163 l 1
 488 1163 l 1
EndSplineSet
EndChar

StartChar: germandbls
Encoding: 223 223 333
Width: 1104
VWidth: 0
Flags: HW
PickledData: "(dp1
S'com.typemytype.robofont.layerData'
p2
(dp3
s."
LayerCount: 2
Fore
SplineSet
462 172 m 1
 463 180 l 1
 680 180 l 2
 775 180 825 233 825 320 c 0
 825 459 649 518 520 600 c 0
 483 623 438 661 438 722 c 0
 438 772 472 808 505 835 c 1
 589 899 687 946 687 1046 c 0
 687 1127 619 1175 519 1175 c 0
 369 1175 338 1083 338 929 c 2
 338 0 l 1
 89 0 l 1
 89 934 l 2
 89 1202 242 1363 519 1363 c 0
 734 1363 927 1261 927 1046 c 0
 927 884 798 802 690 733 c 1
 842 646 1076 545 1076 320 c 0
 1076 100 912 0 704 0 c 2
 445 0 l 1
 439 11 l 1
 440 13 l 1
 443 26 462 172 462 172 c 1
EndSplineSet
EndChar

StartChar: grave
Encoding: 96 96 334
Width: 447
VWidth: 0
Flags: HW
PickledData: "(dp1
S'com.typemytype.robofont.layerData'
p2
(dp3
s."
LayerCount: 2
Fore
SplineSet
291 1081 m 1
 -20 1442 l 1
 279 1442 l 1
 456 1081 l 1
 291 1081 l 1
EndSplineSet
EndChar

StartChar: greater
Encoding: 62 62 335
Width: 1105
VWidth: 0
Flags: HW
PickledData: "(dp1
S'com.typemytype.robofont.layerData'
p2
(dp3
s."
LayerCount: 2
Fore
SplineSet
136 1158 m 1
 1009 709 l 1
 1009 588 l 1
 136 171 l 1
 136 386 l 1
 740 654 l 1
 136 953 l 1
 136 1158 l 1
EndSplineSet
EndChar

StartChar: greaterequal
Encoding: 8805 8805 336
Width: 1074
VWidth: 0
Flags: HW
PickledData: "(dp1
S'com.typemytype.robofont.layerData'
p2
(dp3
s."
LayerCount: 2
Fore
SplineSet
130 1177 m 1
 975 738 l 1
 975 624 l 1
 129 195 l 1
 129 394 l 1
 729 680 l 1
 130 980 l 1
 130 1177 l 1
123 2 m 1
 123 160 l 1
 979 159 l 1
 979 2 l 1
 123 2 l 1
EndSplineSet
EndChar

StartChar: guillemotleft
Encoding: 171 171 337
Width: 948
VWidth: 0
Flags: HW
PickledData: "(dp1
S'com.typemytype.robofont.layerData'
p2
(dp3
s."
LayerCount: 2
Fore
SplineSet
547 866 m 1
 299 519 l 1
 544 173 l 1
 344 120 l 1
 59 504 l 1
 70 547 l 1
 347 918 l 1
 547 866 l 1
669 519 m 1
 914 173 l 1
 715 120 l 1
 424 516 l 1
 717 918 l 1
 918 866 l 1
 669 519 l 1
EndSplineSet
EndChar

StartChar: guillemotright
Encoding: 187 187 338
Width: 1025
VWidth: 0
Flags: HW
PickledData: "(dp1
S'com.typemytype.robofont.layerData'
p2
(dp3
s."
LayerCount: 2
Fore
SplineSet
292 918 m 1
 584 522 l 1
 291 120 l 1
 91 173 l 1
 340 519 l 1
 93 866 l 1
 292 918 l 1
674 918 m 1
 966 522 l 1
 671 120 l 1
 473 173 l 1
 719 519 l 1
 477 866 l 1
 674 918 l 1
EndSplineSet
EndChar

StartChar: guilsinglleft
Encoding: 8249 8249 339
Width: 511
VWidth: 0
Flags: HW
PickledData: "(dp1
S'com.typemytype.robofont.layerData'
p2
(dp3
s."
LayerCount: 2
Fore
SplineSet
254 524 m 1
 487 155 l 1
 285 155 l 1
 41 524 l 1
 291 898 l 1
 493 898 l 1
 254 524 l 1
EndSplineSet
EndChar

StartChar: guilsinglright
Encoding: 8250 8250 340
Width: 511
VWidth: 0
Flags: HW
PickledData: "(dp1
S'com.typemytype.robofont.layerData'
p2
(dp3
s."
LayerCount: 2
Fore
SplineSet
493 525 m 1
 240 155 l 1
 38 155 l 1
 276 525 l 1
 44 898 l 1
 246 898 l 1
 493 525 l 1
EndSplineSet
EndChar

StartChar: h
Encoding: 104 104 341
Width: 1206
VWidth: 0
Flags: HW
PickledData: "(dp1
S'com.typemytype.robofont.layerData'
p2
(dp3
s."
LayerCount: 2
Fore
SplineSet
176 1376 m 1
 432 1393 l 1
 432 1102 l 2
 432 1074 427 970 425 918 c 1
 483 979 571 1041 715 1041 c 0
 929 1041 1068 918 1068 641 c 2
 1068 0 l 1
 812 0 l 1
 812 618 l 2
 812 775 774 844 659 844 c 0
 470 844 429 699 429 491 c 2
 429 0 l 1
 176 0 l 1
 176 1376 l 1
EndSplineSet
EndChar

StartChar: hbar
Encoding: 295 295 342
Width: 1042
VWidth: 0
Flags: HW
PickledData: "(dp1
S'com.typemytype.robofont.layerData'
p2
(dp3
s."
LayerCount: 2
Fore
SplineSet
89 1249 m 1
 89 1369 l 1
 335 1387 l 1
 335 1249 l 1
 595 1249 l 1
 595 1108 l 1
 335 1108 l 1
 335 918 l 1
 413 993 517 1034 641 1034 c 0
 832 1034 980 922 980 615 c 2
 980 0 l 1
 734 0 l 1
 734 605 l 2
 734 772 707 844 586 844 c 0
 473 844 377 771 335 686 c 1
 335 0 l 1
 89 0 l 1
 89 1108 l 1
 -1 1108 l 1
 -1 1249 l 1
 89 1249 l 1
EndSplineSet
EndChar

StartChar: hcircumflex
Encoding: 293 293 343
Width: 1200
VWidth: 0
Flags: HW
PickledData: "(dp1
S'com.typemytype.robofont.layerData'
p2
(dp3
s."
LayerCount: 2
Fore
SplineSet
159 1376 m 1
 415 1393 l 1
 415 1102 l 2
 415 1074 410 970 408 918 c 1
 466 979 560 1041 704 1041 c 0
 918 1041 1057 918 1057 641 c 2
 1057 0 l 1
 801 0 l 1
 801 618 l 2
 801 775 763 844 648 844 c 0
 459 844 412 699 412 491 c 2
 412 0 l 1
 159 0 l 1
 159 1376 l 1
274 1515 m 1
 510 1883 l 1
 706 1883 l 1
 942 1515 l 1
 756 1515 l 1
 598 1709 l 1
 456 1515 l 1
 274 1515 l 1
EndSplineSet
EndChar

StartChar: hungarumlaut
Encoding: 733 733 344
Width: 867
VWidth: 0
Flags: HW
PickledData: "(dp1
S'com.typemytype.robofont.layerData'
p2
(dp3
s."
LayerCount: 2
Fore
SplineSet
123 1046 m 1
 355 1386 l 1
 581 1386 l 1
 266 1046 l 1
 123 1046 l 1
397 1046 m 1
 634 1386 l 1
 863 1386 l 1
 538 1046 l 1
 397 1046 l 1
EndSplineSet
EndChar

StartChar: hyphen
Encoding: 45 45 345
Width: 594
VWidth: 0
Flags: HW
PickledData: "(dp1
S'com.typemytype.robofont.layerData'
p2
(dp3
s."
LayerCount: 2
Fore
SplineSet
57 406 m 1
 57 606 l 1
 553 606 l 1
 553 406 l 1
 57 406 l 1
EndSplineSet
EndChar

StartChar: i
Encoding: 105 105 346
Width: 592
VWidth: 0
Flags: HW
PickledData: "(dp1
S'com.typemytype.robofont.layerData'
p2
(dp3
s."
LayerCount: 2
Fore
SplineSet
168 0 m 1
 168 1016 l 1
 424 1016 l 1
 424 0 l 1
 168 0 l 1
168 1157 m 1
 168 1375 l 1
 424 1375 l 1
 424 1157 l 1
 168 1157 l 1
EndSplineSet
EndChar

StartChar: iacute
Encoding: 237 237 347
Width: 480
VWidth: 0
Flags: HW
PickledData: "(dp1
S'com.typemytype.robofont.layerData'
p2
(dp3
s."
LayerCount: 2
Fore
SplineSet
109 0 m 1
 109 1016 l 1
 356 1016 l 1
 356 0 l 1
 109 0 l 1
154 1163 m 1
 314 1524 l 1
 606 1524 l 1
 311 1163 l 1
 154 1163 l 1
EndSplineSet
EndChar

StartChar: ibreve
Encoding: 301 301 348
Width: 480
VWidth: 0
Flags: HW
PickledData: "(dp1
S'com.typemytype.robofont.layerData'
p2
(dp3
s."
LayerCount: 2
Fore
SplineSet
109 0 m 1
 109 1016 l 1
 356 1016 l 1
 356 0 l 1
 109 0 l 1
502 1406 m 1
 502 1240 385 1163 232 1163 c 0
 80 1163 -36 1241 -36 1406 c 1
 132 1406 l 1
 132 1345 158 1321 232 1321 c 0
 306 1321 332 1345 332 1406 c 1
 502 1406 l 1
EndSplineSet
EndChar

StartChar: icircumflex
Encoding: 238 238 349
Width: 480
VWidth: 0
Flags: HW
PickledData: "(dp1
S'com.typemytype.robofont.layerData'
p2
(dp3
s."
LayerCount: 2
Fore
SplineSet
109 0 m 1
 109 1016 l 1
 356 1016 l 1
 356 0 l 1
 109 0 l 1
-101 1163 m 1
 134 1531 l 1
 330 1531 l 1
 566 1163 l 1
 380 1163 l 1
 222 1357 l 1
 80 1163 l 1
 -101 1163 l 1
EndSplineSet
EndChar

StartChar: idieresis
Encoding: 239 239 350
Width: 480
VWidth: 0
Flags: HW
PickledData: "(dp1
S'com.typemytype.robofont.layerData'
p2
(dp3
s."
LayerCount: 2
Fore
SplineSet
109 0 m 1
 109 1016 l 1
 356 1016 l 1
 356 0 l 1
 109 0 l 1
-52 1163 m 1
 -52 1408 l 1
 142 1408 l 1
 142 1163 l 1
 -52 1163 l 1
324 1163 m 1
 324 1408 l 1
 517 1408 l 1
 517 1163 l 1
 324 1163 l 1
EndSplineSet
EndChar

StartChar: igrave
Encoding: 236 236 351
Width: 480
VWidth: 0
Flags: HW
PickledData: "(dp1
S'com.typemytype.robofont.layerData'
p2
(dp3
s."
LayerCount: 2
Fore
SplineSet
109 0 m 1
 109 1016 l 1
 356 1016 l 1
 356 0 l 1
 109 0 l 1
150 1163 m 1
 -161 1524 l 1
 138 1524 l 1
 315 1163 l 1
 150 1163 l 1
EndSplineSet
EndChar

StartChar: ij
Encoding: 307 307 352
Width: 908
VWidth: 0
Flags: HW
PickledData: "(dp1
S'com.typemytype.robofont.layerData'
p2
(dp3
s."
LayerCount: 2
Fore
SplineSet
851 1139 m 1
 598 1139 l 1
 598 1357 l 1
 851 1357 l 1
 851 1139 l 1
130 1139 m 1
 130 1357 l 1
 384 1357 l 1
 384 1139 l 1
 130 1139 l 1
471 -379 m 2
 411 -379 l 1
 382 -187 l 1
 444 -187 l 2
 585 -187 598 -149 598 -4 c 2
 598 1017 l 1
 851 1017 l 1
 851 40 l 2
 851 -240 789 -379 471 -379 c 2
130 0 m 1
 130 1017 l 1
 384 1017 l 1
 384 0 l 1
 130 0 l 1
EndSplineSet
EndChar

StartChar: imacron
Encoding: 299 299 353
Width: 480
VWidth: 0
Flags: HW
PickledData: "(dp1
S'com.typemytype.robofont.layerData'
p2
(dp3
s."
LayerCount: 2
Fore
SplineSet
109 0 m 1
 109 1016 l 1
 356 1016 l 1
 356 0 l 1
 109 0 l 1
-92 1163 m 1
 -92 1322 l 1
 557 1322 l 1
 557 1163 l 1
 -92 1163 l 1
EndSplineSet
EndChar

StartChar: iogonek
Encoding: 303 303 354
Width: 574
VWidth: 0
Flags: HW
PickledData: "(dp1
S'com.typemytype.robofont.layerData'
p2
(dp3
s."
LayerCount: 2
Fore
SplineSet
159 1157 m 1
 159 1375 l 1
 415 1375 l 1
 415 1157 l 1
 159 1157 l 1
254 -393 m 0
 150 -393 60 -339 60 -225 c 0
 60 -114 143 -43 211 0 c 1
 159 0 l 1
 159 1016 l 1
 415 1016 l 1
 415 0 l 1
 324 0 l 1
 340 -2 l 1
 266 -59 234 -123 234 -178 c 0
 234 -212 260 -247 298 -247 c 0
 350 -247 410 -221 422 -216 c 0
 423 -216 430 -357 430 -357 c 1
 375 -378 313 -393 254 -393 c 0
EndSplineSet
EndChar

StartChar: iota
Encoding: 953 953 355
Width: 407
VWidth: 0
Flags: HW
PickledData: "(dp1
S'com.typemytype.robofont.layerData'
p2
(dp3
s."
LayerCount: 2
Fore
SplineSet
215 483 m 0
 131 483 87 547 87 610 c 0
 87 673 131 737 215 737 c 0
 300 737 342 673 342 610 c 0
 342 547 300 483 215 483 c 0
EndSplineSet
EndChar

StartChar: iotadieresis
Encoding: 970 970 356
Width: 407
VWidth: 0
Flags: HW
PickledData: "(dp1
S'com.typemytype.robofont.layerData'
p2
(dp3
s."
LayerCount: 2
Fore
SplineSet
215 483 m 0
 131 483 87 547 87 610 c 0
 87 673 131 737 215 737 c 0
 300 737 342 673 342 610 c 0
 342 547 300 483 215 483 c 0
116 1364 m 1
 116 1119 l 1
 -78 1119 l 1
 -78 1364 l 1
 116 1364 l 1
491 1364 m 1
 491 1119 l 1
 298 1119 l 1
 298 1364 l 1
 491 1364 l 1
EndSplineSet
EndChar

StartChar: iotadieresistonos
Encoding: 912 912 357
Width: 407
VWidth: 0
Flags: HW
PickledData: "(dp1
S'com.typemytype.robofont.layerData'
p2
(dp3
s."
LayerCount: 2
Fore
SplineSet
217 1602 m 0
 133 1602 89 1666 89 1729 c 0
 89 1792 133 1856 217 1856 c 0
 302 1856 344 1792 344 1729 c 0
 344 1666 302 1602 217 1602 c 0
215 483 m 0
 131 483 87 547 87 610 c 0
 87 673 131 737 215 737 c 0
 300 737 342 673 342 610 c 0
 342 547 300 483 215 483 c 0
EndSplineSet
EndChar

StartChar: iotatonos
Encoding: 943 943 358
Width: 407
VWidth: 0
Flags: HW
PickledData: "(dp1
S'com.typemytype.robofont.layerData'
p2
(dp3
s."
LayerCount: 2
Fore
SplineSet
215 483 m 0
 131 483 87 547 87 610 c 0
 87 673 131 737 215 737 c 0
 300 737 342 673 342 610 c 0
 342 547 300 483 215 483 c 0
EndSplineSet
EndChar

StartChar: itilde
Encoding: 297 297 359
Width: 480
VWidth: 0
Flags: HW
PickledData: "(dp1
S'com.typemytype.robofont.layerData'
p2
(dp3
s."
LayerCount: 2
Fore
SplineSet
109 0 m 1
 109 1016 l 1
 356 1016 l 1
 356 0 l 1
 109 0 l 1
-83 1173 m 1
 -83 1267 -69 1405 79 1405 c 0
 200 1405 335 1320 366 1320 c 1
 386 1321 398 1405 398 1405 c 1
 548 1405 l 1
 548 1405 538 1163 390 1163 c 0
 289 1163 156 1253 99 1253 c 0
 78 1253 64 1163 64 1163 c 1
 -83 1173 l 1
EndSplineSet
EndChar

StartChar: j
Encoding: 106 106 360
Width: 591
VWidth: 0
Flags: HW
PickledData: "(dp1
S'com.typemytype.robofont.layerData'
p2
(dp3
s."
LayerCount: 2
Fore
SplineSet
218 1157 m 1
 218 1375 l 1
 471 1375 l 1
 471 1157 l 1
 218 1157 l 1
31 -379 m 1
 2 -187 l 1
 64 -187 l 2
 205 -187 218 -149 218 -4 c 2
 218 1017 l 1
 471 1017 l 1
 471 40 l 2
 471 -240 409 -379 91 -379 c 2
 31 -379 l 1
EndSplineSet
EndChar

StartChar: jcircumflex
Encoding: 309 309 361
Width: 461
VWidth: 0
Flags: HW
PickledData: "(dp1
S'com.typemytype.robofont.layerData'
p2
(dp3
s."
LayerCount: 2
Fore
SplineSet
-39 -322 m 1
 -44 -127 l 1
 -3 -127 l 2
 137 -127 148 -88 148 61 c 2
 148 988 l 1
 379 988 l 1
 379 99 l 2
 379 -183 310 -322 6 -322 c 2
 -39 -322 l 1
-166 1163 m 1
 69 1531 l 1
 265 1531 l 1
 501 1163 l 1
 315 1163 l 1
 157 1357 l 1
 15 1163 l 1
 -166 1163 l 1
EndSplineSet
EndChar

StartChar: k
Encoding: 107 107 362
Width: 1185
VWidth: 0
Flags: HW
PickledData: "(dp1
S'com.typemytype.robofont.layerData'
p2
(dp3
s."
LayerCount: 2
Fore
SplineSet
176 1376 m 1
 432 1392 l 1
 432 785 l 1
 427 582 l 1
 789 1016 l 1
 1112 1016 l 1
 723 555 l 1
 1136 0 l 1
 835 0 l 1
 516 432 l 1
 432 354 l 1
 432 0 l 1
 176 0 l 1
 176 1376 l 1
EndSplineSet
EndChar

StartChar: kcommaaccent
Encoding: 311 311 364
Width: 1158
VWidth: 0
Flags: HW
PickledData: "(dp1
S'com.typemytype.robofont.layerData'
p2
(dp3
s."
LayerCount: 2
Fore
SplineSet
159 1376 m 1
 415 1392 l 1
 415 785 l 1
 410 582 l 1
 772 1016 l 1
 1095 1016 l 1
 706 555 l 1
 1119 0 l 1
 818 0 l 1
 499 432 l 1
 415 354 l 1
 415 0 l 1
 159 0 l 1
 159 1376 l 1
478 -601 m 1
 578 -122 l 1
 800 -122 l 1
 646 -601 l 1
 478 -601 l 1
EndSplineSet
EndChar

StartChar: l
Encoding: 108 108 366
Width: 647
VWidth: 0
Flags: HW
PickledData: "(dp1
S'com.typemytype.robofont.layerData'
p2
(dp3
s."
LayerCount: 2
Fore
SplineSet
514 -13 m 0
 237 -13 174 124 174 401 c 2
 174 1376 l 1
 430 1393 l 1
 430 404 l 2
 430 205 465 178 550 178 c 0
 579 178 612 185 633 187 c 1
 627 7 l 1
 620 4 589 -13 514 -13 c 0
EndSplineSet
EndChar

StartChar: lacute
Encoding: 314 314 367
Width: 729
VWidth: 0
Flags: HW
PickledData: "(dp1
S'com.typemytype.robofont.layerData'
p2
(dp3
s."
LayerCount: 2
Fore
SplineSet
499 -13 m 0
 222 -13 159 124 159 401 c 2
 159 1376 l 1
 415 1393 l 1
 415 404 l 2
 415 205 450 178 535 178 c 0
 564 178 597 185 618 187 c 1
 649 7 l 1
 642 4 574 -13 499 -13 c 0
326 1515 m 1
 486 1876 l 1
 778 1876 l 1
 482 1515 l 1
 326 1515 l 1
EndSplineSet
EndChar

StartChar: lambda
Encoding: 955 955 368
Width: 407
VWidth: 0
Flags: HW
PickledData: "(dp1
S'com.typemytype.robofont.layerData'
p2
(dp3
s."
LayerCount: 2
Fore
SplineSet
215 483 m 0
 131 483 87 547 87 610 c 0
 87 673 131 737 215 737 c 0
 300 737 342 673 342 610 c 0
 342 547 300 483 215 483 c 0
EndSplineSet
EndChar

StartChar: lcaron
Encoding: 318 318 369
Width: 729
VWidth: 0
Flags: HW
PickledData: "(dp1
S'com.typemytype.robofont.layerData'
p2
(dp3
s."
LayerCount: 2
Fore
SplineSet
499 -13 m 0
 222 -13 159 124 159 401 c 2
 159 1376 l 1
 415 1393 l 1
 415 404 l 2
 415 205 450 178 535 178 c 0
 564 178 597 185 618 187 c 1
 649 7 l 1
 642 4 574 -13 499 -13 c 0
838 913 m 1
 832 1393 l 1
 1034 1393 l 1
 983 913 l 1
 838 913 l 1
EndSplineSet
EndChar

StartChar: lcommaaccent
Encoding: 316 316 370
Width: 729
VWidth: 0
Flags: HW
PickledData: "(dp1
S'com.typemytype.robofont.layerData'
p2
(dp3
s."
LayerCount: 2
Fore
SplineSet
499 -13 m 0
 222 -13 159 124 159 401 c 2
 159 1376 l 1
 415 1393 l 1
 415 404 l 2
 415 205 450 178 535 178 c 0
 564 178 597 185 618 187 c 1
 649 7 l 1
 642 4 574 -13 499 -13 c 0
242 -614 m 1
 344 -135 l 1
 566 -135 l 1
 410 -614 l 1
 242 -614 l 1
EndSplineSet
EndChar

StartChar: less
Encoding: 60 60 371
Width: 1105
VWidth: 0
Flags: HW
PickledData: "(dp1
S'com.typemytype.robofont.layerData'
p2
(dp3
s."
LayerCount: 2
Fore
SplineSet
969 952 m 1
 364 654 l 1
 967 384 l 2
 968 383 969 169 969 169 c 1
 96 588 l 1
 96 710 l 1
 969 1157 l 1
 969 952 l 1
EndSplineSet
EndChar

StartChar: lessequal
Encoding: 8804 8804 372
Width: 1074
VWidth: 0
Flags: HW
PickledData: "(dp1
S'com.typemytype.robofont.layerData'
p2
(dp3
s."
LayerCount: 2
Fore
SplineSet
970 982 m 1
 369 681 l 1
 970 394 l 1
 970 194 l 1
 123 623 l 1
 123 738 l 1
 970 1176 l 1
 970 982 l 1
117 2 m 1
 117 159 l 1
 975 160 l 1
 975 2 l 1
 117 2 l 1
EndSplineSet
EndChar

StartChar: logicalnot
Encoding: 172 172 373
Width: 1129
VWidth: 0
Flags: HW
PickledData: "(dp1
S'com.typemytype.robofont.layerData'
p2
(dp3
s."
LayerCount: 2
Fore
SplineSet
1031 771 m 1
 1031 229 l 1
 841 229 l 1
 841 580 l 1
 112 580 l 1
 112 771 l 1
 1031 771 l 1
EndSplineSet
EndChar

StartChar: lozenge
Encoding: 9674 9674 374
Width: 1077
VWidth: 0
Flags: HW
PickledData: "(dp1
S'com.typemytype.robofont.layerData'
p2
(dp3
s."
LayerCount: 2
Fore
SplineSet
1019 667 m 1
 606 -41 l 1
 483 -41 l 1
 81 666 l 1
 490 1377 l 1
 615 1377 l 1
 1019 667 l 1
544 168 m 1
 635 337 730 502 820 667 c 1
 733 832 640 998 553 1165 c 1
 463 998 369 833 279 668 c 1
 366 503 455 335 544 168 c 1
EndSplineSet
EndChar

StartChar: lslash
Encoding: 322 322 375
Width: 597
VWidth: 0
Flags: HW
PickledData: "(dp1
S'com.typemytype.robofont.layerData'
p2
(dp3
s."
LayerCount: 2
Fore
SplineSet
21 559 m 1
 21 747 l 1
 120 807 l 1
 120 1368 l 1
 365 1387 l 1
 366 1386 366 1385 367 1384 c 1
 367 963 l 1
 507 1049 l 1
 507 859 l 1
 367 771 l 1
 367 404 l 2
 367 226 372 181 505 181 c 0
 515 181 584 187 595 188 c 2
 605 189 l 1
 621 0 l 1
 612 -1 l 2
 601 -2 506 -13 464 -13 c 0
 174 -13 120 131 120 424 c 2
 120 619 l 1
 21 559 l 1
EndSplineSet
EndChar

StartChar: m
Encoding: 109 109 376
Width: 1765
VWidth: 0
Flags: HW
PickledData: "(dp1
S'com.typemytype.robofont.layerData'
p2
(dp3
s."
LayerCount: 2
Fore
SplineSet
432 494 m 2
 432 0 l 1
 176 0 l 1
 176 1016 l 1
 384 1016 l 1
 408 903 l 1
 458 962 535 1041 714 1041 c 0
 877 1041 950 962 988 892 c 1
 1060 986 1155 1041 1289 1041 c 0
 1523 1041 1627 897 1627 646 c 2
 1627 0 l 1
 1371 0 l 1
 1371 579 l 2
 1371 762 1344 844 1229 844 c 0
 1088 844 1049 738 1032 596 c 1
 1032 0 l 1
 776 0 l 1
 776 590 l 2
 776 754 756 844 639 844 c 0
 455 844 432 694 432 494 c 2
EndSplineSet
EndChar

StartChar: macron
Encoding: 175 175 377
Width: 801
VWidth: 0
Flags: HW
PickledData: "(dp1
S'com.typemytype.robofont.layerData'
p2
(dp3
s."
LayerCount: 2
Fore
SplineSet
89 1239 m 1
 89 1398 l 1
 738 1398 l 1
 738 1239 l 1
 89 1239 l 1
EndSplineSet
EndChar

StartChar: minus
Encoding: 8722 8722 378
Width: 1240
VWidth: 0
Flags: HW
PickledData: "(dp1
S'com.typemytype.robofont.layerData'
p2
(dp3
s."
LayerCount: 2
Fore
SplineSet
152 425 m 1
 152 609 l 1
 1106 609 l 1
 1106 425 l 1
 152 425 l 1
EndSplineSet
EndChar

StartChar: multiply
Encoding: 215 215 379
Width: 1230
VWidth: 0
Flags: HW
PickledData: "(dp1
S'com.typemytype.robofont.layerData'
p2
(dp3
s."
LayerCount: 2
Fore
SplineSet
499 538 m 1
 241 810 l 1
 373 947 l 1
 639 678 l 1
 902 947 l 1
 1038 809 l 1
 777 538 l 1
 842 473 1038 272 1038 272 c 1
 903 130 l 1
 639 397 l 1
 373 130 l 1
 241 271 l 1
 499 538 l 1
EndSplineSet
EndChar

StartChar: n
Encoding: 110 110 380
Width: 1243
VWidth: 0
Flags: HW
PickledData: "(dp1
S'com.typemytype.robofont.layerData'
p2
(dp3
s."
LayerCount: 2
Fore
SplineSet
176 0 m 1
 176 1016 l 1
 384 1016 l 1
 408 902 l 1
 488 979 616 1041 757 1041 c 0
 992 1041 1105 891 1105 640 c 2
 1105 0 l 1
 849 0 l 1
 849 612 l 1
 848 761 818 844 692 844 c 0
 497 844 432 709 432 496 c 2
 432 0 l 1
 176 0 l 1
EndSplineSet
EndChar

StartChar: nacute
Encoding: 324 324 381
Width: 1203
VWidth: 0
Flags: HW
PickledData: "(dp1
S'com.typemytype.robofont.layerData'
p2
(dp3
s."
LayerCount: 2
Fore
SplineSet
159 0 m 1
 159 1016 l 1
 367 1016 l 1
 391 902 l 1
 471 979 571 1041 712 1041 c 0
 947 1041 1060 891 1060 640 c 2
 1060 0 l 1
 804 0 l 1
 804 612 l 1
 803 761 773 844 647 844 c 0
 452 844 415 709 415 496 c 2
 415 0 l 1
 159 0 l 1
531 1163 m 1
 691 1524 l 1
 983 1524 l 1
 688 1163 l 1
 531 1163 l 1
EndSplineSet
EndChar

StartChar: ncaron
Encoding: 328 328 382
Width: 1203
VWidth: 0
Flags: HW
PickledData: "(dp1
S'com.typemytype.robofont.layerData'
p2
(dp3
s."
LayerCount: 2
Fore
SplineSet
159 0 m 1
 159 1016 l 1
 367 1016 l 1
 391 902 l 1
 471 979 571 1041 712 1041 c 0
 947 1041 1060 891 1060 640 c 2
 1060 0 l 1
 804 0 l 1
 804 612 l 1
 803 761 773 844 647 844 c 0
 452 844 415 709 415 496 c 2
 415 0 l 1
 159 0 l 1
514 1163 m 1
 266 1500 l 1
 468 1500 l 1
 598 1329 l 1
 748 1500 l 1
 952 1500 l 1
 704 1163 l 1
 514 1163 l 1
EndSplineSet
EndChar

StartChar: ncommaaccent
Encoding: 326 326 383
Width: 1203
VWidth: 0
Flags: HW
PickledData: "(dp1
S'com.typemytype.robofont.layerData'
p2
(dp3
s."
LayerCount: 2
Fore
SplineSet
159 0 m 1
 159 1016 l 1
 367 1016 l 1
 391 902 l 1
 471 979 571 1041 712 1041 c 0
 947 1041 1060 891 1060 640 c 2
 1060 0 l 1
 804 0 l 1
 804 612 l 1
 803 761 773 844 647 844 c 0
 452 844 415 709 415 496 c 2
 415 0 l 1
 159 0 l 1
448 -601 m 1
 549 -122 l 1
 771 -122 l 1
 616 -601 l 1
 448 -601 l 1
EndSplineSet
EndChar

StartChar: nine
Encoding: 57 57 384
Width: 1221
VWidth: 0
Flags: HW
PickledData: "(dp1
S'com.typemytype.robofont.layerData'
p2
(dp3
s."
LayerCount: 2
Fore
SplineSet
570 0 m 1
 257 0 l 1
 648 509 l 1
 625 502 601 496 571 496 c 0
 315 496 123 665 123 918 c 0
 123 1184 334 1357 613 1357 c 0
 902 1357 1109 1184 1109 916 c 0
 1109 744 1028 620 939 497 c 0
 918 469 570 0 570 0 c 1
621 681 m 0
 785 681 849 783 849 928 c 0
 849 1068 773 1160 625 1160 c 0
 473 1160 386 1065 386 924 c 0
 386 777 460 681 621 681 c 0
EndSplineSet
EndChar

StartChar: notequal
Encoding: 8800 8800 385
Width: 1154
VWidth: 0
Flags: HW
PickledData: "(dp1
S'com.typemytype.robofont.layerData'
p2
(dp3
s."
LayerCount: 2
Fore
SplineSet
122 456 m 1
 445 456 l 1
 542 652 l 1
 132 652 l 1
 120 831 l 1
 620 831 l 1
 740 1065 l 1
 906 1043 l 1
 801 831 l 1
 1044 831 l 1
 1057 651 l 1
 722 651 l 1
 623 455 l 1
 1045 455 l 1
 1057 288 l 1
 543 288 l 1
 420 38 l 1
 256 63 l 1
 364 288 l 1
 132 288 l 1
 122 456 l 1
EndSplineSet
EndChar

StartChar: ntilde
Encoding: 241 241 386
Width: 1203
VWidth: 0
Flags: HW
PickledData: "(dp1
S'com.typemytype.robofont.layerData'
p2
(dp3
s."
LayerCount: 2
Fore
SplineSet
159 0 m 1
 159 1016 l 1
 367 1016 l 1
 391 902 l 1
 471 979 571 1041 712 1041 c 0
 947 1041 1060 891 1060 640 c 2
 1060 0 l 1
 804 0 l 1
 804 612 l 1
 803 761 773 844 647 844 c 0
 452 844 415 709 415 496 c 2
 415 0 l 1
 159 0 l 1
294 1173 m 1
 294 1267 308 1405 456 1405 c 0
 577 1405 712 1320 743 1320 c 1
 763 1321 775 1405 775 1405 c 1
 925 1405 l 1
 925 1405 915 1163 767 1163 c 0
 666 1163 533 1253 476 1253 c 0
 455 1253 441 1163 441 1163 c 1
 294 1173 l 1
EndSplineSet
EndChar

StartChar: nu
Encoding: 957 957 387
Width: 407
VWidth: 0
Flags: HW
PickledData: "(dp1
S'com.typemytype.robofont.layerData'
p2
(dp3
s."
LayerCount: 2
Fore
SplineSet
215 483 m 0
 131 483 87 547 87 610 c 0
 87 673 131 737 215 737 c 0
 300 737 342 673 342 610 c 0
 342 547 300 483 215 483 c 0
EndSplineSet
EndChar

StartChar: numbersign
Encoding: 35 35 388
Width: 1212
VWidth: 0
Flags: HW
PickledData: "(dp1
S'com.typemytype.robofont.layerData'
p2
(dp3
s."
LayerCount: 2
Fore
SplineSet
350 547 m 1
 395 808 l 1
 209 808 l 1
 216 990 l 1
 427 990 l 1
 497 1336 l 1
 688 1336 l 1
 622 990 l 1
 770 990 l 1
 835 1336 l 1
 1023 1336 l 1
 957 990 l 1
 1118 990 l 1
 1106 809 l 1
 923 809 l 1
 874 547 l 1
 1047 547 l 1
 1038 369 l 1
 845 369 l 1
 774 -13 l 1
 583 -13 l 1
 652 369 l 1
 506 369 l 1
 436 -13 l 1
 249 -13 l 1
 316 369 l 1
 138 369 l 1
 147 547 l 1
 350 547 l 1
538 547 m 1
 688 547 l 1
 736 809 l 1
 588 809 l 1
 538 547 l 1
EndSplineSet
EndChar

StartChar: o
Encoding: 111 111 389
Width: 1236
VWidth: 0
Flags: HW
PickledData: "(dp1
S'com.typemytype.robofont.guides'
p2
((dp3
S'angle'
p4
I0
sS'name'
p5
NsS'magnetic'
p6
I5
sS'isGlobal'
p7
I00
sS'y'
I512
sS'x'
I97
stp8
sS'com.typemytype.robofont.layerData'
p9
(dp10
s."
LayerCount: 2
Fore
SplineSet
618 -18 m 0
 323 -18 118 190 118 512 c 0
 118 843 310 1041 618 1041 c 0
 915 1041 1118 835 1118 512 c 0
 1118 185 926 -18 618 -18 c 0
618 178 m 0
 768 178 862 289 862 512 c 0
 862 730 769 844 618 844 c 0
 469 844 374 730 374 512 c 0
 374 291 467 178 618 178 c 0
EndSplineSet
EndChar

StartChar: oacute
Encoding: 243 243 390
Width: 1198
VWidth: 0
Flags: HW
PickledData: "(dp1
S'com.typemytype.robofont.layerData'
p2
(dp3
s."
LayerCount: 2
Fore
SplineSet
599 -18 m 0
 304 -18 119 190 119 512 c 0
 119 843 291 1041 599 1041 c 0
 896 1041 1079 835 1079 512 c 0
 1079 185 907 -18 599 -18 c 0
599 178 m 0
 749 178 823 289 823 512 c 0
 823 730 750 844 599 844 c 0
 450 844 375 729 375 511 c 0
 375 290 448 178 599 178 c 0
520 1163 m 1
 680 1524 l 1
 972 1524 l 1
 678 1163 l 1
 520 1163 l 1
EndSplineSet
EndChar

StartChar: obreve
Encoding: 335 335 391
Width: 1198
VWidth: 0
Flags: HW
PickledData: "(dp1
S'com.typemytype.robofont.layerData'
p2
(dp3
s."
LayerCount: 2
Fore
SplineSet
599 -18 m 0
 304 -18 119 190 119 512 c 0
 119 843 291 1041 599 1041 c 0
 896 1041 1079 835 1079 512 c 0
 1079 185 907 -18 599 -18 c 0
599 178 m 0
 749 178 823 289 823 512 c 0
 823 730 750 844 599 844 c 0
 450 844 375 729 375 511 c 0
 375 290 448 178 599 178 c 0
868 1406 m 1
 868 1240 751 1163 598 1163 c 0
 446 1163 330 1241 330 1406 c 1
 498 1406 l 1
 498 1345 524 1321 598 1321 c 0
 672 1321 699 1345 699 1406 c 1
 868 1406 l 1
EndSplineSet
EndChar

StartChar: ocircumflex
Encoding: 244 244 392
Width: 1198
VWidth: 0
Flags: HW
PickledData: "(dp1
S'com.typemytype.robofont.layerData'
p2
(dp3
s."
LayerCount: 2
Fore
SplineSet
599 -18 m 0
 304 -18 119 190 119 512 c 0
 119 843 291 1041 599 1041 c 0
 896 1041 1079 835 1079 512 c 0
 1079 185 907 -18 599 -18 c 0
599 178 m 0
 749 178 823 289 823 512 c 0
 823 730 750 844 599 844 c 0
 450 844 375 729 375 511 c 0
 375 290 448 178 599 178 c 0
266 1163 m 1
 500 1531 l 1
 696 1531 l 1
 932 1163 l 1
 746 1163 l 1
 588 1357 l 1
 446 1163 l 1
 266 1163 l 1
EndSplineSet
EndChar

StartChar: odieresis
Encoding: 246 246 393
Width: 1198
VWidth: 0
Flags: HW
PickledData: "(dp1
S'com.typemytype.robofont.layerData'
p2
(dp3
s."
LayerCount: 2
Fore
SplineSet
599 -18 m 0
 304 -18 119 190 119 512 c 0
 119 843 291 1041 599 1041 c 0
 896 1041 1079 835 1079 512 c 0
 1079 185 907 -18 599 -18 c 0
599 178 m 0
 749 178 823 289 823 512 c 0
 823 730 750 844 599 844 c 0
 450 844 375 729 375 511 c 0
 375 290 448 178 599 178 c 0
314 1163 m 1
 314 1408 l 1
 508 1408 l 1
 508 1163 l 1
 314 1163 l 1
690 1163 m 1
 690 1408 l 1
 884 1408 l 1
 884 1163 l 1
 690 1163 l 1
EndSplineSet
EndChar

StartChar: oe
Encoding: 339 339 394
Width: 1657
VWidth: 0
Flags: HW
PickledData: "(dp1
S'com.typemytype.robofont.layerData'
p2
(dp3
s."
LayerCount: 2
Fore
SplineSet
882 872 m 1
 949 977 1068 1033 1225 1034 c 1
 1511 1034 1626 816 1626 540 c 0
 1626 517 1625 466 1625 461 c 2
 1625 451 l 1
 997 451 l 1
 1004 266 1096 161 1257 161 c 0
 1379 161 1462 204 1522 249 c 1
 1532 256 l 1
 1604 100 l 1
 1598 95 l 1
 1513 30 1414 -18 1252 -18 c 0
 1076 -18 951 39 880 148 c 1
 815 52 694 -18 531 -18 c 0
 208 -18 55 224 55 511 c 0
 55 806 208 1034 532 1034 c 0
 694 1034 810 973 882 872 c 1
1000 614 m 1
 1399 614 l 1
 1398 781 1333 857 1211 857 c 0
 1119 857 1018 804 1000 614 c 1
531 159 m 0
 672 159 768 288 768 511 c 0
 768 742 675 856 530 856 c 0
 386 856 295 733 295 510 c 0
 295 292 388 159 531 159 c 0
EndSplineSet
EndChar

StartChar: ogonek
Encoding: 731 731 395
Width: 504
VWidth: 0
Flags: HW
PickledData: "(dp1
S'com.typemytype.robofont.layerData'
p2
(dp3
s."
LayerCount: 2
Fore
SplineSet
290 -340 m 0
 186 -340 95 -286 95 -172 c 0
 95 -49 198 26 269 67 c 1
 376 51 l 1
 302 -6 270 -70 270 -125 c 0
 270 -159 296 -194 334 -194 c 0
 386 -194 445 -168 457 -163 c 0
 458 -163 465 -304 465 -304 c 1
 410 -325 349 -340 290 -340 c 0
EndSplineSet
EndChar

StartChar: ograve
Encoding: 242 242 396
Width: 1198
VWidth: 0
Flags: HW
PickledData: "(dp1
S'com.typemytype.robofont.layerData'
p2
(dp3
s."
LayerCount: 2
Fore
SplineSet
599 -18 m 0
 304 -18 119 190 119 512 c 0
 119 843 291 1041 599 1041 c 0
 896 1041 1079 835 1079 512 c 0
 1079 185 907 -18 599 -18 c 0
599 178 m 0
 749 178 823 289 823 512 c 0
 823 730 750 844 599 844 c 0
 450 844 375 729 375 511 c 0
 375 290 448 178 599 178 c 0
516 1163 m 1
 206 1524 l 1
 504 1524 l 1
 682 1163 l 1
 516 1163 l 1
EndSplineSet
EndChar

StartChar: ohorn
Encoding: 417 417 397
Width: 1198
VWidth: 0
Flags: HW
PickledData: "(dp1
S'com.typemytype.robofont.layerData'
p2
(dp3
s."
LayerCount: 2
Fore
SplineSet
599 -18 m 0
 304 -18 119 190 119 512 c 0
 119 843 291 1041 599 1041 c 0
 896 1041 1079 835 1079 512 c 0
 1079 185 907 -18 599 -18 c 0
599 178 m 0
 749 178 823 289 823 512 c 0
 823 730 750 844 599 844 c 0
 450 844 375 729 375 511 c 0
 375 290 448 178 599 178 c 0
1140 823 m 1
 1149 823 l 2
 1163 823 1179 822 1193 822 c 0
 1237 822 1251 853 1251 900 c 0
 1251 941 1238 992 1225 1028 c 2
 1220 1041 l 1
 1345 1041 l 1
 1346 1035 l 1
 1364 991 1375 943 1375 899 c 0
 1375 803 1328 715 1231 715 c 0
 1204 715 1176 718 1148 721 c 2
 1140 722 l 1
 1140 823 l 1
EndSplineSet
EndChar

StartChar: ohungarumlaut
Encoding: 337 337 398
Width: 1198
VWidth: 0
Flags: HW
PickledData: "(dp1
S'com.typemytype.robofont.layerData'
p2
(dp3
s."
LayerCount: 2
Fore
SplineSet
599 -18 m 0
 304 -18 119 190 119 512 c 0
 119 843 291 1041 599 1041 c 0
 896 1041 1079 835 1079 512 c 0
 1079 185 907 -18 599 -18 c 0
599 178 m 0
 749 178 823 289 823 512 c 0
 823 730 750 844 599 844 c 0
 450 844 375 729 375 511 c 0
 375 290 448 178 599 178 c 0
392 1163 m 1
 624 1503 l 1
 850 1503 l 1
 534 1163 l 1
 392 1163 l 1
666 1163 m 1
 902 1503 l 1
 1132 1503 l 1
 806 1163 l 1
 666 1163 l 1
EndSplineSet
EndChar

StartChar: omacron
Encoding: 333 333 399
Width: 1198
VWidth: 0
Flags: HW
PickledData: "(dp1
S'com.typemytype.robofont.layerData'
p2
(dp3
s."
LayerCount: 2
Fore
SplineSet
599 -18 m 0
 304 -18 119 190 119 512 c 0
 119 843 291 1041 599 1041 c 0
 896 1041 1079 835 1079 512 c 0
 1079 185 907 -18 599 -18 c 0
599 178 m 0
 749 178 823 289 823 512 c 0
 823 730 750 844 599 844 c 0
 450 844 375 729 375 511 c 0
 375 290 448 178 599 178 c 0
274 1163 m 1
 274 1322 l 1
 924 1322 l 1
 924 1163 l 1
 274 1163 l 1
EndSplineSet
EndChar

StartChar: omega
Encoding: 969 969 400
Width: 407
VWidth: 0
Flags: HW
PickledData: "(dp1
S'com.typemytype.robofont.layerData'
p2
(dp3
s."
LayerCount: 2
Fore
SplineSet
215 483 m 0
 131 483 87 547 87 610 c 0
 87 673 131 737 215 737 c 0
 300 737 342 673 342 610 c 0
 342 547 300 483 215 483 c 0
EndSplineSet
EndChar

StartChar: omegatonos
Encoding: 974 974 401
Width: 407
VWidth: 0
Flags: HW
PickledData: "(dp1
S'com.typemytype.robofont.layerData'
p2
(dp3
s."
LayerCount: 2
Fore
SplineSet
215 483 m 0
 131 483 87 547 87 610 c 0
 87 673 131 737 215 737 c 0
 300 737 342 673 342 610 c 0
 342 547 300 483 215 483 c 0
EndSplineSet
EndChar

StartChar: omicron
Encoding: 959 959 402
Width: 1071
VWidth: 0
Flags: HW
PickledData: "(dp1
S'com.typemytype.robofont.layerData'
p2
(dp3
s."
LayerCount: 2
Fore
SplineSet
545 -18 m 0
 250 -18 72 200 72 512 c 0
 72 833 246 1041 554 1041 c 0
 851 1041 1027 825 1027 512 c 0
 1027 195 853 -18 545 -18 c 0
549 844 m 0
 400 844 324 729 324 511 c 0
 324 296 399 178 550 178 c 0
 700 178 774 296 774 512 c 0
 774 730 700 844 549 844 c 0
EndSplineSet
EndChar

StartChar: omicrontonos
Encoding: 972 972 403
Width: 407
VWidth: 0
Flags: HW
PickledData: "(dp1
S'com.typemytype.robofont.layerData'
p2
(dp3
s."
LayerCount: 2
Fore
SplineSet
215 483 m 0
 131 483 87 547 87 610 c 0
 87 673 131 737 215 737 c 0
 300 737 342 673 342 610 c 0
 342 547 300 483 215 483 c 0
EndSplineSet
EndChar

StartChar: one
Encoding: 49 49 404
Width: 1117
VWidth: 0
Flags: HW
PickledData: "(dp1
S'com.typemytype.robofont.layerData'
p2
(dp3
s."
LayerCount: 2
Fore
SplineSet
997 0 m 1
 196 0 l 1
 196 200 l 1
 484 200 l 1
 484 1096 l 1
 444 1068 335 1021 196 999 c 1
 196 1200 l 1
 313 1232 441 1280 519 1336 c 1
 740 1336 l 1
 740 200 l 1
 997 200 l 1
 997 0 l 1
EndSplineSet
EndChar

StartChar: onehalf
Encoding: 189 189 405
Width: 1593
VWidth: 0
Flags: HW
PickledData: "(dp1
S'com.typemytype.robofont.layerData'
p2
(dp3
s."
LayerCount: 2
Fore
SplineSet
232 1186 m 1
 199 1167 111 1116 102 1112 c 2
 89 1105 l 1
 89 1258 l 1
 94 1261 l 1
 106 1267 248 1350 254 1356 c 2
 257 1359 l 1
 421 1358 l 1
 421 691 l 1
 545 691 l 1
 545 553 l 1
 106 553 l 1
 106 691 l 1
 232 691 l 1
 232 1186 l 1
464 19 m 1
 262 19 l 1
 1178 1347 l 1
 1378 1347 l 1
 464 19 l 1
1514 -26 m 1
 1002 -26 l 1
 1003 113 l 1
 1006 115 l 1
 1182 268 1360 388 1360 510 c 0
 1360 579 1302 618 1246 618 c 0
 1183 618 1109 591 1068 535 c 2
 1059 523 l 1
 991 646 l 1
 994 651 l 1
 1050 733 1150 772 1265 772 c 0
 1402 772 1531 678 1531 515 c 0
 1531 342 1411 249 1250 114 c 1
 1531 114 l 1
 1514 -26 l 1
EndSplineSet
EndChar

StartChar: onequarter
Encoding: 188 188 406
Width: 1525
VWidth: 0
Flags: HW
PickledData: "(dp1
S'com.typemytype.robofont.layerData'
p2
(dp3
s."
LayerCount: 2
Fore
SplineSet
87 544 m 1
 87 696 l 1
 214 696 l 1
 214 1171 l 1
 180 1155 91 1114 85 1111 c 2
 70 1103 l 1
 70 1257 l 1
 75 1260 l 2
 87 1267 242 1342 258 1354 c 1
 261 1359 l 1
 402 1358 l 1
 402 696 l 1
 527 696 l 1
 527 544 l 1
 87 544 l 1
459 0 m 1
 258 0 l 1
 1174 1347 l 1
 1370 1347 l 1
 459 0 l 1
1382 9 m 1
 1223 9 l 1
 1223 161 l 1
 866 161 l 1
 866 305 l 1
 1213 798 l 1
 1384 798 l 1
 1384 301 l 1
 1485 301 l 1
 1488 161 l 1
 1383 161 l 1
 1382 9 l 1
1064 301 m 1
 1221 301 l 1
 1221 560 l 1
 1064 301 l 1
EndSplineSet
EndChar

StartChar: ordfeminine
Encoding: 170 170 407
Width: 664
VWidth: 0
Flags: HW
PickledData: "(dp1
S'com.typemytype.robofont.layerData'
p2
(dp3
s."
LayerCount: 2
Fore
SplineSet
269 686 m 0
 157 686 60 754 60 885 c 0
 60 1079 280 1096 443 1114 c 1
 443 1134 l 1
 442 1222 413 1250 343 1250 c 0
 286 1250 213 1236 125 1200 c 1
 79 1315 l 1
 163 1359 264 1384 358 1384 c 0
 493 1384 609 1325 609 1156 c 2
 609 813 l 2
 609 810 611 698 611 698 c 1
 472 698 l 1
 459 762 l 1
 417 717 337 686 269 686 c 0
94 486 m 1
 94 611 l 1
 613 611 l 1
 613 486 l 1
 94 486 l 1
286 813 m 0
 341 813 399 846 443 909 c 1
 443 996 l 1
 302 977 219 958 219 883 c 0
 219 834 248 813 286 813 c 0
EndSplineSet
EndChar

